<svg width="25" height="23" viewBox="0 0 25 23" fill="none" xmlns="http://www.w3.org/2000/svg">
<path d="M23.5143 10.2797C23.2516 10.2211 22.979 10.2382 22.7261 10.3235C22.2448 8.57044 21.2307 7.00753 19.8261 5.84448C19.669 5.00085 19.8556 4.13039 20.3443 3.4233C20.5309 3.11608 20.4302 2.71865 20.1208 2.53334C19.9907 2.45532 19.8384 2.42606 19.6886 2.448C18.0312 2.66013 17.0809 3.4233 16.5481 4.12064C15.9244 3.94752 15.2859 3.84024 14.6401 3.80367C14.6278 3.80367 14.618 3.80367 14.6057 3.80367C16.0962 7.89505 13.9649 12.4107 9.84453 13.8907C7.4455 14.7514 4.77637 14.4174 2.66954 12.9886C2.65972 13.0154 2.65481 13.0446 2.65481 13.0739C2.76531 15.4512 3.83591 17.6846 5.62597 19.2695C6.2423 19.801 6.59835 20.5666 6.60817 21.3761V22.4197C6.60817 22.7391 6.87091 23 7.19258 23H10.7457C11.0674 23 11.3301 22.7391 11.3301 22.4197V21.52H11.5757H14.1539V22.4148C14.1539 22.7342 14.4167 22.9951 14.7383 22.9951H18.3037C18.6254 22.9951 18.8881 22.7342 18.8881 22.4148V21.62C18.8832 20.7788 19.2467 19.9766 19.8851 19.4255C21.27 18.26 22.262 16.702 22.7335 14.9611C22.9864 15.0464 23.2589 15.0611 23.5217 15.0025C24.2068 14.8343 24.6856 14.2174 24.6733 13.5152V11.7743C24.6856 11.0696 24.2043 10.4479 23.5143 10.2797ZM19.1411 10.4333C18.6549 10.4333 18.2595 10.0407 18.2595 9.55794C18.2595 9.07516 18.6549 8.6826 19.1411 8.6826C19.6273 8.6826 20.0226 9.07516 20.0226 9.55794C20.025 10.0407 19.6322 10.4357 19.146 10.4381C19.1435 10.4381 19.1435 10.4381 19.1411 10.4381V10.4333ZM7.1361 12.9617C10.7408 12.9617 13.6628 10.0602 13.6628 6.48087C13.6628 2.90152 10.7408 0 7.1361 0C3.53142 0 0.611831 2.89908 0.609375 6.47843C0.611831 10.0578 3.53142 12.9569 7.1361 12.9617ZM6.59344 3.1746V2.68695C6.59344 2.40168 6.82671 2.17004 7.11401 2.17004C7.4013 2.17004 7.63457 2.40168 7.63457 2.68695V3.09901C7.96606 3.10877 8.2951 3.15509 8.61677 3.23799C8.94581 3.32821 9.13734 3.66469 9.04649 3.99141C8.97282 4.25474 8.73464 4.43761 8.45962 4.44005C8.40314 4.44005 8.34421 4.43274 8.29019 4.41567C7.98571 4.32545 7.66895 4.28156 7.34973 4.28156C6.65974 4.28156 6.43629 4.57659 6.43629 4.87162C6.43629 5.22029 6.80952 5.44217 7.71069 5.77865C8.97528 6.22241 9.48602 6.80271 9.48602 7.75363C9.48602 8.70455 8.81567 9.49454 7.59283 9.70423V10.2797C7.59283 10.5649 7.35956 10.7966 7.07226 10.7966C6.78497 10.7966 6.55169 10.5649 6.55169 10.2797V9.79201C6.11707 9.76762 5.68736 9.68472 5.27483 9.54818C4.96544 9.44821 4.78864 9.1288 4.86722 8.81671L4.8795 8.7655C4.95316 8.50461 5.19135 8.32662 5.46391 8.32906C5.53266 8.32906 5.60141 8.34125 5.66771 8.36319C6.03849 8.48998 6.42646 8.55581 6.81689 8.55825C7.4234 8.55825 7.83838 8.31443 7.83838 7.9048C7.83838 7.49518 7.49706 7.25135 6.7113 6.98558C5.5744 6.60522 4.79846 6.07855 4.79846 5.05449C4.79846 4.12552 5.45654 3.39648 6.59344 3.1746Z" fill="white"/>
</svg>
