<svg width="24" height="23" viewBox="0 0 24 23" fill="none" xmlns="http://www.w3.org/2000/svg">
<path d="M3.5171 11.8594H7.48098C8.27376 11.8594 8.92239 11.2125 8.92239 10.4219V7.54688C8.92239 6.75625 8.27376 6.10938 7.48098 6.10938H3.5171C2.72432 6.10938 2.07569 6.75625 2.07569 7.54688V10.4219C2.07569 11.2125 2.72432 11.8594 3.5171 11.8594Z" fill="white"/>
<path d="M10.3638 6.82812H17.9312C18.1294 6.82812 18.2916 6.66641 18.2916 6.46875C18.2916 6.27109 18.1294 6.10938 17.9312 6.10938H10.3638C10.1656 6.10938 10.0034 6.27109 10.0034 6.46875C10.0034 6.66641 10.1656 6.82812 10.3638 6.82812Z" fill="white"/>
<path d="M10.3638 8.26562H17.9312C18.1294 8.26562 18.2916 8.10391 18.2916 7.90625C18.2916 7.70859 18.1294 7.54688 17.9312 7.54688H10.3638C10.1656 7.54688 10.0034 7.70859 10.0034 7.90625C10.0034 8.10391 10.1656 8.26562 10.3638 8.26562Z" fill="white"/>
<path d="M10.3638 9.70312H17.9312C18.1294 9.70312 18.2916 9.54141 18.2916 9.34375C18.2916 9.14609 18.1294 8.98438 17.9312 8.98438H10.3638C10.1656 8.98438 10.0034 9.14609 10.0034 9.34375C10.0034 9.54141 10.1656 9.70312 10.3638 9.70312Z" fill="white"/>
<path d="M13.8088 11.1406C14.007 11.1406 14.1691 10.9789 14.1691 10.7812C14.1691 10.5836 14.007 10.4219 13.8088 10.4219H10.3638C10.1656 10.4219 10.0034 10.5836 10.0034 10.7812C10.0034 10.9789 10.1656 11.1406 10.3638 11.1406H13.8088Z" fill="white"/>
<path d="M9.82327 12.5781H2.25587C2.05767 12.5781 1.89551 12.7398 1.89551 12.9375C1.89551 13.1352 2.05767 13.2969 2.25587 13.2969H9.82327C10.0215 13.2969 10.1836 13.1352 10.1836 12.9375C10.1836 12.7398 10.0215 12.5781 9.82327 12.5781Z" fill="white"/>
<path d="M9.82327 14.0156H2.25587C2.05767 14.0156 1.89551 14.1773 1.89551 14.375C1.89551 14.5727 2.05767 14.7344 2.25587 14.7344H9.82327C10.0215 14.7344 10.1836 14.5727 10.1836 14.375C10.1836 14.1773 10.0215 14.0156 9.82327 14.0156Z" fill="white"/>
<path d="M9.82327 15.4531H2.25587C2.05767 15.4531 1.89551 15.6148 1.89551 15.8125C1.89551 16.0102 2.05767 16.1719 2.25587 16.1719H9.82327C10.0215 16.1719 10.1836 16.0102 10.1836 15.8125C10.1836 15.6148 10.0215 15.4531 9.82327 15.4531Z" fill="white"/>
<path d="M14.8088 13.4766C14.2394 13.4766 13.9926 13.9725 14.2466 14.7829L16.2376 20.5545C16.4123 21.1097 16.6862 21.39 16.9781 21.39C17.2393 21.39 17.5186 21.1654 17.7582 20.7108L18.2087 19.6955L20.7636 22.4286C21.1131 22.8041 21.5672 23 21.9888 23C22.2951 23 22.5834 22.8976 22.8032 22.6837C23.3257 22.177 23.259 21.2427 22.6536 20.5958L20.0591 17.8178L21.0248 17.3866C21.9509 16.8906 21.9185 16.1611 20.951 15.7586L15.3979 13.6131C15.1763 13.5197 14.9781 13.4766 14.8088 13.4766Z" fill="white"/>
<path d="M1.53516 19.4062H15.0808L14.8322 18.6875H1.53516C1.13697 18.6875 0.814455 18.3659 0.814455 17.9688V3.23438H19.5528V14.4469L20.2735 14.7254V1.4375C20.2735 0.646875 19.6249 0 18.8321 0H1.53516C0.742385 0 0.09375 0.646875 0.09375 1.4375V17.9688C0.09375 18.7594 0.742385 19.4062 1.53516 19.4062ZM17.751 1.07812C18.0501 1.07812 18.2916 1.31891 18.2916 1.61719C18.2916 1.91547 18.0501 2.15625 17.751 2.15625C17.4519 2.15625 17.2105 1.91547 17.2105 1.61719C17.2105 1.31891 17.4519 1.07812 17.751 1.07812ZM15.7691 1.07812C16.0682 1.07812 16.3096 1.31891 16.3096 1.61719C16.3096 1.91547 16.0682 2.15625 15.7691 2.15625C15.47 2.15625 15.2286 1.91547 15.2286 1.61719C15.2286 1.31891 15.47 1.07812 15.7691 1.07812Z" fill="white"/>
</svg>
