<svg width="24" height="23" viewBox="0 0 24 23" fill="none" xmlns="http://www.w3.org/2000/svg">
<path d="M11.7396 0C18.0644 0 23.2217 5.14346 23.2217 11.5485C23.2217 17.8565 18.0644 23 11.7396 23C5.31737 23 0.160156 17.8565 0.160156 11.5485C0.160156 5.14346 5.31737 0 11.7396 0ZM9.30691 4.75527C9.69613 5.33755 9.89075 5.62869 10.28 6.21097C10.6692 6.79325 10.5719 7.66667 9.98805 8.05485L8.91769 8.83122C7.5554 9.80169 12.1288 16.2068 13.3938 15.2363L14.4641 14.4599C15.1453 14.0717 16.021 14.1688 16.4102 14.8481C16.7995 15.3333 16.9941 15.6245 17.3833 16.2068C17.8698 16.8861 17.8698 17.9536 17.1887 18.3418C12.0315 22.1266 1.91166 8.05485 7.16618 4.27004C7.84732 3.78481 8.82038 4.173 9.30691 4.75527ZM11.7396 1.2616C6.09582 1.2616 1.42513 5.91983 1.42513 11.5485C1.42513 17.1772 6.09582 21.7384 11.7396 21.7384C17.3833 21.7384 21.9567 17.1772 21.9567 11.5485C21.9567 5.91983 17.3833 1.2616 11.7396 1.2616Z" fill="white"/>
</svg>
