<svg width="950" height="276" viewBox="0 0 950 276" fill="none" xmlns="http://www.w3.org/2000/svg">
<path d="M0.92041 222.58H889.244" stroke="black" stroke-opacity="0.1"/>
<path d="M0.92041 104.799H889.244" stroke="black" stroke-opacity="0.1"/>
<path d="M0.92041 252.154H889.244" stroke="black" stroke-opacity="0.1"/>
<path d="M0.92041 193.006H889.244" stroke="black" stroke-opacity="0.1"/>
<path d="M0.92041 75.2251H889.244" stroke="black" stroke-opacity="0.1"/>
<path d="M0.92041 163.432H889.244" stroke="black" stroke-opacity="0.1"/>
<path d="M0.92041 45.651H889.244" stroke="black" stroke-opacity="0.1"/>
<path d="M0.92041 133.857H889.244" stroke="black" stroke-opacity="0.1"/>
<path d="M0.92041 16.0769H889.244" stroke="black" stroke-opacity="0.1"/>
<path d="M0.92041 16.0769V252.154" stroke="black" stroke-opacity="0.1"/>
<path d="M149.128 16.0769V252.154" stroke="black" stroke-opacity="0.1"/>
<path d="M296.415 16.0769V252.154" stroke="black" stroke-opacity="0.1"/>
<path d="M444.622 16.0769V252.154" stroke="black" stroke-opacity="0.1"/>
<path d="M592.829 16.0769V252.154" stroke="black" stroke-opacity="0.1"/>
<path d="M741.037 16.0769V252.154" stroke="black" stroke-opacity="0.1"/>
<path d="M888.324 16.0769V252.154" stroke="black" stroke-opacity="0.1"/>
<path d="M128.163 264.207L127.631 264.613C128.107 265.047 128.695 265.649 128.961 266.041L129.647 265.467C129.381 265.117 128.849 264.599 128.387 264.207H131.033V263.367H127.449C127.589 263.087 127.715 262.807 127.827 262.527L126.917 262.275C126.441 263.437 125.657 264.557 124.803 265.327C125.027 265.495 125.391 265.831 125.531 266.013C126.035 265.523 126.525 264.907 126.959 264.207H128.163ZM130.529 269.345V270.647H127.169C127.239 270.241 127.309 269.779 127.379 269.345H130.529ZM131.551 267.175H135.219V268.463H131.551V267.175ZM131.551 270.647V269.345H136.241V266.293H126.007V267.175H130.529V268.463H126.497C126.385 269.457 126.189 270.703 126.007 271.543H129.703C128.555 272.733 126.777 273.811 125.153 274.343C125.391 274.539 125.671 274.917 125.825 275.169C127.491 274.525 129.297 273.321 130.529 271.935V275.155H131.551V271.543H135.583C135.443 272.803 135.289 273.349 135.107 273.545C134.981 273.643 134.841 273.657 134.603 273.657C134.351 273.657 133.707 273.657 133.021 273.587C133.175 273.853 133.287 274.245 133.301 274.553C134.015 274.581 134.701 274.581 135.065 274.553C135.443 274.539 135.709 274.455 135.933 274.203C136.297 273.867 136.479 273.013 136.675 271.081C136.689 270.927 136.703 270.647 136.703 270.647H131.551ZM133.217 263.381C133.343 263.087 133.469 262.807 133.581 262.499L132.615 262.275C132.279 263.283 131.649 264.235 130.879 264.879C131.103 265.005 131.495 265.327 131.663 265.495C132.041 265.131 132.405 264.697 132.727 264.207H134.295L133.693 264.697C134.197 265.103 134.813 265.691 135.135 266.055L135.821 265.467C135.513 265.103 134.925 264.599 134.435 264.207H137.445V263.381H133.217ZM139.349 274.077H144.977V273.013H142.919V263.801H141.939C141.379 264.137 140.721 264.375 139.811 264.543V265.355H141.631V273.013H139.349V274.077ZM149.243 262.429C148.543 264.543 147.423 266.643 146.177 268.001C146.359 268.253 146.639 268.827 146.723 269.051C147.199 268.519 147.647 267.889 148.081 267.203V275.155H149.075V265.411C149.509 264.543 149.887 263.619 150.195 262.695L149.243 262.429ZM155.963 271.445H153.597V269.275H155.963V271.445ZM157.335 266.951V266.153H155.179V264.571H154.325V266.153H152.225V266.951H154.325V268.491H152.799V272.215H156.789V268.491H155.179V266.951H157.335ZM151.651 273.377V264.123H157.811V273.377H151.651ZM150.685 263.213V275.127H151.651V274.301H157.811V275.015H158.805V263.213H150.685ZM163.705 269.793C163.817 268.967 163.859 268.169 163.859 267.441H170.257V269.793H163.705ZM170.257 264.123V266.447H163.859V264.123H170.257ZM171.335 263.101H162.809V267.385C162.809 269.611 162.585 272.453 160.359 274.413C160.569 274.567 160.989 274.945 161.129 275.169C162.487 273.979 163.187 272.397 163.537 270.815H170.257V273.615C170.257 273.923 170.145 274.021 169.823 274.035C169.501 274.035 168.381 274.049 167.219 274.007C167.387 274.301 167.583 274.791 167.653 275.085C169.151 275.085 170.075 275.071 170.607 274.889C171.125 274.721 171.335 274.357 171.335 273.629V263.101Z" fill="black"/>
<path d="M279.663 264.207L279.131 264.613C279.607 265.047 280.195 265.649 280.461 266.041L281.147 265.467C280.881 265.117 280.349 264.599 279.887 264.207H282.533V263.367H278.949C279.089 263.087 279.215 262.807 279.327 262.527L278.417 262.275C277.941 263.437 277.157 264.557 276.303 265.327C276.527 265.495 276.891 265.831 277.031 266.013C277.535 265.523 278.025 264.907 278.459 264.207H279.663ZM282.029 269.345V270.647H278.669C278.739 270.241 278.809 269.779 278.879 269.345H282.029ZM283.051 267.175H286.719V268.463H283.051V267.175ZM283.051 270.647V269.345H287.741V266.293H277.507V267.175H282.029V268.463H277.997C277.885 269.457 277.689 270.703 277.507 271.543H281.203C280.055 272.733 278.277 273.811 276.653 274.343C276.891 274.539 277.171 274.917 277.325 275.169C278.991 274.525 280.797 273.321 282.029 271.935V275.155H283.051V271.543H287.083C286.943 272.803 286.789 273.349 286.607 273.545C286.481 273.643 286.341 273.657 286.103 273.657C285.851 273.657 285.207 273.657 284.521 273.587C284.675 273.853 284.787 274.245 284.801 274.553C285.515 274.581 286.201 274.581 286.565 274.553C286.943 274.539 287.209 274.455 287.433 274.203C287.797 273.867 287.979 273.013 288.175 271.081C288.189 270.927 288.203 270.647 288.203 270.647H283.051ZM284.717 263.381C284.843 263.087 284.969 262.807 285.081 262.499L284.115 262.275C283.779 263.283 283.149 264.235 282.379 264.879C282.603 265.005 282.995 265.327 283.163 265.495C283.541 265.131 283.905 264.697 284.227 264.207H285.795L285.193 264.697C285.697 265.103 286.313 265.691 286.635 266.055L287.321 265.467C287.013 265.103 286.425 264.599 285.935 264.207H288.945V263.381H284.717ZM290.233 274.077H296.687V272.971H293.845C293.327 272.971 292.697 273.027 292.165 273.069C294.573 270.787 296.183 268.701 296.183 266.657C296.183 264.823 295.035 263.619 293.201 263.619C291.899 263.619 291.017 264.221 290.177 265.131L290.919 265.859C291.479 265.187 292.207 264.669 293.047 264.669C294.321 264.669 294.937 265.523 294.937 266.699C294.937 268.463 293.453 270.507 290.233 273.321V274.077ZM300.743 262.429C300.043 264.543 298.923 266.643 297.677 268.001C297.859 268.253 298.139 268.827 298.223 269.051C298.699 268.519 299.147 267.889 299.581 267.203V275.155H300.575V265.411C301.009 264.543 301.387 263.619 301.695 262.695L300.743 262.429ZM307.463 271.445H305.097V269.275H307.463V271.445ZM308.835 266.951V266.153H306.679V264.571H305.825V266.153H303.725V266.951H305.825V268.491H304.299V272.215H308.289V268.491H306.679V266.951H308.835ZM303.151 273.377V264.123H309.311V273.377H303.151ZM302.185 263.213V275.127H303.151V274.301H309.311V275.015H310.305V263.213H302.185ZM315.205 269.793C315.317 268.967 315.359 268.169 315.359 267.441H321.757V269.793H315.205ZM321.757 264.123V266.447H315.359V264.123H321.757ZM322.835 263.101H314.309V267.385C314.309 269.611 314.085 272.453 311.859 274.413C312.069 274.567 312.489 274.945 312.629 275.169C313.987 273.979 314.687 272.397 315.037 270.815H321.757V273.615C321.757 273.923 321.645 274.021 321.323 274.035C321.001 274.035 319.881 274.049 318.719 274.007C318.887 274.301 319.083 274.791 319.153 275.085C320.651 275.085 321.575 275.071 322.107 274.889C322.625 274.721 322.835 274.357 322.835 273.629V263.101Z" fill="black"/>
<path d="M424.163 264.207L423.631 264.613C424.107 265.047 424.695 265.649 424.961 266.041L425.647 265.467C425.381 265.117 424.849 264.599 424.387 264.207H427.033V263.367H423.449C423.589 263.087 423.715 262.807 423.827 262.527L422.917 262.275C422.441 263.437 421.657 264.557 420.803 265.327C421.027 265.495 421.391 265.831 421.531 266.013C422.035 265.523 422.525 264.907 422.959 264.207H424.163ZM426.529 269.345V270.647H423.169C423.239 270.241 423.309 269.779 423.379 269.345H426.529ZM427.551 267.175H431.219V268.463H427.551V267.175ZM427.551 270.647V269.345H432.241V266.293H422.007V267.175H426.529V268.463H422.497C422.385 269.457 422.189 270.703 422.007 271.543H425.703C424.555 272.733 422.777 273.811 421.153 274.343C421.391 274.539 421.671 274.917 421.825 275.169C423.491 274.525 425.297 273.321 426.529 271.935V275.155H427.551V271.543H431.583C431.443 272.803 431.289 273.349 431.107 273.545C430.981 273.643 430.841 273.657 430.603 273.657C430.351 273.657 429.707 273.657 429.021 273.587C429.175 273.853 429.287 274.245 429.301 274.553C430.015 274.581 430.701 274.581 431.065 274.553C431.443 274.539 431.709 274.455 431.933 274.203C432.297 273.867 432.479 273.013 432.675 271.081C432.689 270.927 432.703 270.647 432.703 270.647H427.551ZM429.217 263.381C429.343 263.087 429.469 262.807 429.581 262.499L428.615 262.275C428.279 263.283 427.649 264.235 426.879 264.879C427.103 265.005 427.495 265.327 427.663 265.495C428.041 265.131 428.405 264.697 428.727 264.207H430.295L429.693 264.697C430.197 265.103 430.813 265.691 431.135 266.055L431.821 265.467C431.513 265.103 430.925 264.599 430.435 264.207H433.445V263.381H429.217ZM437.813 274.259C439.633 274.259 441.103 273.167 441.103 271.333C441.103 269.933 440.137 269.009 438.933 268.729V268.673C440.011 268.267 440.753 267.441 440.753 266.195C440.753 264.571 439.493 263.619 437.771 263.619C436.581 263.619 435.671 264.137 434.901 264.851L435.587 265.663C436.161 265.075 436.889 264.669 437.715 264.669C438.779 264.669 439.451 265.313 439.451 266.293C439.451 267.399 438.723 268.253 436.609 268.253V269.233C438.975 269.233 439.801 270.059 439.801 271.277C439.801 272.467 438.933 273.195 437.715 273.195C436.553 273.195 435.769 272.649 435.167 272.019L434.523 272.859C435.195 273.587 436.203 274.259 437.813 274.259ZM445.243 262.429C444.543 264.543 443.423 266.643 442.177 268.001C442.359 268.253 442.639 268.827 442.723 269.051C443.199 268.519 443.647 267.889 444.081 267.203V275.155H445.075V265.411C445.509 264.543 445.887 263.619 446.195 262.695L445.243 262.429ZM451.963 271.445H449.597V269.275H451.963V271.445ZM453.335 266.951V266.153H451.179V264.571H450.325V266.153H448.225V266.951H450.325V268.491H448.799V272.215H452.789V268.491H451.179V266.951H453.335ZM447.651 273.377V264.123H453.811V273.377H447.651ZM446.685 263.213V275.127H447.651V274.301H453.811V275.015H454.805V263.213H446.685ZM459.705 269.793C459.817 268.967 459.859 268.169 459.859 267.441H466.257V269.793H459.705ZM466.257 264.123V266.447H459.859V264.123H466.257ZM467.335 263.101H458.809V267.385C458.809 269.611 458.585 272.453 456.359 274.413C456.569 274.567 456.989 274.945 457.129 275.169C458.487 273.979 459.187 272.397 459.537 270.815H466.257V273.615C466.257 273.923 466.145 274.021 465.823 274.035C465.501 274.035 464.381 274.049 463.219 274.007C463.387 274.301 463.583 274.791 463.653 275.085C465.151 275.085 466.075 275.071 466.607 274.889C467.125 274.721 467.335 274.357 467.335 273.629V263.101Z" fill="black"/>
<path d="M572.663 264.207L572.131 264.613C572.607 265.047 573.195 265.649 573.461 266.041L574.147 265.467C573.881 265.117 573.349 264.599 572.887 264.207H575.533V263.367H571.949C572.089 263.087 572.215 262.807 572.327 262.527L571.417 262.275C570.941 263.437 570.157 264.557 569.303 265.327C569.527 265.495 569.891 265.831 570.031 266.013C570.535 265.523 571.025 264.907 571.459 264.207H572.663ZM575.029 269.345V270.647H571.669C571.739 270.241 571.809 269.779 571.879 269.345H575.029ZM576.051 267.175H579.719V268.463H576.051V267.175ZM576.051 270.647V269.345H580.741V266.293H570.507V267.175H575.029V268.463H570.997C570.885 269.457 570.689 270.703 570.507 271.543H574.203C573.055 272.733 571.277 273.811 569.653 274.343C569.891 274.539 570.171 274.917 570.325 275.169C571.991 274.525 573.797 273.321 575.029 271.935V275.155H576.051V271.543H580.083C579.943 272.803 579.789 273.349 579.607 273.545C579.481 273.643 579.341 273.657 579.103 273.657C578.851 273.657 578.207 273.657 577.521 273.587C577.675 273.853 577.787 274.245 577.801 274.553C578.515 274.581 579.201 274.581 579.565 274.553C579.943 274.539 580.209 274.455 580.433 274.203C580.797 273.867 580.979 273.013 581.175 271.081C581.189 270.927 581.203 270.647 581.203 270.647H576.051ZM577.717 263.381C577.843 263.087 577.969 262.807 578.081 262.499L577.115 262.275C576.779 263.283 576.149 264.235 575.379 264.879C575.603 265.005 575.995 265.327 576.163 265.495C576.541 265.131 576.905 264.697 577.227 264.207H578.795L578.193 264.697C578.697 265.103 579.313 265.691 579.635 266.055L580.321 265.467C580.013 265.103 579.425 264.599 578.935 264.207H581.945V263.381H577.717ZM584.227 270.227L586.565 266.727C586.859 266.223 587.139 265.719 587.391 265.215H587.447C587.419 265.747 587.377 266.573 587.377 267.077V270.227H584.227ZM587.377 274.077H588.581V271.249H589.939V270.227H588.581V263.801H587.167L582.897 270.409V271.249H587.377V274.077ZM593.743 262.429C593.043 264.543 591.923 266.643 590.677 268.001C590.859 268.253 591.139 268.827 591.223 269.051C591.699 268.519 592.147 267.889 592.581 267.203V275.155H593.575V265.411C594.009 264.543 594.387 263.619 594.695 262.695L593.743 262.429ZM600.463 271.445H598.097V269.275H600.463V271.445ZM601.835 266.951V266.153H599.679V264.571H598.825V266.153H596.725V266.951H598.825V268.491H597.299V272.215H601.289V268.491H599.679V266.951H601.835ZM596.151 273.377V264.123H602.311V273.377H596.151ZM595.185 263.213V275.127H596.151V274.301H602.311V275.015H603.305V263.213H595.185ZM608.205 269.793C608.317 268.967 608.359 268.169 608.359 267.441H614.757V269.793H608.205ZM614.757 264.123V266.447H608.359V264.123H614.757ZM615.835 263.101H607.309V267.385C607.309 269.611 607.085 272.453 604.859 274.413C605.069 274.567 605.489 274.945 605.629 275.169C606.987 273.979 607.687 272.397 608.037 270.815H614.757V273.615C614.757 273.923 614.645 274.021 614.323 274.035C614.001 274.035 612.881 274.049 611.719 274.007C611.887 274.301 612.083 274.791 612.153 275.085C613.651 275.085 614.575 275.071 615.107 274.889C615.625 274.721 615.835 274.357 615.835 273.629V263.101Z" fill="black"/>
<path d="M718.163 264.207L717.631 264.613C718.107 265.047 718.695 265.649 718.961 266.041L719.647 265.467C719.381 265.117 718.849 264.599 718.387 264.207H721.033V263.367H717.449C717.589 263.087 717.715 262.807 717.827 262.527L716.917 262.275C716.441 263.437 715.657 264.557 714.803 265.327C715.027 265.495 715.391 265.831 715.531 266.013C716.035 265.523 716.525 264.907 716.959 264.207H718.163ZM720.529 269.345V270.647H717.169C717.239 270.241 717.309 269.779 717.379 269.345H720.529ZM721.551 267.175H725.219V268.463H721.551V267.175ZM721.551 270.647V269.345H726.241V266.293H716.007V267.175H720.529V268.463H716.497C716.385 269.457 716.189 270.703 716.007 271.543H719.703C718.555 272.733 716.777 273.811 715.153 274.343C715.391 274.539 715.671 274.917 715.825 275.169C717.491 274.525 719.297 273.321 720.529 271.935V275.155H721.551V271.543H725.583C725.443 272.803 725.289 273.349 725.107 273.545C724.981 273.643 724.841 273.657 724.603 273.657C724.351 273.657 723.707 273.657 723.021 273.587C723.175 273.853 723.287 274.245 723.301 274.553C724.015 274.581 724.701 274.581 725.065 274.553C725.443 274.539 725.709 274.455 725.933 274.203C726.297 273.867 726.479 273.013 726.675 271.081C726.689 270.927 726.703 270.647 726.703 270.647H721.551ZM723.217 263.381C723.343 263.087 723.469 262.807 723.581 262.499L722.615 262.275C722.279 263.283 721.649 264.235 720.879 264.879C721.103 265.005 721.495 265.327 721.663 265.495C722.041 265.131 722.405 264.697 722.727 264.207H724.295L723.693 264.697C724.197 265.103 724.813 265.691 725.135 266.055L725.821 265.467C725.513 265.103 724.925 264.599 724.435 264.207H727.445V263.381H723.217ZM731.771 274.259C733.507 274.259 735.131 272.985 735.131 270.731C735.131 268.477 733.745 267.469 732.037 267.469C731.421 267.469 730.973 267.623 730.511 267.875L730.763 264.907H734.641V263.801H729.643L729.321 268.617L730.007 269.037C730.595 268.645 731.029 268.435 731.715 268.435C733.003 268.435 733.843 269.303 733.843 270.773C733.843 272.271 732.863 273.195 731.659 273.195C730.469 273.195 729.727 272.649 729.139 272.061L728.509 272.901C729.195 273.587 730.175 274.259 731.771 274.259ZM739.243 262.429C738.543 264.543 737.423 266.643 736.177 268.001C736.359 268.253 736.639 268.827 736.723 269.051C737.199 268.519 737.647 267.889 738.081 267.203V275.155H739.075V265.411C739.509 264.543 739.887 263.619 740.195 262.695L739.243 262.429ZM745.963 271.445H743.597V269.275H745.963V271.445ZM747.335 266.951V266.153H745.179V264.571H744.325V266.153H742.225V266.951H744.325V268.491H742.799V272.215H746.789V268.491H745.179V266.951H747.335ZM741.651 273.377V264.123H747.811V273.377H741.651ZM740.685 263.213V275.127H741.651V274.301H747.811V275.015H748.805V263.213H740.685ZM753.705 269.793C753.817 268.967 753.859 268.169 753.859 267.441H760.257V269.793H753.705ZM760.257 264.123V266.447H753.859V264.123H760.257ZM761.335 263.101H752.809V267.385C752.809 269.611 752.585 272.453 750.359 274.413C750.569 274.567 750.989 274.945 751.129 275.169C752.487 273.979 753.187 272.397 753.537 270.815H760.257V273.615C760.257 273.923 760.145 274.021 759.823 274.035C759.501 274.035 758.381 274.049 757.219 274.007C757.387 274.301 757.583 274.791 757.653 275.085C759.151 275.085 760.075 275.071 760.607 274.889C761.125 274.721 761.335 274.357 761.335 273.629V263.101Z" fill="black"/>
<path d="M866.163 264.207L865.631 264.613C866.107 265.047 866.695 265.649 866.961 266.041L867.647 265.467C867.381 265.117 866.849 264.599 866.387 264.207H869.033V263.367H865.449C865.589 263.087 865.715 262.807 865.827 262.527L864.917 262.275C864.441 263.437 863.657 264.557 862.803 265.327C863.027 265.495 863.391 265.831 863.531 266.013C864.035 265.523 864.525 264.907 864.959 264.207H866.163ZM868.529 269.345V270.647H865.169C865.239 270.241 865.309 269.779 865.379 269.345H868.529ZM869.551 267.175H873.219V268.463H869.551V267.175ZM869.551 270.647V269.345H874.241V266.293H864.007V267.175H868.529V268.463H864.497C864.385 269.457 864.189 270.703 864.007 271.543H867.703C866.555 272.733 864.777 273.811 863.153 274.343C863.391 274.539 863.671 274.917 863.825 275.169C865.491 274.525 867.297 273.321 868.529 271.935V275.155H869.551V271.543H873.583C873.443 272.803 873.289 273.349 873.107 273.545C872.981 273.643 872.841 273.657 872.603 273.657C872.351 273.657 871.707 273.657 871.021 273.587C871.175 273.853 871.287 274.245 871.301 274.553C872.015 274.581 872.701 274.581 873.065 274.553C873.443 274.539 873.709 274.455 873.933 274.203C874.297 273.867 874.479 273.013 874.675 271.081C874.689 270.927 874.703 270.647 874.703 270.647H869.551ZM871.217 263.381C871.343 263.087 871.469 262.807 871.581 262.499L870.615 262.275C870.279 263.283 869.649 264.235 868.879 264.879C869.103 265.005 869.495 265.327 869.663 265.495C870.041 265.131 870.405 264.697 870.727 264.207H872.295L871.693 264.697C872.197 265.103 872.813 265.691 873.135 266.055L873.821 265.467C873.513 265.103 872.925 264.599 872.435 264.207H875.445V263.381H871.217ZM880.219 268.659C881.465 268.659 882.081 269.541 882.081 270.927C882.081 272.327 881.311 273.265 880.331 273.265C879.043 273.265 878.273 272.103 878.119 269.975C878.749 269.037 879.575 268.659 880.219 268.659ZM880.331 274.259C881.927 274.259 883.271 272.915 883.271 270.927C883.271 268.785 882.165 267.707 880.429 267.707C879.617 267.707 878.721 268.183 878.091 268.953C878.147 265.761 879.337 264.683 880.737 264.683C881.367 264.683 881.983 264.977 882.389 265.467L883.089 264.669C882.529 264.067 881.759 263.619 880.695 263.619C878.707 263.619 876.901 265.159 876.901 269.177C876.901 272.565 878.357 274.259 880.331 274.259ZM887.243 262.429C886.543 264.543 885.423 266.643 884.177 268.001C884.359 268.253 884.639 268.827 884.723 269.051C885.199 268.519 885.647 267.889 886.081 267.203V275.155H887.075V265.411C887.509 264.543 887.887 263.619 888.195 262.695L887.243 262.429ZM893.963 271.445H891.597V269.275H893.963V271.445ZM895.335 266.951V266.153H893.179V264.571H892.325V266.153H890.225V266.951H892.325V268.491H890.799V272.215H894.789V268.491H893.179V266.951H895.335ZM889.651 273.377V264.123H895.811V273.377H889.651ZM888.685 263.213V275.127H889.651V274.301H895.811V275.015H896.805V263.213H888.685ZM901.705 269.793C901.817 268.967 901.859 268.169 901.859 267.441H908.257V269.793H901.705ZM908.257 264.123V266.447H901.859V264.123H908.257ZM909.335 263.101H900.809V267.385C900.809 269.611 900.585 272.453 898.359 274.413C898.569 274.567 898.989 274.945 899.129 275.169C900.487 273.979 901.187 272.397 901.537 270.815H908.257V273.615C908.257 273.923 908.145 274.021 907.823 274.035C907.501 274.035 906.381 274.049 905.219 274.007C905.387 274.301 905.583 274.791 905.653 275.085C907.151 275.085 908.075 275.071 908.607 274.889C909.125 274.721 909.335 274.357 909.335 273.629V263.101Z" fill="black"/>
<path d="M0.92041 16.0769V252.154H903.76" stroke="black"/>
<path d="M149.128 165V166.5C149.319 166.5 149.508 166.464 149.685 166.393L149.128 165ZM297.335 105.769L297.895 104.378C297.537 104.234 297.137 104.233 296.779 104.376L297.335 105.769ZM444.622 165L444.062 166.392C444.111 166.411 444.161 166.428 444.212 166.443L444.622 165ZM592.369 207L591.959 208.443C592.039 208.466 592.121 208.482 592.204 208.491L592.369 207ZM740.116 223.385L739.951 224.876C740.152 224.898 740.355 224.879 740.548 224.821L740.116 223.385ZM910.417 172.192L893.559 168.217L898.545 184.804L910.417 172.192ZM149.685 166.393L297.892 107.162L296.779 104.376L148.571 163.607L149.685 166.393ZM296.776 107.161L444.062 166.392L445.182 163.608L297.895 104.378L296.776 107.161ZM444.212 166.443L591.959 208.443L592.779 205.557L445.032 163.557L444.212 166.443ZM592.204 208.491L739.951 224.876L740.282 221.894L592.535 205.509L592.204 208.491ZM740.548 224.821L897.92 177.515L897.056 174.642L739.684 221.948L740.548 224.821ZM149.128 163.5H0V166.5H149.128V163.5Z" fill="#FF7A00"/>
<ellipse cx="149.588" cy="164.577" rx="4.14244" ry="3.80769" fill="#FF7A00"/>
<ellipse cx="296.875" cy="105.346" rx="4.14244" ry="3.80769" fill="#FF7A00"/>
<ellipse cx="445.082" cy="164.808" rx="4.14244" ry="3.80769" fill="#FF7A00"/>
<ellipse cx="592.369" cy="206.808" rx="4.14244" ry="3.80769" fill="#FF7A00"/>
<path d="M744.719 223.808C744.719 225.911 742.864 227.615 740.577 227.615C738.289 227.615 736.434 225.911 736.434 223.808C736.434 221.705 738.289 220 740.577 220C742.864 220 744.719 221.705 744.719 223.808Z" fill="#FF7A00"/>
<path d="M892.926 178.962C892.926 181.064 891.072 182.769 888.784 182.769C886.496 182.769 884.642 181.064 884.642 178.962C884.642 176.859 886.496 175.154 888.784 175.154C891.072 175.154 892.926 176.859 892.926 178.962Z" fill="#FF7A00"/>
<path d="M138.078 184.413C139.898 184.413 141.368 183.321 141.368 181.487C141.368 180.087 140.402 179.163 139.198 178.883V178.827C140.276 178.421 141.018 177.595 141.018 176.349C141.018 174.725 139.758 173.773 138.036 173.773C136.846 173.773 135.936 174.291 135.166 175.005L135.852 175.817C136.426 175.229 137.154 174.823 137.98 174.823C139.044 174.823 139.716 175.467 139.716 176.447C139.716 177.553 138.988 178.407 136.874 178.407V179.387C139.24 179.387 140.066 180.213 140.066 181.431C140.066 182.621 139.198 183.349 137.98 183.349C136.818 183.349 136.034 182.803 135.432 182.173L134.788 183.013C135.46 183.741 136.468 184.413 138.078 184.413ZM146.04 184.413C147.986 184.413 149.232 182.635 149.232 179.065C149.232 175.509 147.986 173.773 146.04 173.773C144.08 173.773 142.834 175.495 142.834 179.065C142.834 182.635 144.08 184.413 146.04 184.413ZM146.04 183.391C144.864 183.391 144.08 182.089 144.08 179.065C144.08 176.069 144.864 174.795 146.04 174.795C147.202 174.795 147.986 176.069 147.986 179.065C147.986 182.089 147.202 183.391 146.04 183.391ZM161.884 173.619H152.028V174.613H161.884V173.619ZM159.784 184.063C159.238 184.063 159.126 183.965 159.126 183.489V178.519H163.06V177.511H150.81V178.519H154.352C154.142 181.137 153.624 183.321 150.642 184.455C150.88 184.637 151.174 185.015 151.3 185.267C154.52 183.965 155.192 181.515 155.458 178.519H158.076V183.503C158.076 184.693 158.412 185.057 159.658 185.057H161.66C162.878 185.057 163.158 184.399 163.27 182.019C162.99 181.935 162.542 181.753 162.304 181.557C162.234 183.699 162.15 184.063 161.59 184.063H159.784Z" fill="black"/>
<path d="M282.972 131.105C284.708 131.105 286.332 129.831 286.332 127.577C286.332 125.323 284.946 124.315 283.238 124.315C282.622 124.315 282.174 124.469 281.712 124.721L281.964 121.753H285.842V120.647H280.844L280.522 125.463L281.208 125.883C281.796 125.491 282.23 125.281 282.916 125.281C284.204 125.281 285.044 126.149 285.044 127.619C285.044 129.117 284.064 130.041 282.86 130.041C281.67 130.041 280.928 129.495 280.34 128.907L279.71 129.747C280.396 130.433 281.376 131.105 282.972 131.105ZM290.976 131.105C292.922 131.105 294.168 129.327 294.168 125.757C294.168 122.201 292.922 120.465 290.976 120.465C289.016 120.465 287.77 122.187 287.77 125.757C287.77 129.327 289.016 131.105 290.976 131.105ZM290.976 130.083C289.8 130.083 289.016 128.781 289.016 125.757C289.016 122.761 289.8 121.487 290.976 121.487C292.138 121.487 292.922 122.761 292.922 125.757C292.922 128.781 292.138 130.083 290.976 130.083ZM306.819 120.311H296.963V121.305H306.819V120.311ZM304.719 130.755C304.173 130.755 304.061 130.657 304.061 130.181V125.211H307.995V124.203H295.745V125.211H299.287C299.077 127.829 298.559 130.013 295.577 131.147C295.815 131.329 296.109 131.707 296.235 131.959C299.455 130.657 300.127 128.207 300.393 125.211H303.011V130.195C303.011 131.385 303.347 131.749 304.593 131.749H306.595C307.813 131.749 308.093 131.091 308.205 128.711C307.925 128.627 307.477 128.445 307.239 128.249C307.169 130.391 307.085 130.755 306.525 130.755H304.719Z" fill="black"/>
<path d="M432.501 186.182C434.321 186.182 435.791 185.09 435.791 183.256C435.791 181.856 434.825 180.932 433.621 180.652V180.596C434.699 180.19 435.441 179.364 435.441 178.118C435.441 176.494 434.181 175.542 432.459 175.542C431.269 175.542 430.359 176.06 429.589 176.774L430.275 177.586C430.849 176.998 431.577 176.592 432.403 176.592C433.467 176.592 434.139 177.236 434.139 178.216C434.139 179.322 433.411 180.176 431.297 180.176V181.156C433.663 181.156 434.489 181.982 434.489 183.2C434.489 184.39 433.621 185.118 432.403 185.118C431.241 185.118 430.457 184.572 429.855 183.942L429.211 184.782C429.883 185.51 430.891 186.182 432.501 186.182ZM440.463 186.182C442.409 186.182 443.655 184.404 443.655 180.834C443.655 177.278 442.409 175.542 440.463 175.542C438.503 175.542 437.257 177.264 437.257 180.834C437.257 184.404 438.503 186.182 440.463 186.182ZM440.463 185.16C439.287 185.16 438.503 183.858 438.503 180.834C438.503 177.838 439.287 176.564 440.463 176.564C441.625 176.564 442.409 177.838 442.409 180.834C442.409 183.858 441.625 185.16 440.463 185.16ZM456.307 175.388H446.451V176.382H456.307V175.388ZM454.207 185.832C453.661 185.832 453.549 185.734 453.549 185.258V180.288H457.483V179.28H445.233V180.288H448.775C448.565 182.906 448.047 185.09 445.065 186.224C445.303 186.406 445.597 186.784 445.723 187.036C448.943 185.734 449.615 183.284 449.881 180.288H452.499V185.272C452.499 186.462 452.835 186.826 454.081 186.826H456.083C457.301 186.826 457.581 186.168 457.693 183.788C457.413 183.704 456.965 183.522 456.727 183.326C456.657 185.468 456.573 185.832 456.013 185.832H454.207Z" fill="black"/>
<path d="M578.003 229H583.631V227.936H581.573V218.724H580.593C580.033 219.06 579.375 219.298 578.465 219.466V220.278H580.285V227.936H578.003V229ZM588.19 229.182C589.926 229.182 591.55 227.908 591.55 225.654C591.55 223.4 590.164 222.392 588.456 222.392C587.84 222.392 587.392 222.546 586.93 222.798L587.182 219.83H591.06V218.724H586.062L585.74 223.54L586.426 223.96C587.014 223.568 587.448 223.358 588.134 223.358C589.422 223.358 590.262 224.226 590.262 225.696C590.262 227.194 589.282 228.118 588.078 228.118C586.888 228.118 586.146 227.572 585.558 226.984L584.928 227.824C585.614 228.51 586.594 229.182 588.19 229.182ZM604.272 218.388H594.416V219.382H604.272V218.388ZM602.172 228.832C601.626 228.832 601.514 228.734 601.514 228.258V223.288H605.448V222.28H593.198V223.288H596.74C596.53 225.906 596.012 228.09 593.03 229.224C593.268 229.406 593.562 229.784 593.688 230.036C596.908 228.734 597.58 226.284 597.846 223.288H600.464V228.272C600.464 229.462 600.8 229.826 602.046 229.826H604.048C605.266 229.826 605.546 229.168 605.658 226.788C605.378 226.704 604.93 226.522 604.692 226.326C604.622 228.468 604.538 228.832 603.978 228.832H602.172Z" fill="black"/>
<path d="M725.772 242.615H731.4V241.551H729.342V232.339H728.362C727.802 232.675 727.144 232.913 726.234 233.081V233.893H728.054V241.551H725.772V242.615ZM736.197 242.797C738.143 242.797 739.389 241.019 739.389 237.449C739.389 233.893 738.143 232.157 736.197 232.157C734.237 232.157 732.991 233.879 732.991 237.449C732.991 241.019 734.237 242.797 736.197 242.797ZM736.197 241.775C735.021 241.775 734.237 240.473 734.237 237.449C734.237 234.453 735.021 233.179 736.197 233.179C737.359 233.179 738.143 234.453 738.143 237.449C738.143 240.473 737.359 241.775 736.197 241.775ZM752.041 232.003H742.185V232.997H752.041V232.003ZM749.941 242.447C749.395 242.447 749.283 242.349 749.283 241.873V236.903H753.217V235.895H740.967V236.903H744.509C744.299 239.521 743.781 241.705 740.799 242.839C741.037 243.021 741.331 243.399 741.457 243.651C744.677 242.349 745.349 239.899 745.615 236.903H748.233V241.887C748.233 243.077 748.569 243.441 749.815 243.441H751.817C753.035 243.441 753.315 242.783 753.427 240.403C753.147 240.319 752.699 240.137 752.461 239.941C752.391 242.083 752.307 242.447 751.747 242.447H749.941Z" fill="black"/>
<path d="M874.174 199.462H880.628V198.356H877.786C877.268 198.356 876.638 198.412 876.106 198.454C878.514 196.172 880.124 194.086 880.124 192.042C880.124 190.208 878.976 189.004 877.142 189.004C875.84 189.004 874.958 189.606 874.118 190.516L874.86 191.244C875.42 190.572 876.148 190.054 876.988 190.054C878.262 190.054 878.878 190.908 878.878 192.084C878.878 193.848 877.394 195.892 874.174 198.706V199.462ZM884.978 199.644C886.714 199.644 888.338 198.37 888.338 196.116C888.338 193.862 886.952 192.854 885.244 192.854C884.628 192.854 884.18 193.008 883.718 193.26L883.97 190.292H887.848V189.186H882.85L882.528 194.002L883.214 194.422C883.802 194.03 884.236 193.82 884.922 193.82C886.21 193.82 887.05 194.688 887.05 196.158C887.05 197.656 886.07 198.58 884.866 198.58C883.676 198.58 882.934 198.034 882.346 197.446L881.716 198.286C882.402 198.972 883.382 199.644 884.978 199.644ZM901.059 188.85H891.203V189.844H901.059V188.85ZM898.959 199.294C898.413 199.294 898.301 199.196 898.301 198.72V193.75H902.235V192.742H889.985V193.75H893.527C893.317 196.368 892.799 198.552 889.817 199.686C890.055 199.868 890.349 200.246 890.475 200.498C893.695 199.196 894.367 196.746 894.633 193.75H897.251V198.734C897.251 199.924 897.587 200.288 898.833 200.288H900.835C902.053 200.288 902.333 199.63 902.445 197.25C902.165 197.166 901.717 196.984 901.479 196.788C901.409 198.93 901.325 199.294 900.765 199.294H898.959Z" fill="black"/>
<rect x="87" y="62" width="124" height="42.3469" fill="white"/>
<path d="M128.618 77.9872H131.714V79.8592H128.618V77.9872ZM124.46 77.9872H127.466V79.8592H124.46V77.9872ZM120.392 77.9872H123.308V79.8592H120.392V77.9872ZM119.168 76.9432V80.9032H132.992V76.9432H119.168ZM121.544 85.1152H130.598V86.4472H121.544V85.1152ZM121.544 87.3292H130.598V88.7152H121.544V87.3292ZM121.544 82.8832H130.598V84.2152H121.544V82.8832ZM120.23 81.9472V89.6512H131.966V81.9472H120.23ZM127.502 90.5692C129.536 91.1992 131.57 91.9912 132.74 92.5672L134.144 91.8472C132.776 91.2532 130.58 90.4612 128.546 89.8312L127.502 90.5692ZM123.308 89.8132C122.012 90.5332 119.834 91.1992 117.962 91.5772C118.268 91.8112 118.736 92.3332 118.952 92.5852C120.77 92.0992 123.038 91.2532 124.514 90.3712L123.308 89.8132ZM139.148 77.1952V78.5272H143.576C143.612 79.2112 143.684 80.0032 143.81 80.8312L143.018 80.7052C141.92 85.7452 139.706 89.3632 135.728 91.4332C136.088 91.6672 136.682 92.2252 136.934 92.4952C140.516 90.3892 142.784 87.1132 144.116 82.4512C144.926 85.8532 146.834 89.7952 151.262 92.4772C151.496 92.1532 152.036 91.5772 152.342 91.3612C145.286 87.1672 144.872 80.3812 144.872 77.1952H139.148ZM157.706 91.3972C159.938 91.3972 162.026 89.7592 162.026 86.8612C162.026 83.9632 160.244 82.6672 158.048 82.6672C157.256 82.6672 156.68 82.8652 156.086 83.1892L156.41 79.3732H161.396V77.9512H154.97L154.556 84.1432L155.438 84.6832C156.194 84.1792 156.752 83.9092 157.634 83.9092C159.29 83.9092 160.37 85.0252 160.37 86.9152C160.37 88.8412 159.11 90.0292 157.562 90.0292C156.032 90.0292 155.078 89.3272 154.322 88.5712L153.512 89.6512C154.394 90.5332 155.654 91.3972 157.706 91.3972ZM177.536 78.1312V80.1292H166.772V78.1312H177.536ZM178.868 81.2992V76.9612H165.458V82.2172C165.458 85.0432 165.296 89.0212 163.622 91.8292C163.964 91.9552 164.558 92.2972 164.81 92.5132C166.538 89.5792 166.772 85.2052 166.772 82.1992V81.2992H178.868ZM174.242 91.0372C173.252 91.0372 173.054 90.9112 173.054 90.2452V88.7692L179.606 87.7432L179.39 86.6452L173.054 87.6352V85.9792L178.346 85.1692L178.148 84.0892L173.054 84.8632V83.2792C174.566 82.9732 176.006 82.6132 177.14 82.2172L176.024 81.3532C174.152 82.0552 170.642 82.7032 167.636 83.0992C167.78 83.3512 167.96 83.7832 168.014 84.0712C169.22 83.9272 170.498 83.7292 171.74 83.5132V85.0432L167.546 85.6912L167.744 86.8072L171.74 86.1952V87.8332L166.952 88.5712L167.168 89.6872L171.74 88.9672V90.2452C171.74 91.8472 172.262 92.2612 174.134 92.2612H177.788C179.336 92.2612 179.75 91.6672 179.93 89.5792C179.552 89.4892 179.03 89.2912 178.724 89.0752C178.634 90.7132 178.49 91.0372 177.68 91.0372H174.242Z" fill="black"/>
<path d="M147.939 155.377C148.525 155.963 149.475 155.963 150.061 155.377L159.607 145.831C160.192 145.245 160.192 144.295 159.607 143.71C159.021 143.124 158.071 143.124 157.485 143.71L149 152.195L140.515 143.71C139.929 143.124 138.979 143.124 138.393 143.71C137.808 144.295 137.808 145.245 138.393 145.831L147.939 155.377ZM147.5 99.2653L147.5 154.316L150.5 154.316L150.5 99.2653L147.5 99.2653Z" fill="white"/>
<rect x="236" width="123" height="42.3469" fill="white"/>
<path d="M277.118 15.9872H280.214V17.8592H277.118V15.9872ZM272.96 15.9872H275.966V17.8592H272.96V15.9872ZM268.892 15.9872H271.808V17.8592H268.892V15.9872ZM267.668 14.9432V18.9032H281.492V14.9432H267.668ZM270.044 23.1152H279.098V24.4472H270.044V23.1152ZM270.044 25.3292H279.098V26.7152H270.044V25.3292ZM270.044 20.8832H279.098V22.2152H270.044V20.8832ZM268.73 19.9472V27.6512H280.466V19.9472H268.73ZM276.002 28.5692C278.036 29.1992 280.07 29.9912 281.24 30.5672L282.644 29.8472C281.276 29.2532 279.08 28.4612 277.046 27.8312L276.002 28.5692ZM271.808 27.8132C270.512 28.5332 268.334 29.1992 266.462 29.5772C266.768 29.8112 267.236 30.3332 267.452 30.5852C269.27 30.0992 271.538 29.2532 273.014 28.3712L271.808 27.8132ZM287.648 15.1952V16.5272H292.076C292.112 17.2112 292.184 18.0032 292.31 18.8312L291.518 18.7052C290.42 23.7452 288.206 27.3632 284.228 29.4332C284.588 29.6672 285.182 30.2252 285.434 30.4952C289.016 28.3892 291.284 25.1132 292.616 20.4512C293.426 23.8532 295.334 27.7952 299.762 30.4772C299.996 30.1532 300.536 29.5772 300.842 29.3612C293.786 25.1672 293.372 18.3812 293.372 15.1952H287.648ZM306.26 29.3972C308.6 29.3972 310.49 27.9932 310.49 25.6352C310.49 23.8352 309.248 22.6472 307.7 22.2872V22.2152C309.086 21.6932 310.04 20.6312 310.04 19.0292C310.04 16.9412 308.42 15.7172 306.206 15.7172C304.676 15.7172 303.506 16.3832 302.516 17.3012L303.398 18.3452C304.136 17.5892 305.072 17.0672 306.134 17.0672C307.502 17.0672 308.366 17.8952 308.366 19.1552C308.366 20.5772 307.43 21.6752 304.712 21.6752V22.9352C307.754 22.9352 308.816 23.9972 308.816 25.5632C308.816 27.0932 307.7 28.0292 306.134 28.0292C304.64 28.0292 303.632 27.3272 302.858 26.5172L302.03 27.5972C302.894 28.5332 304.19 29.3972 306.26 29.3972ZM326.036 16.1312V18.1292H315.272V16.1312H326.036ZM327.368 19.2992V14.9612H313.958V20.2172C313.958 23.0432 313.796 27.0212 312.122 29.8292C312.464 29.9552 313.058 30.2972 313.31 30.5132C315.038 27.5792 315.272 23.2052 315.272 20.1992V19.2992H327.368ZM322.742 29.0372C321.752 29.0372 321.554 28.9112 321.554 28.2452V26.7692L328.106 25.7432L327.89 24.6452L321.554 25.6352V23.9792L326.846 23.1692L326.648 22.0892L321.554 22.8632V21.2792C323.066 20.9732 324.506 20.6132 325.64 20.2172L324.524 19.3532C322.652 20.0552 319.142 20.7032 316.136 21.0992C316.28 21.3512 316.46 21.7832 316.514 22.0712C317.72 21.9272 318.998 21.7292 320.24 21.5132V23.0432L316.046 23.6912L316.244 24.8072L320.24 24.1952V25.8332L315.452 26.5712L315.668 27.6872L320.24 26.9672V28.2452C320.24 29.8472 320.762 30.2612 322.634 30.2612H326.288C327.836 30.2612 328.25 29.6672 328.43 27.5792C328.052 27.4892 327.53 27.2912 327.224 27.0752C327.134 28.7132 326.99 29.0372 326.18 29.0372H322.742Z" fill="black"/>
<path d="M296.439 93.3769C297.025 93.9627 297.975 93.9627 298.561 93.3769L308.107 83.831C308.692 83.2452 308.692 82.2955 308.107 81.7097C307.521 81.1239 306.571 81.1239 305.985 81.7097L297.5 90.195L289.015 81.7097C288.429 81.1239 287.479 81.1239 286.893 81.7097C286.308 82.2955 286.308 83.2452 286.893 83.831L296.439 93.3769ZM296 37.2653L296 92.3163L299 92.3163L299 37.2653L296 37.2653Z" fill="white"/>
<rect x="383" y="62" width="123" height="42.3469" fill="white"/>
<path d="M424.118 77.9872H427.214V79.8592H424.118V77.9872ZM419.96 77.9872H422.966V79.8592H419.96V77.9872ZM415.892 77.9872H418.808V79.8592H415.892V77.9872ZM414.668 76.9432V80.9032H428.492V76.9432H414.668ZM417.044 85.1152H426.098V86.4472H417.044V85.1152ZM417.044 87.3292H426.098V88.7152H417.044V87.3292ZM417.044 82.8832H426.098V84.2152H417.044V82.8832ZM415.73 81.9472V89.6512H427.466V81.9472H415.73ZM423.002 90.5692C425.036 91.1992 427.07 91.9912 428.24 92.5672L429.644 91.8472C428.276 91.2532 426.08 90.4612 424.046 89.8312L423.002 90.5692ZM418.808 89.8132C417.512 90.5332 415.334 91.1992 413.462 91.5772C413.768 91.8112 414.236 92.3332 414.452 92.5852C416.27 92.0992 418.538 91.2532 420.014 90.3712L418.808 89.8132ZM434.648 77.1952V78.5272H439.076C439.112 79.2112 439.184 80.0032 439.31 80.8312L438.518 80.7052C437.42 85.7452 435.206 89.3632 431.228 91.4332C431.588 91.6672 432.182 92.2252 432.434 92.4952C436.016 90.3892 438.284 87.1132 439.616 82.4512C440.426 85.8532 442.334 89.7952 446.762 92.4772C446.996 92.1532 447.536 91.5772 447.842 91.3612C440.786 87.1672 440.372 80.3812 440.372 77.1952H434.648ZM453.206 91.3972C455.438 91.3972 457.526 89.7592 457.526 86.8612C457.526 83.9632 455.744 82.6672 453.548 82.6672C452.756 82.6672 452.18 82.8652 451.586 83.1892L451.91 79.3732H456.896V77.9512H450.47L450.056 84.1432L450.938 84.6832C451.694 84.1792 452.252 83.9092 453.134 83.9092C454.79 83.9092 455.87 85.0252 455.87 86.9152C455.87 88.8412 454.61 90.0292 453.062 90.0292C451.532 90.0292 450.578 89.3272 449.822 88.5712L449.012 89.6512C449.894 90.5332 451.154 91.3972 453.206 91.3972ZM473.036 78.1312V80.1292H462.272V78.1312H473.036ZM474.368 81.2992V76.9612H460.958V82.2172C460.958 85.0432 460.796 89.0212 459.122 91.8292C459.464 91.9552 460.058 92.2972 460.31 92.5132C462.038 89.5792 462.272 85.2052 462.272 82.1992V81.2992H474.368ZM469.742 91.0372C468.752 91.0372 468.554 90.9112 468.554 90.2452V88.7692L475.106 87.7432L474.89 86.6452L468.554 87.6352V85.9792L473.846 85.1692L473.648 84.0892L468.554 84.8632V83.2792C470.066 82.9732 471.506 82.6132 472.64 82.2172L471.524 81.3532C469.652 82.0552 466.142 82.7032 463.136 83.0992C463.28 83.3512 463.46 83.7832 463.514 84.0712C464.72 83.9272 465.998 83.7292 467.24 83.5132V85.0432L463.046 85.6912L463.244 86.8072L467.24 86.1952V87.8332L462.452 88.5712L462.668 89.6872L467.24 88.9672V90.2452C467.24 91.8472 467.762 92.2612 469.634 92.2612H473.288C474.836 92.2612 475.25 91.6672 475.43 89.5792C475.052 89.4892 474.53 89.2912 474.224 89.0752C474.134 90.7132 473.99 91.0372 473.18 91.0372H469.742Z" fill="black"/>
<path d="M443.439 155.377C444.025 155.963 444.975 155.963 445.561 155.377L455.107 145.831C455.692 145.245 455.692 144.295 455.107 143.71C454.521 143.124 453.571 143.124 452.985 143.71L444.5 152.195L436.015 143.71C435.429 143.124 434.479 143.124 433.893 143.71C433.308 144.295 433.308 145.245 433.893 145.831L443.439 155.377ZM443 99.2653L443 154.316L446 154.316L446 99.2653L443 99.2653Z" fill="white"/>
<rect x="530" y="102" width="124" height="42.3469" fill="white"/>
<path d="M566.626 117.987H569.722V119.859H566.626V117.987ZM562.468 117.987H565.474V119.859H562.468V117.987ZM558.4 117.987H561.316V119.859H558.4V117.987ZM557.176 116.943V120.903H571V116.943H557.176ZM559.552 125.115H568.606V126.447H559.552V125.115ZM559.552 127.329H568.606V128.715H559.552V127.329ZM559.552 122.883H568.606V124.215H559.552V122.883ZM558.238 121.947V129.651H569.974V121.947H558.238ZM565.51 130.569C567.544 131.199 569.578 131.991 570.748 132.567L572.152 131.847C570.784 131.253 568.588 130.461 566.554 129.831L565.51 130.569ZM561.316 129.813C560.02 130.533 557.842 131.199 555.97 131.577C556.276 131.811 556.744 132.333 556.96 132.585C558.778 132.099 561.046 131.253 562.522 130.371L561.316 129.813ZM577.156 117.195V118.527H581.584C581.62 119.211 581.692 120.003 581.818 120.831L581.026 120.705C579.928 125.745 577.714 129.363 573.736 131.433C574.096 131.667 574.69 132.225 574.942 132.495C578.524 130.389 580.792 127.113 582.124 122.451C582.934 125.853 584.842 129.795 589.27 132.477C589.504 132.153 590.044 131.577 590.35 131.361C583.294 127.167 582.88 120.381 582.88 117.195H577.156ZM592.6 131.163H599.836V129.795H597.19V117.951H595.93C595.21 118.383 594.364 118.689 593.194 118.905V119.949H595.534V129.795H592.6V131.163ZM606.004 131.397C608.506 131.397 610.108 129.111 610.108 124.521C610.108 119.949 608.506 117.717 606.004 117.717C603.484 117.717 601.882 119.931 601.882 124.521C601.882 129.111 603.484 131.397 606.004 131.397ZM606.004 130.083C604.492 130.083 603.484 128.409 603.484 124.521C603.484 120.669 604.492 119.031 606.004 119.031C607.498 119.031 608.506 120.669 608.506 124.521C608.506 128.409 607.498 130.083 606.004 130.083ZM625.528 118.131V120.129H614.764V118.131H625.528ZM626.86 121.299V116.961H613.45V122.217C613.45 125.043 613.288 129.021 611.614 131.829C611.956 131.955 612.55 132.297 612.802 132.513C614.53 129.579 614.764 125.205 614.764 122.199V121.299H626.86ZM622.234 131.037C621.244 131.037 621.046 130.911 621.046 130.245V128.769L627.598 127.743L627.382 126.645L621.046 127.635V125.979L626.338 125.169L626.14 124.089L621.046 124.863V123.279C622.558 122.973 623.998 122.613 625.132 122.217L624.016 121.353C622.144 122.055 618.634 122.703 615.628 123.099C615.772 123.351 615.952 123.783 616.006 124.071C617.212 123.927 618.49 123.729 619.732 123.513V125.043L615.538 125.691L615.736 126.807L619.732 126.195V127.833L614.944 128.571L615.16 129.687L619.732 128.967V130.245C619.732 131.847 620.254 132.261 622.126 132.261H625.78C627.328 132.261 627.742 131.667 627.922 129.579C627.544 129.489 627.022 129.291 626.716 129.075C626.626 130.713 626.482 131.037 625.672 131.037H622.234Z" fill="black"/>
<path d="M590.939 195.377C591.525 195.963 592.475 195.963 593.061 195.377L602.607 185.831C603.192 185.245 603.192 184.295 602.607 183.71C602.021 183.124 601.071 183.124 600.485 183.71L592 192.195L583.515 183.71C582.929 183.124 581.979 183.124 581.393 183.71C580.808 184.295 580.808 185.245 581.393 185.831L590.939 195.377ZM590.5 139.265L590.5 194.316L593.5 194.316L593.5 139.265L590.5 139.265Z" fill="white"/>
<rect x="679" y="118" width="124" height="42.3469" fill="white"/>
<path d="M715.626 133.987H718.722V135.859H715.626V133.987ZM711.468 133.987H714.474V135.859H711.468V133.987ZM707.4 133.987H710.316V135.859H707.4V133.987ZM706.176 132.943V136.903H720V132.943H706.176ZM708.552 141.115H717.606V142.447H708.552V141.115ZM708.552 143.329H717.606V144.715H708.552V143.329ZM708.552 138.883H717.606V140.215H708.552V138.883ZM707.238 137.947V145.651H718.974V137.947H707.238ZM714.51 146.569C716.544 147.199 718.578 147.991 719.748 148.567L721.152 147.847C719.784 147.253 717.588 146.461 715.554 145.831L714.51 146.569ZM710.316 145.813C709.02 146.533 706.842 147.199 704.97 147.577C705.276 147.811 705.744 148.333 705.96 148.585C707.778 148.099 710.046 147.253 711.522 146.371L710.316 145.813ZM726.156 133.195V134.527H730.584C730.62 135.211 730.692 136.003 730.818 136.831L730.026 136.705C728.928 141.745 726.714 145.363 722.736 147.433C723.096 147.667 723.69 148.225 723.942 148.495C727.524 146.389 729.792 143.113 731.124 138.451C731.934 141.853 733.842 145.795 738.27 148.477C738.504 148.153 739.044 147.577 739.35 147.361C732.294 143.167 731.88 136.381 731.88 133.195H726.156ZM741.6 147.163H748.836V145.795H746.19V133.951H744.93C744.21 134.383 743.364 134.689 742.194 134.905V135.949H744.534V145.795H741.6V147.163ZM754.698 147.397C756.93 147.397 759.018 145.759 759.018 142.861C759.018 139.963 757.236 138.667 755.04 138.667C754.248 138.667 753.672 138.865 753.078 139.189L753.402 135.373H758.388V133.951H751.962L751.548 140.143L752.43 140.683C753.186 140.179 753.744 139.909 754.626 139.909C756.282 139.909 757.362 141.025 757.362 142.915C757.362 144.841 756.102 146.029 754.554 146.029C753.024 146.029 752.07 145.327 751.314 144.571L750.504 145.651C751.386 146.533 752.646 147.397 754.698 147.397ZM774.528 134.131V136.129H763.764V134.131H774.528ZM775.86 137.299V132.961H762.45V138.217C762.45 141.043 762.288 145.021 760.614 147.829C760.956 147.955 761.55 148.297 761.802 148.513C763.53 145.579 763.764 141.205 763.764 138.199V137.299H775.86ZM771.234 147.037C770.244 147.037 770.046 146.911 770.046 146.245V144.769L776.598 143.743L776.382 142.645L770.046 143.635V141.979L775.338 141.169L775.14 140.089L770.046 140.863V139.279C771.558 138.973 772.998 138.613 774.132 138.217L773.016 137.353C771.144 138.055 767.634 138.703 764.628 139.099C764.772 139.351 764.952 139.783 765.006 140.071C766.212 139.927 767.49 139.729 768.732 139.513V141.043L764.538 141.691L764.736 142.807L768.732 142.195V143.833L763.944 144.571L764.16 145.687L768.732 144.967V146.245C768.732 147.847 769.254 148.261 771.126 148.261H774.78C776.328 148.261 776.742 147.667 776.922 145.579C776.544 145.489 776.022 145.291 775.716 145.075C775.626 146.713 775.482 147.037 774.672 147.037H771.234Z" fill="black"/>
<path d="M739.939 211.377C740.525 211.963 741.475 211.963 742.061 211.377L751.607 201.831C752.192 201.245 752.192 200.295 751.607 199.71C751.021 199.124 750.071 199.124 749.485 199.71L741 208.195L732.515 199.71C731.929 199.124 730.979 199.124 730.393 199.71C729.808 200.295 729.808 201.245 730.393 201.831L739.939 211.377ZM739.5 155.265L739.5 210.316L742.5 210.316L742.5 155.265L739.5 155.265Z" fill="white"/>
<rect x="827" y="72" width="123" height="42.3469" fill="white"/>
<path d="M868.118 87.9872H871.214V89.8592H868.118V87.9872ZM863.96 87.9872H866.966V89.8592H863.96V87.9872ZM859.892 87.9872H862.808V89.8592H859.892V87.9872ZM858.668 86.9432V90.9032H872.492V86.9432H858.668ZM861.044 95.1152H870.098V96.4472H861.044V95.1152ZM861.044 97.3292H870.098V98.7152H861.044V97.3292ZM861.044 92.8832H870.098V94.2152H861.044V92.8832ZM859.73 91.9472V99.6512H871.466V91.9472H859.73ZM867.002 100.569C869.036 101.199 871.07 101.991 872.24 102.567L873.644 101.847C872.276 101.253 870.08 100.461 868.046 99.8312L867.002 100.569ZM862.808 99.8132C861.512 100.533 859.334 101.199 857.462 101.577C857.768 101.811 858.236 102.333 858.452 102.585C860.27 102.099 862.538 101.253 864.014 100.371L862.808 99.8132ZM878.648 87.1952V88.5272H883.076C883.112 89.2112 883.184 90.0032 883.31 90.8312L882.518 90.7052C881.42 95.7452 879.206 99.3632 875.228 101.433C875.588 101.667 876.182 102.225 876.434 102.495C880.016 100.389 882.284 97.1132 883.616 92.4512C884.426 95.8532 886.334 99.7952 890.762 102.477C890.996 102.153 891.536 101.577 891.842 101.361C884.786 97.1672 884.372 90.3812 884.372 87.1952H878.648ZM897.782 94.1972C899.384 94.1972 900.176 95.3312 900.176 97.1132C900.176 98.9132 899.186 100.119 897.926 100.119C896.27 100.119 895.28 98.6252 895.082 95.8892C895.892 94.6832 896.954 94.1972 897.782 94.1972ZM897.926 101.397C899.978 101.397 901.706 99.6692 901.706 97.1132C901.706 94.3592 900.284 92.9732 898.052 92.9732C897.008 92.9732 895.856 93.5852 895.046 94.5752C895.118 90.4712 896.648 89.0852 898.448 89.0852C899.258 89.0852 900.05 89.4632 900.572 90.0932L901.472 89.0672C900.752 88.2932 899.762 87.7172 898.394 87.7172C895.838 87.7172 893.516 89.6972 893.516 94.8632C893.516 99.2192 895.388 101.397 897.926 101.397ZM917.036 88.1312V90.1292H906.272V88.1312H917.036ZM918.368 91.2992V86.9612H904.958V92.2172C904.958 95.0432 904.796 99.0212 903.122 101.829C903.464 101.955 904.058 102.297 904.31 102.513C906.038 99.5792 906.272 95.2052 906.272 92.1992V91.2992H918.368ZM913.742 101.037C912.752 101.037 912.554 100.911 912.554 100.245V98.7692L919.106 97.7432L918.89 96.6452L912.554 97.6352V95.9792L917.846 95.1692L917.648 94.0892L912.554 94.8632V93.2792C914.066 92.9732 915.506 92.6132 916.64 92.2172L915.524 91.3532C913.652 92.0552 910.142 92.7032 907.136 93.0992C907.28 93.3512 907.46 93.7832 907.514 94.0712C908.72 93.9272 909.998 93.7292 911.24 93.5132V95.0432L907.046 95.6912L907.244 96.8072L911.24 96.1952V97.8332L906.452 98.5712L906.668 99.6872L911.24 98.9672V100.245C911.24 101.847 911.762 102.261 913.634 102.261H917.288C918.836 102.261 919.25 101.667 919.43 99.5792C919.052 99.4892 918.53 99.2912 918.224 99.0752C918.134 100.713 917.99 101.037 917.18 101.037H913.742Z" fill="black"/>
<path d="M887.439 165.377C888.025 165.963 888.975 165.963 889.561 165.377L899.107 155.831C899.692 155.245 899.692 154.295 899.107 153.71C898.521 153.124 897.571 153.124 896.985 153.71L888.5 162.195L880.015 153.71C879.429 153.124 878.479 153.124 877.893 153.71C877.308 154.295 877.308 155.245 877.893 155.831L887.439 165.377ZM887 109.265L887 164.316L890 164.316L890 109.265L887 109.265Z" fill="white"/>
</svg>
