<svg width="289" height="254" viewBox="0 0 289 254" fill="none" xmlns="http://www.w3.org/2000/svg">
<path d="M1 8.72961V229.217H263.725" stroke="black"/>
<path d="M1 201.596H259.501" stroke="black" stroke-opacity="0.1"/>
<path d="M1 91.593H259.501" stroke="black" stroke-opacity="0.1"/>
<path d="M1 229.217H259.501" stroke="black" stroke-opacity="0.1"/>
<path d="M1 173.975H259.501" stroke="black" stroke-opacity="0.1"/>
<path d="M1 63.9719H259.501" stroke="black" stroke-opacity="0.1"/>
<path d="M1 146.354H259.501" stroke="black" stroke-opacity="0.1"/>
<path d="M1 36.3507H259.501" stroke="black" stroke-opacity="0.1"/>
<path d="M1 118.732H259.501" stroke="black" stroke-opacity="0.1"/>
<path d="M1 8.72961H259.501" stroke="black" stroke-opacity="0.1"/>
<path d="M1 8.72961V229.217" stroke="black" stroke-opacity="0.1"/>
<path d="M44.1279 8.72961V229.217" stroke="black" stroke-opacity="0.1"/>
<path d="M86.9883 8.72961V229.217" stroke="black" stroke-opacity="0.1"/>
<path d="M130.116 8.72961V229.217" stroke="black" stroke-opacity="0.1"/>
<path d="M173.244 8.72961V229.217" stroke="black" stroke-opacity="0.1"/>
<path d="M216.372 8.72961V229.217" stroke="black" stroke-opacity="0.1"/>
<path d="M259.232 8.72961V229.217" stroke="black" stroke-opacity="0.1"/>
<path d="M31.1049 238.655L30.7629 238.916C31.0689 239.195 31.4469 239.582 31.6179 239.834L32.0589 239.465C31.8879 239.24 31.5459 238.907 31.2489 238.655H32.9499V238.115H30.6459C30.7359 237.935 30.8169 237.755 30.8889 237.575L30.3039 237.413C29.9979 238.16 29.4939 238.88 28.9449 239.375C29.0889 239.483 29.3229 239.699 29.4129 239.816C29.7369 239.501 30.0519 239.105 30.3309 238.655H31.1049ZM32.6259 241.958V242.795H30.4659C30.5109 242.534 30.5559 242.237 30.6009 241.958H32.6259ZM33.2829 240.563H35.6409V241.391H33.2829V240.563ZM33.2829 242.795V241.958H36.2979V239.996H29.7189V240.563H32.6259V241.391H30.0339C29.9619 242.03 29.8359 242.831 29.7189 243.371H32.0949C31.3569 244.136 30.2139 244.829 29.1699 245.171C29.3229 245.297 29.5029 245.54 29.6019 245.702C30.6729 245.288 31.8339 244.514 32.6259 243.623V245.693H33.2829V243.371H35.8749C35.7849 244.181 35.6859 244.532 35.5689 244.658C35.4879 244.721 35.3979 244.73 35.2449 244.73C35.0829 244.73 34.6689 244.73 34.2279 244.685C34.3269 244.856 34.3989 245.108 34.4079 245.306C34.8669 245.324 35.3079 245.324 35.5419 245.306C35.7849 245.297 35.9559 245.243 36.0999 245.081C36.3339 244.865 36.4509 244.316 36.5769 243.074C36.5859 242.975 36.5949 242.795 36.5949 242.795H33.2829ZM34.3539 238.124C34.4349 237.935 34.5159 237.755 34.5879 237.557L33.9669 237.413C33.7509 238.061 33.3459 238.673 32.8509 239.087C32.9949 239.168 33.2469 239.375 33.3549 239.483C33.5979 239.249 33.8319 238.97 34.0389 238.655H35.0469L34.6599 238.97C34.9839 239.231 35.3799 239.609 35.5869 239.843L36.0279 239.465C35.8299 239.231 35.4519 238.907 35.1369 238.655H37.0719V238.124H34.3539ZM38.2959 245H41.9139V244.316H40.5909V238.394H39.9609C39.6009 238.61 39.1779 238.763 38.5929 238.871V239.393H39.7629V244.316H38.2959V245ZM44.6561 237.512C44.2061 238.871 43.4861 240.221 42.6851 241.094C42.8021 241.256 42.9821 241.625 43.0361 241.769C43.3421 241.427 43.6301 241.022 43.9091 240.581V245.693H44.5481V239.429C44.8271 238.871 45.0701 238.277 45.2681 237.683L44.6561 237.512ZM48.9761 243.308H47.4551V241.913H48.9761V243.308ZM49.8581 240.419V239.906H48.4721V238.889H47.9231V239.906H46.5731V240.419H47.9231V241.409H46.9421V243.803H49.5071V241.409H48.4721V240.419H49.8581ZM46.2041 244.55V238.601H50.1641V244.55H46.2041ZM45.5831 238.016V245.675H46.2041V245.144H50.1641V245.603H50.8031V238.016H45.5831ZM53.9531 242.246C54.0251 241.715 54.0521 241.202 54.0521 240.734H58.1651V242.246H53.9531ZM58.1651 238.601V240.095H54.0521V238.601H58.1651ZM58.8581 237.944H53.3771V240.698C53.3771 242.129 53.2331 243.956 51.8021 245.216C51.9371 245.315 52.2071 245.558 52.2971 245.702C53.1701 244.937 53.6201 243.92 53.8451 242.903H58.1651V244.703C58.1651 244.901 58.0931 244.964 57.8861 244.973C57.6791 244.973 56.9591 244.982 56.2121 244.955C56.3201 245.144 56.4461 245.459 56.4911 245.648C57.4541 245.648 58.0481 245.639 58.3901 245.522C58.7231 245.414 58.8581 245.18 58.8581 244.712V237.944Z" fill="black"/>
<path d="M73.6049 238.655L73.2629 238.916C73.5689 239.195 73.9469 239.582 74.1179 239.834L74.5589 239.465C74.3879 239.24 74.0459 238.907 73.7489 238.655H75.4499V238.115H73.1459C73.2359 237.935 73.3169 237.755 73.3889 237.575L72.8039 237.413C72.4979 238.16 71.9939 238.88 71.4449 239.375C71.5889 239.483 71.8229 239.699 71.9129 239.816C72.2369 239.501 72.5519 239.105 72.8309 238.655H73.6049ZM75.1259 241.958V242.795H72.9659C73.0109 242.534 73.0559 242.237 73.1009 241.958H75.1259ZM75.7829 240.563H78.1409V241.391H75.7829V240.563ZM75.7829 242.795V241.958H78.7979V239.996H72.2189V240.563H75.1259V241.391H72.5339C72.4619 242.03 72.3359 242.831 72.2189 243.371H74.5949C73.8569 244.136 72.7139 244.829 71.6699 245.171C71.8229 245.297 72.0029 245.54 72.1019 245.702C73.1729 245.288 74.3339 244.514 75.1259 243.623V245.693H75.7829V243.371H78.3749C78.2849 244.181 78.1859 244.532 78.0689 244.658C77.9879 244.721 77.8979 244.73 77.7449 244.73C77.5829 244.73 77.1689 244.73 76.7279 244.685C76.8269 244.856 76.8989 245.108 76.9079 245.306C77.3669 245.324 77.8079 245.324 78.0419 245.306C78.2849 245.297 78.4559 245.243 78.5999 245.081C78.8339 244.865 78.9509 244.316 79.0769 243.074C79.0859 242.975 79.0949 242.795 79.0949 242.795H75.7829ZM76.8539 238.124C76.9349 237.935 77.0159 237.755 77.0879 237.557L76.4669 237.413C76.2509 238.061 75.8459 238.673 75.3509 239.087C75.4949 239.168 75.7469 239.375 75.8549 239.483C76.0979 239.249 76.3319 238.97 76.5389 238.655H77.5469L77.1599 238.97C77.4839 239.231 77.8799 239.609 78.0869 239.843L78.5279 239.465C78.3299 239.231 77.9519 238.907 77.6369 238.655H79.5719V238.124H76.8539ZM80.3999 245H84.5489V244.289H82.7219C82.3889 244.289 81.9839 244.325 81.6419 244.352C83.1899 242.885 84.2249 241.544 84.2249 240.23C84.2249 239.051 83.4869 238.277 82.3079 238.277C81.4709 238.277 80.9039 238.664 80.3639 239.249L80.8409 239.717C81.2009 239.285 81.6689 238.952 82.2089 238.952C83.0279 238.952 83.4239 239.501 83.4239 240.257C83.4239 241.391 82.4699 242.705 80.3999 244.514V245ZM87.1561 237.512C86.7061 238.871 85.9861 240.221 85.1851 241.094C85.3021 241.256 85.4821 241.625 85.5361 241.769C85.8421 241.427 86.1301 241.022 86.4091 240.581V245.693H87.0481V239.429C87.3271 238.871 87.5701 238.277 87.7681 237.683L87.1561 237.512ZM91.4761 243.308H89.9551V241.913H91.4761V243.308ZM92.3581 240.419V239.906H90.9721V238.889H90.4231V239.906H89.0731V240.419H90.4231V241.409H89.4421V243.803H92.0071V241.409H90.9721V240.419H92.3581ZM88.7041 244.55V238.601H92.6641V244.55H88.7041ZM88.0831 238.016V245.675H88.7041V245.144H92.6641V245.603H93.3031V238.016H88.0831ZM96.4531 242.246C96.5251 241.715 96.5521 241.202 96.5521 240.734H100.665V242.246H96.4531ZM100.665 238.601V240.095H96.5521V238.601H100.665ZM101.358 237.944H95.8771V240.698C95.8771 242.129 95.7331 243.956 94.3021 245.216C94.4371 245.315 94.7071 245.558 94.7971 245.702C95.6701 244.937 96.1201 243.92 96.3451 242.903H100.665V244.703C100.665 244.901 100.593 244.964 100.386 244.973C100.179 244.973 99.4591 244.982 98.7121 244.955C98.8201 245.144 98.9461 245.459 98.9911 245.648C99.9541 245.648 100.548 245.639 100.89 245.522C101.223 245.414 101.358 245.18 101.358 244.712V237.944Z" fill="black"/>
<path d="M116.105 238.655L115.763 238.916C116.069 239.195 116.447 239.582 116.618 239.834L117.059 239.465C116.888 239.24 116.546 238.907 116.249 238.655H117.95V238.115H115.646C115.736 237.935 115.817 237.755 115.889 237.575L115.304 237.413C114.998 238.16 114.494 238.88 113.945 239.375C114.089 239.483 114.323 239.699 114.413 239.816C114.737 239.501 115.052 239.105 115.331 238.655H116.105ZM117.626 241.958V242.795H115.466C115.511 242.534 115.556 242.237 115.601 241.958H117.626ZM118.283 240.563H120.641V241.391H118.283V240.563ZM118.283 242.795V241.958H121.298V239.996H114.719V240.563H117.626V241.391H115.034C114.962 242.03 114.836 242.831 114.719 243.371H117.095C116.357 244.136 115.214 244.829 114.17 245.171C114.323 245.297 114.503 245.54 114.602 245.702C115.673 245.288 116.834 244.514 117.626 243.623V245.693H118.283V243.371H120.875C120.785 244.181 120.686 244.532 120.569 244.658C120.488 244.721 120.398 244.73 120.245 244.73C120.083 244.73 119.669 244.73 119.228 244.685C119.327 244.856 119.399 245.108 119.408 245.306C119.867 245.324 120.308 245.324 120.542 245.306C120.785 245.297 120.956 245.243 121.1 245.081C121.334 244.865 121.451 244.316 121.577 243.074C121.586 242.975 121.595 242.795 121.595 242.795H118.283ZM119.354 238.124C119.435 237.935 119.516 237.755 119.588 237.557L118.967 237.413C118.751 238.061 118.346 238.673 117.851 239.087C117.995 239.168 118.247 239.375 118.355 239.483C118.598 239.249 118.832 238.97 119.039 238.655H120.047L119.66 238.97C119.984 239.231 120.38 239.609 120.587 239.843L121.028 239.465C120.83 239.231 120.452 238.907 120.137 238.655H122.072V238.124H119.354ZM124.88 245.117C126.05 245.117 126.995 244.415 126.995 243.236C126.995 242.336 126.374 241.742 125.6 241.562V241.526C126.293 241.265 126.77 240.734 126.77 239.933C126.77 238.889 125.96 238.277 124.853 238.277C124.088 238.277 123.503 238.61 123.008 239.069L123.449 239.591C123.818 239.213 124.286 238.952 124.817 238.952C125.501 238.952 125.933 239.366 125.933 239.996C125.933 240.707 125.465 241.256 124.106 241.256V241.886C125.627 241.886 126.158 242.417 126.158 243.2C126.158 243.965 125.6 244.433 124.817 244.433C124.07 244.433 123.566 244.082 123.179 243.677L122.765 244.217C123.197 244.685 123.845 245.117 124.88 245.117ZM129.656 237.512C129.206 238.871 128.486 240.221 127.685 241.094C127.802 241.256 127.982 241.625 128.036 241.769C128.342 241.427 128.63 241.022 128.909 240.581V245.693H129.548V239.429C129.827 238.871 130.07 238.277 130.268 237.683L129.656 237.512ZM133.976 243.308H132.455V241.913H133.976V243.308ZM134.858 240.419V239.906H133.472V238.889H132.923V239.906H131.573V240.419H132.923V241.409H131.942V243.803H134.507V241.409H133.472V240.419H134.858ZM131.204 244.55V238.601H135.164V244.55H131.204ZM130.583 238.016V245.675H131.204V245.144H135.164V245.603H135.803V238.016H130.583ZM138.953 242.246C139.025 241.715 139.052 241.202 139.052 240.734H143.165V242.246H138.953ZM143.165 238.601V240.095H139.052V238.601H143.165ZM143.858 237.944H138.377V240.698C138.377 242.129 138.233 243.956 136.802 245.216C136.937 245.315 137.207 245.558 137.297 245.702C138.17 244.937 138.62 243.92 138.845 242.903H143.165V244.703C143.165 244.901 143.093 244.964 142.886 244.973C142.679 244.973 141.959 244.982 141.212 244.955C141.32 245.144 141.446 245.459 141.491 245.648C142.454 245.648 143.048 245.639 143.39 245.522C143.723 245.414 143.858 245.18 143.858 244.712V237.944Z" fill="black"/>
<path d="M158.605 238.655L158.263 238.916C158.569 239.195 158.947 239.582 159.118 239.834L159.559 239.465C159.388 239.24 159.046 238.907 158.749 238.655H160.45V238.115H158.146C158.236 237.935 158.317 237.755 158.389 237.575L157.804 237.413C157.498 238.16 156.994 238.88 156.445 239.375C156.589 239.483 156.823 239.699 156.913 239.816C157.237 239.501 157.552 239.105 157.831 238.655H158.605ZM160.126 241.958V242.795H157.966C158.011 242.534 158.056 242.237 158.101 241.958H160.126ZM160.783 240.563H163.141V241.391H160.783V240.563ZM160.783 242.795V241.958H163.798V239.996H157.219V240.563H160.126V241.391H157.534C157.462 242.03 157.336 242.831 157.219 243.371H159.595C158.857 244.136 157.714 244.829 156.67 245.171C156.823 245.297 157.003 245.54 157.102 245.702C158.173 245.288 159.334 244.514 160.126 243.623V245.693H160.783V243.371H163.375C163.285 244.181 163.186 244.532 163.069 244.658C162.988 244.721 162.898 244.73 162.745 244.73C162.583 244.73 162.169 244.73 161.728 244.685C161.827 244.856 161.899 245.108 161.908 245.306C162.367 245.324 162.808 245.324 163.042 245.306C163.285 245.297 163.456 245.243 163.6 245.081C163.834 244.865 163.951 244.316 164.077 243.074C164.086 242.975 164.095 242.795 164.095 242.795H160.783ZM161.854 238.124C161.935 237.935 162.016 237.755 162.088 237.557L161.467 237.413C161.251 238.061 160.846 238.673 160.351 239.087C160.495 239.168 160.747 239.375 160.855 239.483C161.098 239.249 161.332 238.97 161.539 238.655H162.547L162.16 238.97C162.484 239.231 162.88 239.609 163.087 239.843L163.528 239.465C163.33 239.231 162.952 238.907 162.637 238.655H164.572V238.124H161.854ZM166.039 242.525L167.542 240.275C167.731 239.951 167.911 239.627 168.073 239.303H168.109C168.091 239.645 168.064 240.176 168.064 240.5V242.525H166.039ZM168.064 245H168.838V243.182H169.711V242.525H168.838V238.394H167.929L165.184 242.642V243.182H168.064V245ZM172.156 237.512C171.706 238.871 170.986 240.221 170.185 241.094C170.302 241.256 170.482 241.625 170.536 241.769C170.842 241.427 171.13 241.022 171.409 240.581V245.693H172.048V239.429C172.327 238.871 172.57 238.277 172.768 237.683L172.156 237.512ZM176.476 243.308H174.955V241.913H176.476V243.308ZM177.358 240.419V239.906H175.972V238.889H175.423V239.906H174.073V240.419H175.423V241.409H174.442V243.803H177.007V241.409H175.972V240.419H177.358ZM173.704 244.55V238.601H177.664V244.55H173.704ZM173.083 238.016V245.675H173.704V245.144H177.664V245.603H178.303V238.016H173.083ZM181.453 242.246C181.525 241.715 181.552 241.202 181.552 240.734H185.665V242.246H181.453ZM185.665 238.601V240.095H181.552V238.601H185.665ZM186.358 237.944H180.877V240.698C180.877 242.129 180.733 243.956 179.302 245.216C179.437 245.315 179.707 245.558 179.797 245.702C180.67 244.937 181.12 243.92 181.345 242.903H185.665V244.703C185.665 244.901 185.593 244.964 185.386 244.973C185.179 244.973 184.459 244.982 183.712 244.955C183.82 245.144 183.946 245.459 183.991 245.648C184.954 245.648 185.548 245.639 185.89 245.522C186.223 245.414 186.358 245.18 186.358 244.712V237.944Z" fill="black"/>
<path d="M201.605 238.655L201.263 238.916C201.569 239.195 201.947 239.582 202.118 239.834L202.559 239.465C202.388 239.24 202.046 238.907 201.749 238.655H203.45V238.115H201.146C201.236 237.935 201.317 237.755 201.389 237.575L200.804 237.413C200.498 238.16 199.994 238.88 199.445 239.375C199.589 239.483 199.823 239.699 199.913 239.816C200.237 239.501 200.552 239.105 200.831 238.655H201.605ZM203.126 241.958V242.795H200.966C201.011 242.534 201.056 242.237 201.101 241.958H203.126ZM203.783 240.563H206.141V241.391H203.783V240.563ZM203.783 242.795V241.958H206.798V239.996H200.219V240.563H203.126V241.391H200.534C200.462 242.03 200.336 242.831 200.219 243.371H202.595C201.857 244.136 200.714 244.829 199.67 245.171C199.823 245.297 200.003 245.54 200.102 245.702C201.173 245.288 202.334 244.514 203.126 243.623V245.693H203.783V243.371H206.375C206.285 244.181 206.186 244.532 206.069 244.658C205.988 244.721 205.898 244.73 205.745 244.73C205.583 244.73 205.169 244.73 204.728 244.685C204.827 244.856 204.899 245.108 204.908 245.306C205.367 245.324 205.808 245.324 206.042 245.306C206.285 245.297 206.456 245.243 206.6 245.081C206.834 244.865 206.951 244.316 207.077 243.074C207.086 242.975 207.095 242.795 207.095 242.795H203.783ZM204.854 238.124C204.935 237.935 205.016 237.755 205.088 237.557L204.467 237.413C204.251 238.061 203.846 238.673 203.351 239.087C203.495 239.168 203.747 239.375 203.855 239.483C204.098 239.249 204.332 238.97 204.539 238.655H205.547L205.16 238.97C205.484 239.231 205.88 239.609 206.087 239.843L206.528 239.465C206.33 239.231 205.952 238.907 205.637 238.655H207.572V238.124H204.854ZM210.353 245.117C211.469 245.117 212.513 244.298 212.513 242.849C212.513 241.4 211.622 240.752 210.524 240.752C210.128 240.752 209.84 240.851 209.543 241.013L209.705 239.105H212.198V238.394H208.985L208.778 241.49L209.219 241.76C209.597 241.508 209.876 241.373 210.317 241.373C211.145 241.373 211.685 241.931 211.685 242.876C211.685 243.839 211.055 244.433 210.281 244.433C209.516 244.433 209.039 244.082 208.661 243.704L208.256 244.244C208.697 244.685 209.327 245.117 210.353 245.117ZM215.156 237.512C214.706 238.871 213.986 240.221 213.185 241.094C213.302 241.256 213.482 241.625 213.536 241.769C213.842 241.427 214.13 241.022 214.409 240.581V245.693H215.048V239.429C215.327 238.871 215.57 238.277 215.768 237.683L215.156 237.512ZM219.476 243.308H217.955V241.913H219.476V243.308ZM220.358 240.419V239.906H218.972V238.889H218.423V239.906H217.073V240.419H218.423V241.409H217.442V243.803H220.007V241.409H218.972V240.419H220.358ZM216.704 244.55V238.601H220.664V244.55H216.704ZM216.083 238.016V245.675H216.704V245.144H220.664V245.603H221.303V238.016H216.083ZM224.453 242.246C224.525 241.715 224.552 241.202 224.552 240.734H228.665V242.246H224.453ZM228.665 238.601V240.095H224.552V238.601H228.665ZM229.358 237.944H223.877V240.698C223.877 242.129 223.733 243.956 222.302 245.216C222.437 245.315 222.707 245.558 222.797 245.702C223.67 244.937 224.12 243.92 224.345 242.903H228.665V244.703C228.665 244.901 228.593 244.964 228.386 244.973C228.179 244.973 227.459 244.982 226.712 244.955C226.82 245.144 226.946 245.459 226.991 245.648C227.954 245.648 228.548 245.639 228.89 245.522C229.223 245.414 229.358 245.18 229.358 244.712V237.944Z" fill="black"/>
<path d="M246.605 238.655L246.263 238.916C246.569 239.195 246.947 239.582 247.118 239.834L247.559 239.465C247.388 239.24 247.046 238.907 246.749 238.655H248.45V238.115H246.146C246.236 237.935 246.317 237.755 246.389 237.575L245.804 237.413C245.498 238.16 244.994 238.88 244.445 239.375C244.589 239.483 244.823 239.699 244.913 239.816C245.237 239.501 245.552 239.105 245.831 238.655H246.605ZM248.126 241.958V242.795H245.966C246.011 242.534 246.056 242.237 246.101 241.958H248.126ZM248.783 240.563H251.141V241.391H248.783V240.563ZM248.783 242.795V241.958H251.798V239.996H245.219V240.563H248.126V241.391H245.534C245.462 242.03 245.336 242.831 245.219 243.371H247.595C246.857 244.136 245.714 244.829 244.67 245.171C244.823 245.297 245.003 245.54 245.102 245.702C246.173 245.288 247.334 244.514 248.126 243.623V245.693H248.783V243.371H251.375C251.285 244.181 251.186 244.532 251.069 244.658C250.988 244.721 250.898 244.73 250.745 244.73C250.583 244.73 250.169 244.73 249.728 244.685C249.827 244.856 249.899 245.108 249.908 245.306C250.367 245.324 250.808 245.324 251.042 245.306C251.285 245.297 251.456 245.243 251.6 245.081C251.834 244.865 251.951 244.316 252.077 243.074C252.086 242.975 252.095 242.795 252.095 242.795H248.783ZM249.854 238.124C249.935 237.935 250.016 237.755 250.088 237.557L249.467 237.413C249.251 238.061 248.846 238.673 248.351 239.087C248.495 239.168 248.747 239.375 248.855 239.483C249.098 239.249 249.332 238.97 249.539 238.655H250.547L250.16 238.97C250.484 239.231 250.88 239.609 251.087 239.843L251.528 239.465C251.33 239.231 250.952 238.907 250.637 238.655H252.572V238.124H249.854ZM255.641 241.517C256.442 241.517 256.838 242.084 256.838 242.975C256.838 243.875 256.343 244.478 255.713 244.478C254.885 244.478 254.39 243.731 254.291 242.363C254.696 241.76 255.227 241.517 255.641 241.517ZM255.713 245.117C256.739 245.117 257.603 244.253 257.603 242.975C257.603 241.598 256.892 240.905 255.776 240.905C255.254 240.905 254.678 241.211 254.273 241.706C254.309 239.654 255.074 238.961 255.974 238.961C256.379 238.961 256.775 239.15 257.036 239.465L257.486 238.952C257.126 238.565 256.631 238.277 255.947 238.277C254.669 238.277 253.508 239.267 253.508 241.85C253.508 244.028 254.444 245.117 255.713 245.117ZM260.156 237.512C259.706 238.871 258.986 240.221 258.185 241.094C258.302 241.256 258.482 241.625 258.536 241.769C258.842 241.427 259.13 241.022 259.409 240.581V245.693H260.048V239.429C260.327 238.871 260.57 238.277 260.768 237.683L260.156 237.512ZM264.476 243.308H262.955V241.913H264.476V243.308ZM265.358 240.419V239.906H263.972V238.889H263.423V239.906H262.073V240.419H263.423V241.409H262.442V243.803H265.007V241.409H263.972V240.419H265.358ZM261.704 244.55V238.601H265.664V244.55H261.704ZM261.083 238.016V245.675H261.704V245.144H265.664V245.603H266.303V238.016H261.083ZM269.453 242.246C269.525 241.715 269.552 241.202 269.552 240.734H273.665V242.246H269.453ZM273.665 238.601V240.095H269.552V238.601H273.665ZM274.358 237.944H268.877V240.698C268.877 242.129 268.733 243.956 267.302 245.216C267.437 245.315 267.707 245.558 267.797 245.702C268.67 244.937 269.12 243.92 269.345 242.903H273.665V244.703C273.665 244.901 273.593 244.964 273.386 244.973C273.179 244.973 272.459 244.982 271.712 244.955C271.82 245.144 271.946 245.459 271.991 245.648C272.954 245.648 273.548 245.639 273.89 245.522C274.223 245.414 274.358 245.18 274.358 244.712V237.944Z" fill="black"/>
<path d="M44.3959 146.064V147.564C44.858 147.564 45.2943 147.351 45.5785 146.987L44.3959 146.064ZM87.524 90.7943L88.7222 89.8919C88.4415 89.5192 88.0034 89.2984 87.5369 89.2944C87.0703 89.2904 86.6285 89.5037 86.3415 89.8715L87.524 90.7943ZM130.655 148.064L129.457 148.966C129.527 149.059 129.608 149.144 129.697 149.218L130.655 148.064ZM173.378 183.5L172.421 184.655C172.527 184.743 172.645 184.816 172.771 184.871L173.378 183.5ZM216.372 202.544L215.765 203.915C216.329 204.165 216.988 204.044 217.426 203.611L216.372 202.544ZM279.979 139.737L263.221 144.114L275.39 156.438L279.979 139.737ZM45.5785 146.987L88.7066 91.7171L86.3415 89.8715L43.2134 145.141L45.5785 146.987ZM86.3258 91.6967L129.457 148.966L131.853 147.161L88.7222 89.8919L86.3258 91.6967ZM129.697 149.218L172.421 184.655L174.336 182.345L131.613 146.909L129.697 149.218ZM172.771 184.871L215.765 203.915L216.98 201.172L173.986 182.129L172.771 184.871ZM217.426 203.611L271.427 150.289L269.319 148.155L215.319 201.476L217.426 203.611ZM44.3959 144.564H1V147.564H44.3959V144.564Z" fill="#FF7A00"/>
<circle cx="44.1133" cy="146.22" r="5" fill="#FF7A00"/>
<circle cx="86.7764" cy="91.8507" r="5" fill="#FF7A00"/>
<circle cx="129.904" cy="147" r="5" fill="#FF7A00"/>
<circle cx="173.765" cy="183" r="5" fill="#FF7A00"/>
<path d="M221.893 202.6C221.893 205.361 219.654 207.6 216.893 207.6C214.131 207.6 211.893 205.361 211.893 202.6C211.893 199.839 214.131 197.6 216.893 197.6C219.654 197.6 221.893 199.839 221.893 202.6Z" fill="#FF7A00"/>
<path d="M264.493 160.062C264.493 162.823 262.255 165.062 259.493 165.062C256.732 165.062 254.493 162.823 254.493 160.062C254.493 157.301 256.732 155.062 259.493 155.062C262.255 155.062 264.493 157.301 264.493 160.062Z" fill="#FF7A00"/>
<path d="M34.5117 167.156C36.0718 167.156 37.3318 166.22 37.3318 164.648C37.3318 163.448 36.5038 162.656 35.4718 162.416V162.368C36.3958 162.02 37.0318 161.312 37.0318 160.244C37.0318 158.852 35.9518 158.036 34.4758 158.036C33.4558 158.036 32.6758 158.48 32.0158 159.092L32.6038 159.788C33.0958 159.284 33.7198 158.936 34.4277 158.936C35.3398 158.936 35.9158 159.488 35.9158 160.328C35.9158 161.276 35.2918 162.008 33.4798 162.008V162.848C35.5078 162.848 36.2158 163.556 36.2158 164.6C36.2158 165.62 35.4718 166.244 34.4277 166.244C33.4318 166.244 32.7598 165.776 32.2438 165.236L31.6918 165.956C32.2678 166.58 33.1318 167.156 34.5117 167.156ZM41.336 167.156C43.004 167.156 44.072 165.632 44.072 162.572C44.072 159.524 43.004 158.036 41.336 158.036C39.656 158.036 38.588 159.512 38.588 162.572C38.588 165.632 39.656 167.156 41.336 167.156ZM41.336 166.28C40.328 166.28 39.656 165.164 39.656 162.572C39.656 160.004 40.328 158.912 41.336 158.912C42.332 158.912 43.004 160.004 43.004 162.572C43.004 165.164 42.332 166.28 41.336 166.28ZM54.9163 157.904H46.4683V158.756H54.9163V157.904ZM53.1163 166.856C52.6483 166.856 52.5523 166.772 52.5523 166.364V162.104H55.9243V161.24H45.4243V162.104H48.4603C48.2803 164.348 47.8363 166.22 45.2803 167.192C45.4843 167.348 45.7363 167.672 45.8443 167.888C48.6043 166.772 49.1803 164.672 49.4083 162.104H51.6523V166.376C51.6523 167.396 51.9403 167.708 53.0083 167.708H54.7243C55.7683 167.708 56.0083 167.144 56.1043 165.104C55.8643 165.032 55.4803 164.876 55.2763 164.708C55.2163 166.544 55.1443 166.856 54.6643 166.856H53.1163Z" fill="black"/>
<path d="M76.9758 125.156C78.4638 125.156 79.8558 124.064 79.8558 122.132C79.8558 120.2 78.6678 119.336 77.2038 119.336C76.6758 119.336 76.2918 119.468 75.8958 119.684L76.1118 117.14H79.4358V116.192H75.1518L74.8758 120.32L75.4638 120.68C75.9678 120.344 76.3398 120.164 76.9277 120.164C78.0318 120.164 78.7518 120.908 78.7518 122.168C78.7518 123.452 77.9118 124.244 76.8798 124.244C75.8598 124.244 75.2238 123.776 74.7198 123.272L74.1798 123.992C74.7678 124.58 75.6077 125.156 76.9758 125.156ZM83.836 125.156C85.504 125.156 86.572 123.632 86.572 120.572C86.572 117.524 85.504 116.036 83.836 116.036C82.156 116.036 81.088 117.512 81.088 120.572C81.088 123.632 82.156 125.156 83.836 125.156ZM83.836 124.28C82.828 124.28 82.156 123.164 82.156 120.572C82.156 118.004 82.828 116.912 83.836 116.912C84.832 116.912 85.504 118.004 85.504 120.572C85.504 123.164 84.832 124.28 83.836 124.28ZM97.4163 115.904H88.9683V116.756H97.4163V115.904ZM95.6163 124.856C95.1483 124.856 95.0523 124.772 95.0523 124.364V120.104H98.4243V119.24H87.9243V120.104H90.9603C90.7803 122.348 90.3363 124.22 87.7803 125.192C87.9843 125.348 88.2363 125.672 88.3443 125.888C91.1043 124.772 91.6803 122.672 91.9083 120.104H94.1523V124.376C94.1523 125.396 94.4403 125.708 95.5083 125.708H97.2243C98.2683 125.708 98.5083 125.144 98.6043 123.104C98.3643 123.032 97.9803 122.876 97.7763 122.708C97.7163 124.544 97.6443 124.856 97.1643 124.856H95.6163Z" fill="black"/>
<path d="M161.9 206H166.724V205.088H164.96V197.192H164.12C163.64 197.48 163.076 197.684 162.296 197.828V198.524H163.856V205.088H161.9V206ZM170.632 206.156C172.12 206.156 173.512 205.064 173.512 203.132C173.512 201.2 172.324 200.336 170.86 200.336C170.332 200.336 169.948 200.468 169.552 200.684L169.768 198.14H173.092V197.192H168.808L168.532 201.32L169.12 201.68C169.624 201.344 169.996 201.164 170.584 201.164C171.688 201.164 172.408 201.908 172.408 203.168C172.408 204.452 171.568 205.244 170.536 205.244C169.516 205.244 168.88 204.776 168.376 204.272L167.836 204.992C168.424 205.58 169.264 206.156 170.632 206.156ZM184.416 196.904H175.968V197.756H184.416V196.904ZM182.616 205.856C182.148 205.856 182.052 205.772 182.052 205.364V201.104H185.424V200.24H174.924V201.104H177.96C177.78 203.348 177.336 205.22 174.78 206.192C174.984 206.348 175.236 206.672 175.344 206.888C178.104 205.772 178.68 203.672 178.908 201.104H181.152V205.376C181.152 206.396 181.44 206.708 182.508 206.708H184.224C185.268 206.708 185.508 206.144 185.604 204.104C185.364 204.032 184.98 203.876 184.776 203.708C184.716 205.544 184.644 205.856 184.164 205.856H182.616Z" fill="black"/>
<path d="M120.012 174.156C121.572 174.156 122.832 173.22 122.832 171.648C122.832 170.448 122.004 169.656 120.972 169.416V169.368C121.896 169.02 122.532 168.312 122.532 167.244C122.532 165.852 121.452 165.036 119.976 165.036C118.956 165.036 118.176 165.48 117.516 166.092L118.104 166.788C118.596 166.284 119.22 165.936 119.928 165.936C120.84 165.936 121.416 166.488 121.416 167.328C121.416 168.276 120.792 169.008 118.98 169.008V169.848C121.008 169.848 121.716 170.556 121.716 171.6C121.716 172.62 120.972 173.244 119.928 173.244C118.932 173.244 118.26 172.776 117.744 172.236L117.192 172.956C117.768 173.58 118.632 174.156 120.012 174.156ZM126.836 174.156C128.504 174.156 129.572 172.632 129.572 169.572C129.572 166.524 128.504 165.036 126.836 165.036C125.156 165.036 124.088 166.512 124.088 169.572C124.088 172.632 125.156 174.156 126.836 174.156ZM126.836 173.28C125.828 173.28 125.156 172.164 125.156 169.572C125.156 167.004 125.828 165.912 126.836 165.912C127.832 165.912 128.504 167.004 128.504 169.572C128.504 172.164 127.832 173.28 126.836 173.28ZM140.416 164.904H131.968V165.756H140.416V164.904ZM138.616 173.856C138.148 173.856 138.052 173.772 138.052 173.364V169.104H141.424V168.24H130.924V169.104H133.96C133.78 171.348 133.336 173.22 130.78 174.192C130.984 174.348 131.236 174.672 131.344 174.888C134.104 173.772 134.68 171.672 134.908 169.104H137.152V173.376C137.152 174.396 137.44 174.708 138.508 174.708H140.224C141.268 174.708 141.508 174.144 141.604 172.104C141.364 172.032 140.98 171.876 140.776 171.708C140.716 173.544 140.644 173.856 140.164 173.856H138.616Z" fill="black"/>
<path d="M205.357 221.487H210.181V220.575H208.417V212.679H207.577C207.097 212.967 206.533 213.171 205.753 213.315V214.011H207.313V220.575H205.357V221.487ZM214.294 221.643C215.962 221.643 217.03 220.119 217.03 217.059C217.03 214.011 215.962 212.523 214.294 212.523C212.614 212.523 211.546 213.999 211.546 217.059C211.546 220.119 212.614 221.643 214.294 221.643ZM214.294 220.767C213.286 220.767 212.614 219.651 212.614 217.059C212.614 214.491 213.286 213.399 214.294 213.399C215.29 213.399 215.962 214.491 215.962 217.059C215.962 219.651 215.29 220.767 214.294 220.767ZM227.874 212.391H219.426V213.243H227.874V212.391ZM226.074 221.343C225.606 221.343 225.51 221.259 225.51 220.851V216.591H228.882V215.727H218.382V216.591H221.418C221.238 218.835 220.794 220.707 218.238 221.679C218.442 221.835 218.694 222.159 218.802 222.375C221.562 221.259 222.138 219.159 222.366 216.591H224.61V220.863C224.61 221.883 224.898 222.195 225.966 222.195H227.682C228.726 222.195 228.966 221.631 229.062 219.591C228.822 219.519 228.438 219.363 228.234 219.195C228.174 221.031 228.102 221.343 227.622 221.343H226.074Z" fill="black"/>
<path d="M246.872 185H252.404V184.052H249.968C249.524 184.052 248.984 184.1 248.528 184.136C250.592 182.18 251.972 180.392 251.972 178.64C251.972 177.068 250.988 176.036 249.416 176.036C248.3 176.036 247.544 176.552 246.824 177.332L247.46 177.956C247.94 177.38 248.564 176.936 249.284 176.936C250.376 176.936 250.904 177.668 250.904 178.676C250.904 180.188 249.632 181.94 246.872 184.352V185ZM256.132 185.156C257.62 185.156 259.012 184.064 259.012 182.132C259.012 180.2 257.824 179.336 256.36 179.336C255.832 179.336 255.448 179.468 255.052 179.684L255.268 177.14H258.592V176.192H254.308L254.032 180.32L254.62 180.68C255.124 180.344 255.496 180.164 256.084 180.164C257.188 180.164 257.908 180.908 257.908 182.168C257.908 183.452 257.068 184.244 256.036 184.244C255.016 184.244 254.38 183.776 253.876 183.272L253.336 183.992C253.924 184.58 254.764 185.156 256.132 185.156ZM269.916 175.904H261.468V176.756H269.916V175.904ZM268.116 184.856C267.648 184.856 267.552 184.772 267.552 184.364V180.104H270.924V179.24H260.424V180.104H263.46C263.28 182.348 262.836 184.22 260.28 185.192C260.484 185.348 260.736 185.672 260.844 185.888C263.604 184.772 264.18 182.672 264.408 180.104H266.652V184.376C266.652 185.396 266.94 185.708 268.008 185.708H269.724C270.768 185.708 271.008 185.144 271.104 183.104C270.864 183.032 270.48 182.876 270.276 182.708C270.216 184.544 270.144 184.856 269.664 184.856H268.116Z" fill="black"/>
<path d="M86.2929 74.9007C86.6834 75.2912 87.3166 75.2912 87.7071 74.9007L94.0711 68.5367C94.4616 68.1462 94.4616 67.5131 94.0711 67.1225C93.6805 66.732 93.0474 66.732 92.6569 67.1225L87 72.7794L81.3431 67.1225C80.9526 66.732 80.3195 66.732 79.9289 67.1225C79.5384 67.5131 79.5384 68.1462 79.9289 68.5367L86.2929 74.9007ZM86 19.0216L86 74.1936L88 74.1936L88 19.0216L86 19.0216Z" fill="white"/>
<rect x="56" width="62" height="30.6122" fill="white"/>
<path d="M74.5442 12.2949H76.4362V13.4389H74.5442V12.2949ZM72.0032 12.2949H73.8402V13.4389H72.0032V12.2949ZM69.5172 12.2949H71.2992V13.4389H69.5172V12.2949ZM68.7692 11.6569V14.0769H77.2172V11.6569H68.7692ZM70.2212 16.6509H75.7542V17.4649H70.2212V16.6509ZM70.2212 18.0039H75.7542V18.8509H70.2212V18.0039ZM70.2212 15.2869H75.7542V16.1009H70.2212V15.2869ZM69.4182 14.7149V19.4229H76.5902V14.7149H69.4182ZM73.8622 19.9839C75.1052 20.3689 76.3482 20.8529 77.0632 21.2049L77.9212 20.7649C77.0852 20.4019 75.7432 19.9179 74.5002 19.5329L73.8622 19.9839ZM71.2992 19.5219C70.5072 19.9619 69.1762 20.3689 68.0322 20.5999C68.2192 20.7429 68.5052 21.0619 68.6372 21.2159C69.7482 20.9189 71.1342 20.4019 72.0362 19.8629L71.2992 19.5219ZM80.9792 11.8109V12.6249H83.6852C83.7072 13.0429 83.7512 13.5269 83.8282 14.0329L83.3442 13.9559C82.6732 17.0359 81.3202 19.2469 78.8892 20.5119C79.1092 20.6549 79.4722 20.9959 79.6262 21.1609C81.8152 19.8739 83.2012 17.8719 84.0152 15.0229C84.5102 17.1019 85.6762 19.5109 88.3822 21.1499C88.5252 20.9519 88.8552 20.5999 89.0422 20.4679C84.7302 17.9049 84.4772 13.7579 84.4772 11.8109H80.9792ZM92.3532 20.4899C93.7832 20.4899 94.9382 19.6319 94.9382 18.1909C94.9382 17.0909 94.1792 16.3649 93.2332 16.1449V16.1009C94.0802 15.7819 94.6632 15.1329 94.6632 14.1539C94.6632 12.8779 93.6732 12.1299 92.3202 12.1299C91.3852 12.1299 90.6702 12.5369 90.0652 13.0979L90.6042 13.7359C91.0552 13.2739 91.6272 12.9549 92.2762 12.9549C93.1122 12.9549 93.6402 13.4609 93.6402 14.2309C93.6402 15.0999 93.0682 15.7709 91.4072 15.7709V16.5409C93.2662 16.5409 93.9152 17.1899 93.9152 18.1469C93.9152 19.0819 93.2332 19.6539 92.2762 19.6539C91.3632 19.6539 90.7472 19.2249 90.2742 18.7299L89.7682 19.3899C90.2962 19.9619 91.0882 20.4899 92.3532 20.4899ZM104.439 12.3829V13.6039H97.8608V12.3829H104.439ZM105.253 14.3189V11.6679H97.0578V14.8799C97.0578 16.6069 96.9588 19.0379 95.9358 20.7539C96.1448 20.8309 96.5078 21.0399 96.6618 21.1719C97.7178 19.3789 97.8608 16.7059 97.8608 14.8689V14.3189H105.253ZM102.426 20.2699C101.821 20.2699 101.7 20.1929 101.7 19.7859V18.8839L105.704 18.2569L105.572 17.5859L101.7 18.1909V17.1789L104.934 16.6839L104.813 16.0239L101.7 16.4969V15.5289C102.624 15.3419 103.504 15.1219 104.197 14.8799L103.515 14.3519C102.371 14.7809 100.226 15.1769 98.3888 15.4189C98.4768 15.5729 98.5868 15.8369 98.6198 16.0129C99.3568 15.9249 100.138 15.8039 100.897 15.6719V16.6069L98.3338 17.0029L98.4548 17.6849L100.897 17.3109V18.3119L97.9708 18.7629L98.1028 19.4449L100.897 19.0049V19.7859C100.897 20.7649 101.216 21.0179 102.36 21.0179H104.593C105.539 21.0179 105.792 20.6549 105.902 19.3789C105.671 19.3239 105.352 19.2029 105.165 19.0709C105.11 20.0719 105.022 20.2699 104.527 20.2699H102.426Z" fill="black"/>
<path d="M258.293 145.975C258.683 146.365 259.317 146.365 259.707 145.975L266.071 139.611C266.462 139.22 266.462 138.587 266.071 138.197C265.681 137.806 265.047 137.806 264.657 138.197L259 143.854L253.343 138.197C252.953 137.806 252.319 137.806 251.929 138.197C251.538 138.587 251.538 139.22 251.929 139.611L258.293 145.975ZM258 60.1115L258 102.69L260 102.69L260 60.1115L258 60.1115ZM258 102.69L258 145.268L260 145.268L260 102.69L258 102.69Z" fill="white"/>
<path d="M43.2929 135.879C43.6834 136.27 44.3166 136.27 44.7071 135.879L51.0711 129.515C51.4616 129.125 51.4616 128.491 51.0711 128.101C50.6805 127.71 50.0474 127.71 49.6569 128.101L44 133.758L38.3431 128.101C37.9526 127.71 37.3195 127.71 36.9289 128.101C36.5384 128.491 36.5384 129.125 36.9289 129.515L43.2929 135.879ZM43 80L43 135.172L45 135.172L45 80L43 80Z" fill="white"/>
<rect x="13" y="67.049" width="62" height="30" fill="white"/>
<path d="M31.5442 79.1969H33.4362V80.3409H31.5442V79.1969ZM29.0032 79.1969H30.8402V80.3409H29.0032V79.1969ZM26.5172 79.1969H28.2992V80.3409H26.5172V79.1969ZM25.7692 78.5589V80.9789H34.2172V78.5589H25.7692ZM27.2212 83.5529H32.7542V84.3669H27.2212V83.5529ZM27.2212 84.9059H32.7542V85.7529H27.2212V84.9059ZM27.2212 82.1889H32.7542V83.0029H27.2212V82.1889ZM26.4182 81.6169V86.3249H33.5902V81.6169H26.4182ZM30.8622 86.8859C32.1052 87.2709 33.3482 87.7549 34.0632 88.1069L34.9212 87.6669C34.0852 87.3039 32.7432 86.8199 31.5002 86.4349L30.8622 86.8859ZM28.2992 86.4239C27.5072 86.8639 26.1762 87.2709 25.0322 87.5019C25.2192 87.6449 25.5052 87.9639 25.6372 88.1179C26.7482 87.8209 28.1342 87.3039 29.0362 86.7649L28.2992 86.4239ZM37.9792 78.7129V79.5269H40.6852C40.7072 79.9449 40.7512 80.4289 40.8282 80.9349L40.3442 80.8579C39.6732 83.9379 38.3202 86.1489 35.8892 87.4139C36.1092 87.5569 36.4722 87.8979 36.6262 88.0629C38.8152 86.7759 40.2012 84.7739 41.0152 81.9249C41.5102 84.0039 42.6762 86.4129 45.3822 88.0519C45.5252 87.8539 45.8552 87.5019 46.0422 87.3699C41.7302 84.8069 41.4772 80.6599 41.4772 78.7129H37.9792ZM49.3202 87.3919C50.6842 87.3919 51.9602 86.3909 51.9602 84.6199C51.9602 82.8489 50.8712 82.0569 49.5292 82.0569C49.0452 82.0569 48.6932 82.1779 48.3302 82.3759L48.5282 80.0439H51.5752V79.1749H47.6482L47.3952 82.9589L47.9342 83.2889C48.3962 82.9809 48.7372 82.8159 49.2762 82.8159C50.2882 82.8159 50.9482 83.4979 50.9482 84.6529C50.9482 85.8299 50.1782 86.5559 49.2322 86.5559C48.2972 86.5559 47.7142 86.1269 47.2522 85.6649L46.7572 86.3249C47.2962 86.8639 48.0662 87.3919 49.3202 87.3919ZM61.4388 79.2849V80.5059H54.8608V79.2849H61.4388ZM62.2528 81.2209V78.5699H54.0578V81.7819C54.0578 83.5089 53.9588 85.9399 52.9358 87.6559C53.1448 87.7329 53.5078 87.9419 53.6618 88.0739C54.7178 86.2809 54.8608 83.6079 54.8608 81.7709V81.2209H62.2528ZM59.4258 87.1719C58.8208 87.1719 58.6998 87.0949 58.6998 86.6879V85.7859L62.7038 85.1589L62.5718 84.4879L58.6998 85.0929V84.0809L61.9338 83.5859L61.8128 82.9259L58.6998 83.3989V82.4309C59.6238 82.2439 60.5038 82.0239 61.1968 81.7819L60.5148 81.2539C59.3708 81.6829 57.2258 82.0789 55.3888 82.3209C55.4768 82.4749 55.5868 82.7389 55.6198 82.9149C56.3568 82.8269 57.1378 82.7059 57.8968 82.5739V83.5089L55.3338 83.9049L55.4548 84.5869L57.8968 84.2129V85.2139L54.9708 85.6649L55.1028 86.3469L57.8968 85.9069V86.6879C57.8968 87.6669 58.2158 87.9199 59.3598 87.9199H61.5928C62.5388 87.9199 62.7918 87.5569 62.9018 86.2809C62.6708 86.2259 62.3518 86.1049 62.1648 85.9729C62.1098 86.9739 62.0218 87.1719 61.5268 87.1719H59.4258Z" fill="black"/>
<rect x="227" y="41" width="62" height="30" fill="white"/>
<path d="M245.765 53.5107H247.657V54.6547H245.765V53.5107ZM243.224 53.5107H245.061V54.6547H243.224V53.5107ZM240.738 53.5107H242.52V54.6547H240.738V53.5107ZM239.99 52.8727V55.2927H248.438V52.8727H239.99ZM241.442 57.8667H246.975V58.6807H241.442V57.8667ZM241.442 59.2197H246.975V60.0667H241.442V59.2197ZM241.442 56.5027H246.975V57.3167H241.442V56.5027ZM240.639 55.9307V60.6387H247.811V55.9307H240.639ZM245.083 61.1997C246.326 61.5847 247.569 62.0687 248.284 62.4207L249.142 61.9807C248.306 61.6177 246.964 61.1337 245.721 60.7487L245.083 61.1997ZM242.52 60.7377C241.728 61.1777 240.397 61.5847 239.253 61.8157C239.44 61.9587 239.726 62.2777 239.858 62.4317C240.969 62.1347 242.355 61.6177 243.257 61.0787L242.52 60.7377ZM252.2 53.0267V53.8407H254.906C254.928 54.2587 254.972 54.7427 255.049 55.2487L254.565 55.1717C253.894 58.2517 252.541 60.4627 250.11 61.7277C250.33 61.8707 250.693 62.2117 250.847 62.3767C253.036 61.0897 254.422 59.0877 255.236 56.2387C255.731 58.3177 256.897 60.7267 259.603 62.3657C259.746 62.1677 260.076 61.8157 260.263 61.6837C255.951 59.1207 255.698 54.9737 255.698 53.0267H252.2ZM263.893 57.3057C264.872 57.3057 265.356 57.9987 265.356 59.0877C265.356 60.1877 264.751 60.9247 263.981 60.9247C262.969 60.9247 262.364 60.0117 262.243 58.3397C262.738 57.6027 263.387 57.3057 263.893 57.3057ZM263.981 61.7057C265.235 61.7057 266.291 60.6497 266.291 59.0877C266.291 57.4047 265.422 56.5577 264.058 56.5577C263.42 56.5577 262.716 56.9317 262.221 57.5367C262.265 55.0287 263.2 54.1817 264.3 54.1817C264.795 54.1817 265.279 54.4127 265.598 54.7977L266.148 54.1707C265.708 53.6977 265.103 53.3457 264.267 53.3457C262.705 53.3457 261.286 54.5557 261.286 57.7127C261.286 60.3747 262.43 61.7057 263.981 61.7057ZM275.66 53.5987V54.8197H269.082V53.5987H275.66ZM276.474 55.5347V52.8837H268.279V56.0957C268.279 57.8227 268.18 60.2537 267.157 61.9697C267.366 62.0467 267.729 62.2557 267.883 62.3877C268.939 60.5947 269.082 57.9217 269.082 56.0847V55.5347H276.474ZM273.647 61.4857C273.042 61.4857 272.921 61.4087 272.921 61.0017V60.0997L276.925 59.4727L276.793 58.8017L272.921 59.4067V58.3947L276.155 57.8997L276.034 57.2397L272.921 57.7127V56.7447C273.845 56.5577 274.725 56.3377 275.418 56.0957L274.736 55.5677C273.592 55.9967 271.447 56.3927 269.61 56.6347C269.698 56.7887 269.808 57.0527 269.841 57.2287C270.578 57.1407 271.359 57.0197 272.118 56.8877V57.8227L269.555 58.2187L269.676 58.9007L272.118 58.5267V59.5277L269.192 59.9787L269.324 60.6607L272.118 60.2207V61.0017C272.118 61.9807 272.437 62.2337 273.581 62.2337H275.814C276.76 62.2337 277.013 61.8707 277.123 60.5947C276.892 60.5397 276.573 60.4187 276.386 60.2867C276.331 61.2877 276.243 61.4857 275.748 61.4857H273.647Z" fill="black"/>
<path d="M1 8.72961V229.217H263.725" stroke="black"/>
<path d="M1 201.596H259.501" stroke="black" stroke-opacity="0.1"/>
<path d="M1 91.593H259.501" stroke="black" stroke-opacity="0.1"/>
<path d="M1 229.217H259.501" stroke="black" stroke-opacity="0.1"/>
<path d="M1 173.975H259.501" stroke="black" stroke-opacity="0.1"/>
<path d="M1 63.9719H259.501" stroke="black" stroke-opacity="0.1"/>
<path d="M1 146.354H259.501" stroke="black" stroke-opacity="0.1"/>
<path d="M1 36.3507H259.501" stroke="black" stroke-opacity="0.1"/>
<path d="M1 118.732H259.501" stroke="black" stroke-opacity="0.1"/>
<path d="M1 8.72961H259.501" stroke="black" stroke-opacity="0.1"/>
<path d="M1 8.72961V229.217" stroke="black" stroke-opacity="0.1"/>
<path d="M44.1279 8.72961V229.217" stroke="black" stroke-opacity="0.1"/>
<path d="M86.9883 8.72961V229.217" stroke="black" stroke-opacity="0.1"/>
<path d="M130.116 8.72961V229.217" stroke="black" stroke-opacity="0.1"/>
<path d="M173.244 8.72961V229.217" stroke="black" stroke-opacity="0.1"/>
<path d="M216.372 8.72961V229.217" stroke="black" stroke-opacity="0.1"/>
<path d="M259.232 8.72961V229.217" stroke="black" stroke-opacity="0.1"/>
<path d="M31.1043 238.655L30.7623 238.916C31.0683 239.195 31.4463 239.582 31.6173 239.834L32.0583 239.465C31.8873 239.24 31.5453 238.907 31.2483 238.655H32.9493V238.115H30.6453C30.7353 237.935 30.8163 237.755 30.8883 237.575L30.3033 237.413C29.9973 238.16 29.4933 238.88 28.9443 239.375C29.0883 239.483 29.3223 239.699 29.4123 239.816C29.7363 239.501 30.0513 239.105 30.3303 238.655H31.1043ZM32.6253 241.958V242.795H30.4653C30.5103 242.534 30.5553 242.237 30.6003 241.958H32.6253ZM33.2823 240.563H35.6403V241.391H33.2823V240.563ZM33.2823 242.795V241.958H36.2973V239.996H29.7183V240.563H32.6253V241.391H30.0333C29.9613 242.03 29.8353 242.831 29.7183 243.371H32.0943C31.3563 244.136 30.2133 244.829 29.1693 245.171C29.3223 245.297 29.5023 245.54 29.6013 245.702C30.6723 245.288 31.8333 244.514 32.6253 243.623V245.693H33.2823V243.371H35.8743C35.7843 244.181 35.6853 244.532 35.5683 244.658C35.4873 244.721 35.3973 244.73 35.2443 244.73C35.0823 244.73 34.6683 244.73 34.2273 244.685C34.3263 244.856 34.3983 245.108 34.4073 245.306C34.8663 245.324 35.3073 245.324 35.5413 245.306C35.7843 245.297 35.9553 245.243 36.0993 245.081C36.3333 244.865 36.4503 244.316 36.5763 243.074C36.5853 242.975 36.5943 242.795 36.5943 242.795H33.2823ZM34.3533 238.124C34.4343 237.935 34.5153 237.755 34.5873 237.557L33.9663 237.413C33.7503 238.061 33.3453 238.673 32.8503 239.087C32.9943 239.168 33.2463 239.375 33.3543 239.483C33.5973 239.249 33.8313 238.97 34.0383 238.655H35.0463L34.6593 238.97C34.9833 239.231 35.3793 239.609 35.5863 239.843L36.0273 239.465C35.8293 239.231 35.4513 238.907 35.1363 238.655H37.0713V238.124H34.3533Z" fill="black"/>
<path d="M38.2953 245H41.9133V244.316H40.5903V238.394H39.9603C39.6003 238.61 39.1773 238.763 38.5923 238.871V239.393H39.7623V244.316H38.2953V245Z" fill="black"/>
<path d="M44.6555 237.512C44.2055 238.871 43.4855 240.221 42.6845 241.094C42.8015 241.256 42.9815 241.625 43.0355 241.769C43.3415 241.427 43.6295 241.022 43.9085 240.581V245.693H44.5475V239.429C44.8265 238.871 45.0695 238.277 45.2675 237.683L44.6555 237.512ZM48.9755 243.308H47.4545V241.913H48.9755V243.308ZM49.8575 240.419V239.906H48.4715V238.889H47.9225V239.906H46.5725V240.419H47.9225V241.409H46.9415V243.803H49.5065V241.409H48.4715V240.419H49.8575ZM46.2035 244.55V238.601H50.1635V244.55H46.2035ZM45.5825 238.016V245.675H46.2035V245.144H50.1635V245.603H50.8025V238.016H45.5825Z" fill="black"/>
<path d="M53.9525 242.246C54.0245 241.715 54.0515 241.202 54.0515 240.734H58.1645V242.246H53.9525ZM58.1645 238.601V240.095H54.0515V238.601H58.1645ZM58.8575 237.944H53.3765V240.698C53.3765 242.129 53.2325 243.956 51.8015 245.216C51.9365 245.315 52.2065 245.558 52.2965 245.702C53.1695 244.937 53.6195 243.92 53.8445 242.903H58.1645V244.703C58.1645 244.901 58.0925 244.964 57.8855 244.973C57.6785 244.973 56.9585 244.982 56.2115 244.955C56.3195 245.144 56.4455 245.459 56.4905 245.648C57.4535 245.648 58.0475 245.639 58.3895 245.522C58.7225 245.414 58.8575 245.18 58.8575 244.712V237.944Z" fill="black"/>
<path d="M73.6043 238.655L73.2623 238.916C73.5683 239.195 73.9463 239.582 74.1173 239.834L74.5583 239.465C74.3873 239.24 74.0453 238.907 73.7483 238.655H75.4493V238.115H73.1453C73.2353 237.935 73.3163 237.755 73.3883 237.575L72.8033 237.413C72.4973 238.16 71.9933 238.88 71.4443 239.375C71.5883 239.483 71.8223 239.699 71.9123 239.816C72.2363 239.501 72.5513 239.105 72.8303 238.655H73.6043ZM75.1253 241.958V242.795H72.9653C73.0103 242.534 73.0553 242.237 73.1003 241.958H75.1253ZM75.7823 240.563H78.1403V241.391H75.7823V240.563ZM75.7823 242.795V241.958H78.7973V239.996H72.2183V240.563H75.1253V241.391H72.5333C72.4613 242.03 72.3353 242.831 72.2183 243.371H74.5943C73.8563 244.136 72.7133 244.829 71.6693 245.171C71.8223 245.297 72.0023 245.54 72.1013 245.702C73.1723 245.288 74.3333 244.514 75.1253 243.623V245.693H75.7823V243.371H78.3743C78.2843 244.181 78.1853 244.532 78.0683 244.658C77.9873 244.721 77.8973 244.73 77.7443 244.73C77.5823 244.73 77.1683 244.73 76.7273 244.685C76.8263 244.856 76.8983 245.108 76.9073 245.306C77.3663 245.324 77.8073 245.324 78.0413 245.306C78.2843 245.297 78.4553 245.243 78.5993 245.081C78.8333 244.865 78.9503 244.316 79.0763 243.074C79.0853 242.975 79.0943 242.795 79.0943 242.795H75.7823ZM76.8533 238.124C76.9343 237.935 77.0153 237.755 77.0873 237.557L76.4663 237.413C76.2503 238.061 75.8453 238.673 75.3503 239.087C75.4943 239.168 75.7463 239.375 75.8543 239.483C76.0973 239.249 76.3313 238.97 76.5383 238.655H77.5463L77.1593 238.97C77.4833 239.231 77.8793 239.609 78.0863 239.843L78.5273 239.465C78.3293 239.231 77.9513 238.907 77.6363 238.655H79.5713V238.124H76.8533Z" fill="black"/>
<path d="M80.3993 245H84.5483V244.289H82.7213C82.3883 244.289 81.9833 244.325 81.6413 244.352C83.1893 242.885 84.2243 241.544 84.2243 240.23C84.2243 239.051 83.4863 238.277 82.3073 238.277C81.4703 238.277 80.9033 238.664 80.3633 239.249L80.8403 239.717C81.2003 239.285 81.6683 238.952 82.2083 238.952C83.0273 238.952 83.4233 239.501 83.4233 240.257C83.4233 241.391 82.4693 242.705 80.3993 244.514V245Z" fill="black"/>
<path d="M87.1555 237.512C86.7055 238.871 85.9855 240.221 85.1845 241.094C85.3015 241.256 85.4815 241.625 85.5355 241.769C85.8415 241.427 86.1295 241.022 86.4085 240.581V245.693H87.0475V239.429C87.3265 238.871 87.5695 238.277 87.7675 237.683L87.1555 237.512ZM91.4755 243.308H89.9545V241.913H91.4755V243.308ZM92.3575 240.419V239.906H90.9715V238.889H90.4225V239.906H89.0725V240.419H90.4225V241.409H89.4415V243.803H92.0065V241.409H90.9715V240.419H92.3575ZM88.7035 244.55V238.601H92.6635V244.55H88.7035ZM88.0825 238.016V245.675H88.7035V245.144H92.6635V245.603H93.3025V238.016H88.0825Z" fill="black"/>
<path d="M96.4525 242.246C96.5245 241.715 96.5515 241.202 96.5515 240.734H100.665V242.246H96.4525ZM100.665 238.601V240.095H96.5515V238.601H100.665ZM101.358 237.944H95.8765V240.698C95.8765 242.129 95.7325 243.956 94.3015 245.216C94.4365 245.315 94.7065 245.558 94.7965 245.702C95.6695 244.937 96.1195 243.92 96.3445 242.903H100.665V244.703C100.665 244.901 100.593 244.964 100.386 244.973C100.179 244.973 99.4585 244.982 98.7115 244.955C98.8195 245.144 98.9455 245.459 98.9905 245.648C99.9535 245.648 100.548 245.639 100.89 245.522C101.223 245.414 101.358 245.18 101.358 244.712V237.944Z" fill="black"/>
<path d="M116.104 238.655L115.762 238.916C116.068 239.195 116.446 239.582 116.617 239.834L117.058 239.465C116.887 239.24 116.545 238.907 116.248 238.655H117.949V238.115H115.645C115.735 237.935 115.816 237.755 115.888 237.575L115.303 237.413C114.997 238.16 114.493 238.88 113.944 239.375C114.088 239.483 114.322 239.699 114.412 239.816C114.736 239.501 115.051 239.105 115.33 238.655H116.104ZM117.625 241.958V242.795H115.465C115.51 242.534 115.555 242.237 115.6 241.958H117.625ZM118.282 240.563H120.64V241.391H118.282V240.563ZM118.282 242.795V241.958H121.297V239.996H114.718V240.563H117.625V241.391H115.033C114.961 242.03 114.835 242.831 114.718 243.371H117.094C116.356 244.136 115.213 244.829 114.169 245.171C114.322 245.297 114.502 245.54 114.601 245.702C115.672 245.288 116.833 244.514 117.625 243.623V245.693H118.282V243.371H120.874C120.784 244.181 120.685 244.532 120.568 244.658C120.487 244.721 120.397 244.73 120.244 244.73C120.082 244.73 119.668 244.73 119.227 244.685C119.326 244.856 119.398 245.108 119.407 245.306C119.866 245.324 120.307 245.324 120.541 245.306C120.784 245.297 120.955 245.243 121.099 245.081C121.333 244.865 121.45 244.316 121.576 243.074C121.585 242.975 121.594 242.795 121.594 242.795H118.282ZM119.353 238.124C119.434 237.935 119.515 237.755 119.587 237.557L118.966 237.413C118.75 238.061 118.345 238.673 117.85 239.087C117.994 239.168 118.246 239.375 118.354 239.483C118.597 239.249 118.831 238.97 119.038 238.655H120.046L119.659 238.97C119.983 239.231 120.379 239.609 120.586 239.843L121.027 239.465C120.829 239.231 120.451 238.907 120.136 238.655H122.071V238.124H119.353Z" fill="black"/>
<path d="M124.879 245.117C126.049 245.117 126.994 244.415 126.994 243.236C126.994 242.336 126.373 241.742 125.599 241.562V241.526C126.292 241.265 126.769 240.734 126.769 239.933C126.769 238.889 125.959 238.277 124.852 238.277C124.087 238.277 123.502 238.61 123.007 239.069L123.448 239.591C123.817 239.213 124.285 238.952 124.816 238.952C125.5 238.952 125.932 239.366 125.932 239.996C125.932 240.707 125.464 241.256 124.105 241.256V241.886C125.626 241.886 126.157 242.417 126.157 243.2C126.157 243.965 125.599 244.433 124.816 244.433C124.069 244.433 123.565 244.082 123.178 243.677L122.764 244.217C123.196 244.685 123.844 245.117 124.879 245.117Z" fill="black"/>
<path d="M129.656 237.512C129.206 238.871 128.486 240.221 127.685 241.094C127.802 241.256 127.982 241.625 128.036 241.769C128.342 241.427 128.63 241.022 128.909 240.581V245.693H129.548V239.429C129.827 238.871 130.07 238.277 130.268 237.683L129.656 237.512ZM133.976 243.308H132.455V241.913H133.976V243.308ZM134.858 240.419V239.906H133.472V238.889H132.923V239.906H131.573V240.419H132.923V241.409H131.942V243.803H134.507V241.409H133.472V240.419H134.858ZM131.204 244.55V238.601H135.164V244.55H131.204ZM130.583 238.016V245.675H131.204V245.144H135.164V245.603H135.803V238.016H130.583Z" fill="black"/>
<path d="M138.953 242.246C139.025 241.715 139.052 241.202 139.052 240.734H143.165V242.246H138.953ZM143.165 238.601V240.095H139.052V238.601H143.165ZM143.858 237.944H138.377V240.698C138.377 242.129 138.233 243.956 136.802 245.216C136.937 245.315 137.207 245.558 137.297 245.702C138.17 244.937 138.62 243.92 138.845 242.903H143.165V244.703C143.165 244.901 143.093 244.964 142.886 244.973C142.679 244.973 141.959 244.982 141.212 244.955C141.32 245.144 141.446 245.459 141.491 245.648C142.454 245.648 143.048 245.639 143.39 245.522C143.723 245.414 143.858 245.18 143.858 244.712V237.944Z" fill="black"/>
<path d="M158.604 238.655L158.262 238.916C158.568 239.195 158.946 239.582 159.117 239.834L159.558 239.465C159.387 239.24 159.045 238.907 158.748 238.655H160.449V238.115H158.145C158.235 237.935 158.316 237.755 158.388 237.575L157.803 237.413C157.497 238.16 156.993 238.88 156.444 239.375C156.588 239.483 156.822 239.699 156.912 239.816C157.236 239.501 157.551 239.105 157.83 238.655H158.604ZM160.125 241.958V242.795H157.965C158.01 242.534 158.055 242.237 158.1 241.958H160.125ZM160.782 240.563H163.14V241.391H160.782V240.563ZM160.782 242.795V241.958H163.797V239.996H157.218V240.563H160.125V241.391H157.533C157.461 242.03 157.335 242.831 157.218 243.371H159.594C158.856 244.136 157.713 244.829 156.669 245.171C156.822 245.297 157.002 245.54 157.101 245.702C158.172 245.288 159.333 244.514 160.125 243.623V245.693H160.782V243.371H163.374C163.284 244.181 163.185 244.532 163.068 244.658C162.987 244.721 162.897 244.73 162.744 244.73C162.582 244.73 162.168 244.73 161.727 244.685C161.826 244.856 161.898 245.108 161.907 245.306C162.366 245.324 162.807 245.324 163.041 245.306C163.284 245.297 163.455 245.243 163.599 245.081C163.833 244.865 163.95 244.316 164.076 243.074C164.085 242.975 164.094 242.795 164.094 242.795H160.782ZM161.853 238.124C161.934 237.935 162.015 237.755 162.087 237.557L161.466 237.413C161.25 238.061 160.845 238.673 160.35 239.087C160.494 239.168 160.746 239.375 160.854 239.483C161.097 239.249 161.331 238.97 161.538 238.655H162.546L162.159 238.97C162.483 239.231 162.879 239.609 163.086 239.843L163.527 239.465C163.329 239.231 162.951 238.907 162.636 238.655H164.571V238.124H161.853Z" fill="black"/>
<path d="M166.038 242.525L167.541 240.275C167.73 239.951 167.91 239.627 168.072 239.303H168.108C168.09 239.645 168.063 240.176 168.063 240.5V242.525H166.038ZM168.063 245H168.837V243.182H169.71V242.525H168.837V238.394H167.928L165.183 242.642V243.182H168.063V245Z" fill="black"/>
<path d="M172.156 237.512C171.706 238.871 170.986 240.221 170.185 241.094C170.302 241.256 170.482 241.625 170.536 241.769C170.842 241.427 171.13 241.022 171.409 240.581V245.693H172.048V239.429C172.327 238.871 172.57 238.277 172.768 237.683L172.156 237.512ZM176.476 243.308H174.955V241.913H176.476V243.308ZM177.358 240.419V239.906H175.972V238.889H175.423V239.906H174.073V240.419H175.423V241.409H174.442V243.803H177.007V241.409H175.972V240.419H177.358ZM173.704 244.55V238.601H177.664V244.55H173.704ZM173.083 238.016V245.675H173.704V245.144H177.664V245.603H178.303V238.016H173.083Z" fill="black"/>
<path d="M181.453 242.246C181.525 241.715 181.552 241.202 181.552 240.734H185.665V242.246H181.453ZM185.665 238.601V240.095H181.552V238.601H185.665ZM186.358 237.944H180.877V240.698C180.877 242.129 180.733 243.956 179.302 245.216C179.437 245.315 179.707 245.558 179.797 245.702C180.67 244.937 181.12 243.92 181.345 242.903H185.665V244.703C185.665 244.901 185.593 244.964 185.386 244.973C185.179 244.973 184.459 244.982 183.712 244.955C183.82 245.144 183.946 245.459 183.991 245.648C184.954 245.648 185.548 245.639 185.89 245.522C186.223 245.414 186.358 245.18 186.358 244.712V237.944Z" fill="black"/>
<path d="M201.604 238.655L201.262 238.916C201.568 239.195 201.946 239.582 202.117 239.834L202.558 239.465C202.387 239.24 202.045 238.907 201.748 238.655H203.449V238.115H201.145C201.235 237.935 201.316 237.755 201.388 237.575L200.803 237.413C200.497 238.16 199.993 238.88 199.444 239.375C199.588 239.483 199.822 239.699 199.912 239.816C200.236 239.501 200.551 239.105 200.83 238.655H201.604ZM203.125 241.958V242.795H200.965C201.01 242.534 201.055 242.237 201.1 241.958H203.125ZM203.782 240.563H206.14V241.391H203.782V240.563ZM203.782 242.795V241.958H206.797V239.996H200.218V240.563H203.125V241.391H200.533C200.461 242.03 200.335 242.831 200.218 243.371H202.594C201.856 244.136 200.713 244.829 199.669 245.171C199.822 245.297 200.002 245.54 200.101 245.702C201.172 245.288 202.333 244.514 203.125 243.623V245.693H203.782V243.371H206.374C206.284 244.181 206.185 244.532 206.068 244.658C205.987 244.721 205.897 244.73 205.744 244.73C205.582 244.73 205.168 244.73 204.727 244.685C204.826 244.856 204.898 245.108 204.907 245.306C205.366 245.324 205.807 245.324 206.041 245.306C206.284 245.297 206.455 245.243 206.599 245.081C206.833 244.865 206.95 244.316 207.076 243.074C207.085 242.975 207.094 242.795 207.094 242.795H203.782ZM204.853 238.124C204.934 237.935 205.015 237.755 205.087 237.557L204.466 237.413C204.25 238.061 203.845 238.673 203.35 239.087C203.494 239.168 203.746 239.375 203.854 239.483C204.097 239.249 204.331 238.97 204.538 238.655H205.546L205.159 238.97C205.483 239.231 205.879 239.609 206.086 239.843L206.527 239.465C206.329 239.231 205.951 238.907 205.636 238.655H207.571V238.124H204.853Z" fill="black"/>
<path d="M210.352 245.117C211.468 245.117 212.512 244.298 212.512 242.849C212.512 241.4 211.621 240.752 210.523 240.752C210.127 240.752 209.839 240.851 209.542 241.013L209.704 239.105H212.197V238.394H208.984L208.777 241.49L209.218 241.76C209.596 241.508 209.875 241.373 210.316 241.373C211.144 241.373 211.684 241.931 211.684 242.876C211.684 243.839 211.054 244.433 210.28 244.433C209.515 244.433 209.038 244.082 208.66 243.704L208.255 244.244C208.696 244.685 209.326 245.117 210.352 245.117Z" fill="black"/>
<path d="M215.156 237.512C214.706 238.871 213.986 240.221 213.185 241.094C213.302 241.256 213.482 241.625 213.536 241.769C213.842 241.427 214.13 241.022 214.409 240.581V245.693H215.048V239.429C215.327 238.871 215.57 238.277 215.768 237.683L215.156 237.512ZM219.476 243.308H217.955V241.913H219.476V243.308ZM220.358 240.419V239.906H218.972V238.889H218.423V239.906H217.073V240.419H218.423V241.409H217.442V243.803H220.007V241.409H218.972V240.419H220.358ZM216.704 244.55V238.601H220.664V244.55H216.704ZM216.083 238.016V245.675H216.704V245.144H220.664V245.603H221.303V238.016H216.083Z" fill="black"/>
<path d="M224.453 242.246C224.525 241.715 224.552 241.202 224.552 240.734H228.665V242.246H224.453ZM228.665 238.601V240.095H224.552V238.601H228.665ZM229.358 237.944H223.877V240.698C223.877 242.129 223.733 243.956 222.302 245.216C222.437 245.315 222.707 245.558 222.797 245.702C223.67 244.937 224.12 243.92 224.345 242.903H228.665V244.703C228.665 244.901 228.593 244.964 228.386 244.973C228.179 244.973 227.459 244.982 226.712 244.955C226.82 245.144 226.946 245.459 226.991 245.648C227.954 245.648 228.548 245.639 228.89 245.522C229.223 245.414 229.358 245.18 229.358 244.712V237.944Z" fill="black"/>
<path d="M246.604 238.655L246.262 238.916C246.568 239.195 246.946 239.582 247.117 239.834L247.558 239.465C247.387 239.24 247.045 238.907 246.748 238.655H248.449V238.115H246.145C246.235 237.935 246.316 237.755 246.388 237.575L245.803 237.413C245.497 238.16 244.993 238.88 244.444 239.375C244.588 239.483 244.822 239.699 244.912 239.816C245.236 239.501 245.551 239.105 245.83 238.655H246.604ZM248.125 241.958V242.795H245.965C246.01 242.534 246.055 242.237 246.1 241.958H248.125ZM248.782 240.563H251.14V241.391H248.782V240.563ZM248.782 242.795V241.958H251.797V239.996H245.218V240.563H248.125V241.391H245.533C245.461 242.03 245.335 242.831 245.218 243.371H247.594C246.856 244.136 245.713 244.829 244.669 245.171C244.822 245.297 245.002 245.54 245.101 245.702C246.172 245.288 247.333 244.514 248.125 243.623V245.693H248.782V243.371H251.374C251.284 244.181 251.185 244.532 251.068 244.658C250.987 244.721 250.897 244.73 250.744 244.73C250.582 244.73 250.168 244.73 249.727 244.685C249.826 244.856 249.898 245.108 249.907 245.306C250.366 245.324 250.807 245.324 251.041 245.306C251.284 245.297 251.455 245.243 251.599 245.081C251.833 244.865 251.95 244.316 252.076 243.074C252.085 242.975 252.094 242.795 252.094 242.795H248.782ZM249.853 238.124C249.934 237.935 250.015 237.755 250.087 237.557L249.466 237.413C249.25 238.061 248.845 238.673 248.35 239.087C248.494 239.168 248.746 239.375 248.854 239.483C249.097 239.249 249.331 238.97 249.538 238.655H250.546L250.159 238.97C250.483 239.231 250.879 239.609 251.086 239.843L251.527 239.465C251.329 239.231 250.951 238.907 250.636 238.655H252.571V238.124H249.853Z" fill="black"/>
<path d="M255.64 241.517C256.441 241.517 256.837 242.084 256.837 242.975C256.837 243.875 256.342 244.478 255.712 244.478C254.884 244.478 254.389 243.731 254.29 242.363C254.695 241.76 255.226 241.517 255.64 241.517ZM255.712 245.117C256.738 245.117 257.602 244.253 257.602 242.975C257.602 241.598 256.891 240.905 255.775 240.905C255.253 240.905 254.677 241.211 254.272 241.706C254.308 239.654 255.073 238.961 255.973 238.961C256.378 238.961 256.774 239.15 257.035 239.465L257.485 238.952C257.125 238.565 256.63 238.277 255.946 238.277C254.668 238.277 253.507 239.267 253.507 241.85C253.507 244.028 254.443 245.117 255.712 245.117Z" fill="black"/>
<path d="M260.156 237.512C259.706 238.871 258.986 240.221 258.185 241.094C258.302 241.256 258.482 241.625 258.536 241.769C258.842 241.427 259.13 241.022 259.409 240.581V245.693H260.048V239.429C260.327 238.871 260.57 238.277 260.768 237.683L260.156 237.512ZM264.476 243.308H262.955V241.913H264.476V243.308ZM265.358 240.419V239.906H263.972V238.889H263.423V239.906H262.073V240.419H263.423V241.409H262.442V243.803H265.007V241.409H263.972V240.419H265.358ZM261.704 244.55V238.601H265.664V244.55H261.704ZM261.083 238.016V245.675H261.704V245.144H265.664V245.603H266.303V238.016H261.083Z" fill="black"/>
<path d="M269.453 242.246C269.525 241.715 269.552 241.202 269.552 240.734H273.665V242.246H269.453ZM273.665 238.601V240.095H269.552V238.601H273.665ZM274.358 237.944H268.877V240.698C268.877 242.129 268.733 243.956 267.302 245.216C267.437 245.315 267.707 245.558 267.797 245.702C268.67 244.937 269.12 243.92 269.345 242.903H273.665V244.703C273.665 244.901 273.593 244.964 273.386 244.973C273.179 244.973 272.459 244.982 271.712 244.955C271.82 245.144 271.946 245.459 271.991 245.648C272.954 245.648 273.548 245.639 273.89 245.522C274.223 245.414 274.358 245.18 274.358 244.712V237.944Z" fill="black"/>
<path d="M44.3959 146.064V147.564C44.858 147.564 45.2943 147.351 45.5785 146.987L44.3959 146.064ZM87.524 90.7943L88.7222 89.8919C88.4415 89.5192 88.0034 89.2984 87.5369 89.2944C87.0703 89.2904 86.6285 89.5037 86.3415 89.8715L87.524 90.7943ZM130.655 148.064L129.457 148.966C129.527 149.059 129.608 149.144 129.697 149.218L130.655 148.064ZM173.378 183.5L172.421 184.655C172.527 184.743 172.645 184.816 172.771 184.871L173.378 183.5ZM216.372 202.544L215.765 203.915C216.329 204.165 216.988 204.044 217.426 203.611L216.372 202.544ZM279.979 139.737L263.221 144.114L275.39 156.438L279.979 139.737ZM45.5785 146.987L88.7066 91.7171L86.3415 89.8715L43.2134 145.141L45.5785 146.987ZM86.3258 91.6967L129.457 148.966L131.853 147.161L88.7222 89.8919L86.3258 91.6967ZM129.697 149.218L172.421 184.655L174.336 182.345L131.613 146.909L129.697 149.218ZM172.771 184.871L215.765 203.915L216.98 201.172L173.986 182.129L172.771 184.871ZM217.426 203.611L271.427 150.289L269.319 148.155L215.319 201.476L217.426 203.611ZM44.3959 144.564H1V147.564H44.3959V144.564Z" fill="#FF7A00"/>
<circle cx="44.1133" cy="146.22" r="5" fill="#FF7A00"/>
<circle cx="86.7764" cy="91.8507" r="5" fill="#FF7A00"/>
<circle cx="129.904" cy="147" r="5" fill="#FF7A00"/>
<circle cx="173.765" cy="183" r="5" fill="#FF7A00"/>
<path d="M221.893 202.6C221.893 205.361 219.654 207.6 216.893 207.6C214.131 207.6 211.893 205.361 211.893 202.6C211.893 199.839 214.131 197.6 216.893 197.6C219.654 197.6 221.893 199.839 221.893 202.6Z" fill="#FF7A00"/>
<path d="M264.493 160.062C264.493 162.823 262.255 165.062 259.493 165.062C256.732 165.062 254.493 162.823 254.493 160.062C254.493 157.301 256.732 155.062 259.493 155.062C262.255 155.062 264.493 157.301 264.493 160.062Z" fill="#FF7A00"/>
<path d="M76.9758 125.156C78.4638 125.156 79.8558 124.064 79.8558 122.132C79.8558 120.2 78.6678 119.336 77.2038 119.336C76.6758 119.336 76.2918 119.468 75.8958 119.684L76.1118 117.14H79.4358V116.192H75.1518L74.8758 120.32L75.4638 120.68C75.9678 120.344 76.3398 120.164 76.9277 120.164C78.0318 120.164 78.7518 120.908 78.7518 122.168C78.7518 123.452 77.9118 124.244 76.8798 124.244C75.8598 124.244 75.2238 123.776 74.7198 123.272L74.1798 123.992C74.7678 124.58 75.6077 125.156 76.9758 125.156ZM83.836 125.156C85.504 125.156 86.572 123.632 86.572 120.572C86.572 117.524 85.504 116.036 83.836 116.036C82.156 116.036 81.088 117.512 81.088 120.572C81.088 123.632 82.156 125.156 83.836 125.156ZM83.836 124.28C82.828 124.28 82.156 123.164 82.156 120.572C82.156 118.004 82.828 116.912 83.836 116.912C84.832 116.912 85.504 118.004 85.504 120.572C85.504 123.164 84.832 124.28 83.836 124.28ZM97.4163 115.904H88.9683V116.756H97.4163V115.904ZM95.6163 124.856C95.1483 124.856 95.0523 124.772 95.0523 124.364V120.104H98.4243V119.24H87.9243V120.104H90.9603C90.7803 122.348 90.3363 124.22 87.7803 125.192C87.9843 125.348 88.2363 125.672 88.3443 125.888C91.1043 124.772 91.6803 122.672 91.9083 120.104H94.1523V124.376C94.1523 125.396 94.4403 125.708 95.5083 125.708H97.2243C98.2683 125.708 98.5083 125.144 98.6043 123.104C98.3643 123.032 97.9803 122.876 97.7763 122.708C97.7163 124.544 97.6443 124.856 97.1643 124.856H95.6163Z" fill="black"/>
<path d="M161.9 206H166.724V205.088H164.96V197.192H164.12C163.64 197.48 163.076 197.684 162.296 197.828V198.524H163.856V205.088H161.9V206ZM170.632 206.156C172.12 206.156 173.512 205.064 173.512 203.132C173.512 201.2 172.324 200.336 170.86 200.336C170.332 200.336 169.948 200.468 169.552 200.684L169.768 198.14H173.092V197.192H168.808L168.532 201.32L169.12 201.68C169.624 201.344 169.996 201.164 170.584 201.164C171.688 201.164 172.408 201.908 172.408 203.168C172.408 204.452 171.568 205.244 170.536 205.244C169.516 205.244 168.88 204.776 168.376 204.272L167.836 204.992C168.424 205.58 169.264 206.156 170.632 206.156ZM184.416 196.904H175.968V197.756H184.416V196.904ZM182.616 205.856C182.148 205.856 182.052 205.772 182.052 205.364V201.104H185.424V200.24H174.924V201.104H177.96C177.78 203.348 177.336 205.22 174.78 206.192C174.984 206.348 175.236 206.672 175.344 206.888C178.104 205.772 178.68 203.672 178.908 201.104H181.152V205.376C181.152 206.396 181.44 206.708 182.508 206.708H184.224C185.268 206.708 185.508 206.144 185.604 204.104C185.364 204.032 184.98 203.876 184.776 203.708C184.716 205.544 184.644 205.856 184.164 205.856H182.616Z" fill="black"/>
<path d="M120.012 174.156C121.572 174.156 122.832 173.22 122.832 171.648C122.832 170.448 122.004 169.656 120.972 169.416V169.368C121.896 169.02 122.532 168.312 122.532 167.244C122.532 165.852 121.452 165.036 119.976 165.036C118.956 165.036 118.176 165.48 117.516 166.092L118.104 166.788C118.596 166.284 119.22 165.936 119.928 165.936C120.84 165.936 121.416 166.488 121.416 167.328C121.416 168.276 120.792 169.008 118.98 169.008V169.848C121.008 169.848 121.716 170.556 121.716 171.6C121.716 172.62 120.972 173.244 119.928 173.244C118.932 173.244 118.26 172.776 117.744 172.236L117.192 172.956C117.768 173.58 118.632 174.156 120.012 174.156ZM126.836 174.156C128.504 174.156 129.572 172.632 129.572 169.572C129.572 166.524 128.504 165.036 126.836 165.036C125.156 165.036 124.088 166.512 124.088 169.572C124.088 172.632 125.156 174.156 126.836 174.156ZM126.836 173.28C125.828 173.28 125.156 172.164 125.156 169.572C125.156 167.004 125.828 165.912 126.836 165.912C127.832 165.912 128.504 167.004 128.504 169.572C128.504 172.164 127.832 173.28 126.836 173.28ZM140.416 164.904H131.968V165.756H140.416V164.904ZM138.616 173.856C138.148 173.856 138.052 173.772 138.052 173.364V169.104H141.424V168.24H130.924V169.104H133.96C133.78 171.348 133.336 173.22 130.78 174.192C130.984 174.348 131.236 174.672 131.344 174.888C134.104 173.772 134.68 171.672 134.908 169.104H137.152V173.376C137.152 174.396 137.44 174.708 138.508 174.708H140.224C141.268 174.708 141.508 174.144 141.604 172.104C141.364 172.032 140.98 171.876 140.776 171.708C140.716 173.544 140.644 173.856 140.164 173.856H138.616Z" fill="black"/>
<path d="M205.357 221.487H210.181V220.575H208.417V212.679H207.577C207.097 212.967 206.533 213.171 205.753 213.315V214.011H207.313V220.575H205.357V221.487ZM214.294 221.643C215.962 221.643 217.03 220.119 217.03 217.059C217.03 214.011 215.962 212.523 214.294 212.523C212.614 212.523 211.546 213.999 211.546 217.059C211.546 220.119 212.614 221.643 214.294 221.643ZM214.294 220.767C213.286 220.767 212.614 219.651 212.614 217.059C212.614 214.491 213.286 213.399 214.294 213.399C215.29 213.399 215.962 214.491 215.962 217.059C215.962 219.651 215.29 220.767 214.294 220.767ZM227.874 212.391H219.426V213.243H227.874V212.391ZM226.074 221.343C225.606 221.343 225.51 221.259 225.51 220.851V216.591H228.882V215.727H218.382V216.591H221.418C221.238 218.835 220.794 220.707 218.238 221.679C218.442 221.835 218.694 222.159 218.802 222.375C221.562 221.259 222.138 219.159 222.366 216.591H224.61V220.863C224.61 221.883 224.898 222.195 225.966 222.195H227.682C228.726 222.195 228.966 221.631 229.062 219.591C228.822 219.519 228.438 219.363 228.234 219.195C228.174 221.031 228.102 221.343 227.622 221.343H226.074Z" fill="black"/>
<path d="M246.872 185H252.404V184.052H249.968C249.524 184.052 248.984 184.1 248.528 184.136C250.592 182.18 251.972 180.392 251.972 178.64C251.972 177.068 250.988 176.036 249.416 176.036C248.3 176.036 247.544 176.552 246.824 177.332L247.46 177.956C247.94 177.38 248.564 176.936 249.284 176.936C250.376 176.936 250.904 177.668 250.904 178.676C250.904 180.188 249.632 181.94 246.872 184.352V185ZM256.132 185.156C257.62 185.156 259.012 184.064 259.012 182.132C259.012 180.2 257.824 179.336 256.36 179.336C255.832 179.336 255.448 179.468 255.052 179.684L255.268 177.14H258.592V176.192H254.308L254.032 180.32L254.62 180.68C255.124 180.344 255.496 180.164 256.084 180.164C257.188 180.164 257.908 180.908 257.908 182.168C257.908 183.452 257.068 184.244 256.036 184.244C255.016 184.244 254.38 183.776 253.876 183.272L253.336 183.992C253.924 184.58 254.764 185.156 256.132 185.156ZM269.916 175.904H261.468V176.756H269.916V175.904ZM268.116 184.856C267.648 184.856 267.552 184.772 267.552 184.364V180.104H270.924V179.24H260.424V180.104H263.46C263.28 182.348 262.836 184.22 260.28 185.192C260.484 185.348 260.736 185.672 260.844 185.888C263.604 184.772 264.18 182.672 264.408 180.104H266.652V184.376C266.652 185.396 266.94 185.708 268.008 185.708H269.724C270.768 185.708 271.008 185.144 271.104 183.104C270.864 183.032 270.48 182.876 270.276 182.708C270.216 184.544 270.144 184.856 269.664 184.856H268.116Z" fill="black"/>
<path d="M86.2929 74.9007C86.6834 75.2912 87.3166 75.2912 87.7071 74.9007L94.0711 68.5367C94.4616 68.1462 94.4616 67.5131 94.0711 67.1225C93.6805 66.732 93.0474 66.732 92.6569 67.1225L87 72.7794L81.3431 67.1225C80.9526 66.732 80.3195 66.732 79.9289 67.1225C79.5384 67.5131 79.5384 68.1462 79.9289 68.5367L86.2929 74.9007ZM86 19.0216L86 74.1936L88 74.1936L88 19.0216L86 19.0216Z" fill="white"/>
<rect x="56" width="62" height="30.6122" fill="white"/>
<path d="M74.5442 12.2949H76.4362V13.4389H74.5442V12.2949ZM72.0032 12.2949H73.8402V13.4389H72.0032V12.2949ZM69.5172 12.2949H71.2992V13.4389H69.5172V12.2949ZM68.7692 11.6569V14.0769H77.2172V11.6569H68.7692ZM70.2212 16.6509H75.7542V17.4649H70.2212V16.6509ZM70.2212 18.0039H75.7542V18.8509H70.2212V18.0039ZM70.2212 15.2869H75.7542V16.1009H70.2212V15.2869ZM69.4182 14.7149V19.4229H76.5902V14.7149H69.4182ZM73.8622 19.9839C75.1052 20.3689 76.3482 20.8529 77.0632 21.2049L77.9212 20.7649C77.0852 20.4019 75.7432 19.9179 74.5002 19.5329L73.8622 19.9839ZM71.2992 19.5219C70.5072 19.9619 69.1762 20.3689 68.0322 20.5999C68.2192 20.7429 68.5052 21.0619 68.6372 21.2159C69.7482 20.9189 71.1342 20.4019 72.0362 19.8629L71.2992 19.5219ZM80.9792 11.8109V12.6249H83.6852C83.7072 13.0429 83.7512 13.5269 83.8282 14.0329L83.3442 13.9559C82.6732 17.0359 81.3202 19.2469 78.8892 20.5119C79.1092 20.6549 79.4722 20.9959 79.6262 21.1609C81.8152 19.8739 83.2012 17.8719 84.0152 15.0229C84.5102 17.1019 85.6762 19.5109 88.3822 21.1499C88.5252 20.9519 88.8552 20.5999 89.0422 20.4679C84.7302 17.9049 84.4772 13.7579 84.4772 11.8109H80.9792ZM92.3532 20.4899C93.7832 20.4899 94.9382 19.6319 94.9382 18.1909C94.9382 17.0909 94.1792 16.3649 93.2332 16.1449V16.1009C94.0802 15.7819 94.6632 15.1329 94.6632 14.1539C94.6632 12.8779 93.6732 12.1299 92.3202 12.1299C91.3852 12.1299 90.6702 12.5369 90.0652 13.0979L90.6042 13.7359C91.0552 13.2739 91.6272 12.9549 92.2762 12.9549C93.1122 12.9549 93.6402 13.4609 93.6402 14.2309C93.6402 15.0999 93.0682 15.7709 91.4072 15.7709V16.5409C93.2662 16.5409 93.9152 17.1899 93.9152 18.1469C93.9152 19.0819 93.2332 19.6539 92.2762 19.6539C91.3632 19.6539 90.7472 19.2249 90.2742 18.7299L89.7682 19.3899C90.2962 19.9619 91.0882 20.4899 92.3532 20.4899ZM104.439 12.3829V13.6039H97.8608V12.3829H104.439ZM105.253 14.3189V11.6679H97.0578V14.8799C97.0578 16.6069 96.9588 19.0379 95.9358 20.7539C96.1448 20.8309 96.5078 21.0399 96.6618 21.1719C97.7178 19.3789 97.8608 16.7059 97.8608 14.8689V14.3189H105.253ZM102.426 20.2699C101.821 20.2699 101.7 20.1929 101.7 19.7859V18.8839L105.704 18.2569L105.572 17.5859L101.7 18.1909V17.1789L104.934 16.6839L104.813 16.0239L101.7 16.4969V15.5289C102.624 15.3419 103.504 15.1219 104.197 14.8799L103.515 14.3519C102.371 14.7809 100.226 15.1769 98.3888 15.4189C98.4768 15.5729 98.5868 15.8369 98.6198 16.0129C99.3568 15.9249 100.138 15.8039 100.897 15.6719V16.6069L98.3338 17.0029L98.4548 17.6849L100.897 17.3109V18.3119L97.9708 18.7629L98.1028 19.4449L100.897 19.0049V19.7859C100.897 20.7649 101.216 21.0179 102.36 21.0179H104.593C105.539 21.0179 105.792 20.6549 105.902 19.3789C105.671 19.3239 105.352 19.2029 105.165 19.0709C105.11 20.0719 105.022 20.2699 104.527 20.2699H102.426Z" fill="black"/>
<path d="M258.293 145.975C258.683 146.365 259.317 146.365 259.707 145.975L266.071 139.611C266.462 139.22 266.462 138.587 266.071 138.197C265.681 137.806 265.047 137.806 264.657 138.197L259 143.854L253.343 138.197C252.953 137.806 252.319 137.806 251.929 138.197C251.538 138.587 251.538 139.22 251.929 139.611L258.293 145.975ZM258 60.1115L258 102.69L260 102.69L260 60.1115L258 60.1115ZM258 102.69L258 145.268L260 145.268L260 102.69L258 102.69Z" fill="white"/>
<path d="M43.2929 135.879C43.6834 136.27 44.3166 136.27 44.7071 135.879L51.0711 129.515C51.4616 129.125 51.4616 128.491 51.0711 128.101C50.6805 127.71 50.0474 127.71 49.6569 128.101L44 133.758L38.3431 128.101C37.9526 127.71 37.3195 127.71 36.9289 128.101C36.5384 128.491 36.5384 129.125 36.9289 129.515L43.2929 135.879ZM43 80L43 135.172L45 135.172L45 80L43 80Z" fill="white"/>
<rect x="13" y="67.049" width="62" height="30" fill="white"/>
<path d="M31.5442 79.1969H33.4362V80.3409H31.5442V79.1969ZM29.0032 79.1969H30.8402V80.3409H29.0032V79.1969ZM26.5172 79.1969H28.2992V80.3409H26.5172V79.1969ZM25.7692 78.5589V80.9789H34.2172V78.5589H25.7692ZM27.2212 83.5529H32.7542V84.3669H27.2212V83.5529ZM27.2212 84.9059H32.7542V85.7529H27.2212V84.9059ZM27.2212 82.1889H32.7542V83.0029H27.2212V82.1889ZM26.4182 81.6169V86.3249H33.5902V81.6169H26.4182ZM30.8622 86.8859C32.1052 87.2709 33.3482 87.7549 34.0632 88.1069L34.9212 87.6669C34.0852 87.3039 32.7432 86.8199 31.5002 86.4349L30.8622 86.8859ZM28.2992 86.4239C27.5072 86.8639 26.1762 87.2709 25.0322 87.5019C25.2192 87.6449 25.5052 87.9639 25.6372 88.1179C26.7482 87.8209 28.1342 87.3039 29.0362 86.7649L28.2992 86.4239ZM37.9792 78.7129V79.5269H40.6852C40.7072 79.9449 40.7512 80.4289 40.8282 80.9349L40.3442 80.8579C39.6732 83.9379 38.3202 86.1489 35.8892 87.4139C36.1092 87.5569 36.4722 87.8979 36.6262 88.0629C38.8152 86.7759 40.2012 84.7739 41.0152 81.9249C41.5102 84.0039 42.6762 86.4129 45.3822 88.0519C45.5252 87.8539 45.8552 87.5019 46.0422 87.3699C41.7302 84.8069 41.4772 80.6599 41.4772 78.7129H37.9792ZM49.3202 87.3919C50.6842 87.3919 51.9602 86.3909 51.9602 84.6199C51.9602 82.8489 50.8712 82.0569 49.5292 82.0569C49.0452 82.0569 48.6932 82.1779 48.3302 82.3759L48.5282 80.0439H51.5752V79.1749H47.6482L47.3952 82.9589L47.9342 83.2889C48.3962 82.9809 48.7372 82.8159 49.2762 82.8159C50.2882 82.8159 50.9482 83.4979 50.9482 84.6529C50.9482 85.8299 50.1782 86.5559 49.2322 86.5559C48.2972 86.5559 47.7142 86.1269 47.2522 85.6649L46.7572 86.3249C47.2962 86.8639 48.0662 87.3919 49.3202 87.3919ZM61.4388 79.2849V80.5059H54.8608V79.2849H61.4388ZM62.2528 81.2209V78.5699H54.0578V81.7819C54.0578 83.5089 53.9588 85.9399 52.9358 87.6559C53.1448 87.7329 53.5078 87.9419 53.6618 88.0739C54.7178 86.2809 54.8608 83.6079 54.8608 81.7709V81.2209H62.2528ZM59.4258 87.1719C58.8208 87.1719 58.6998 87.0949 58.6998 86.6879V85.7859L62.7038 85.1589L62.5718 84.4879L58.6998 85.0929V84.0809L61.9338 83.5859L61.8128 82.9259L58.6998 83.3989V82.4309C59.6238 82.2439 60.5038 82.0239 61.1968 81.7819L60.5148 81.2539C59.3708 81.6829 57.2258 82.0789 55.3888 82.3209C55.4768 82.4749 55.5868 82.7389 55.6198 82.9149C56.3568 82.8269 57.1378 82.7059 57.8968 82.5739V83.5089L55.3338 83.9049L55.4548 84.5869L57.8968 84.2129V85.2139L54.9708 85.6649L55.1028 86.3469L57.8968 85.9069V86.6879C57.8968 87.6669 58.2158 87.9199 59.3598 87.9199H61.5928C62.5388 87.9199 62.7918 87.5569 62.9018 86.2809C62.6708 86.2259 62.3518 86.1049 62.1648 85.9729C62.1098 86.9739 62.0218 87.1719 61.5268 87.1719H59.4258Z" fill="black"/>
<rect x="227" y="41" width="62" height="30" fill="white"/>
<path d="M245.765 53.5107H247.657V54.6547H245.765V53.5107ZM243.224 53.5107H245.061V54.6547H243.224V53.5107ZM240.738 53.5107H242.52V54.6547H240.738V53.5107ZM239.99 52.8727V55.2927H248.438V52.8727H239.99ZM241.442 57.8667H246.975V58.6807H241.442V57.8667ZM241.442 59.2197H246.975V60.0667H241.442V59.2197ZM241.442 56.5027H246.975V57.3167H241.442V56.5027ZM240.639 55.9307V60.6387H247.811V55.9307H240.639ZM245.083 61.1997C246.326 61.5847 247.569 62.0687 248.284 62.4207L249.142 61.9807C248.306 61.6177 246.964 61.1337 245.721 60.7487L245.083 61.1997ZM242.52 60.7377C241.728 61.1777 240.397 61.5847 239.253 61.8157C239.44 61.9587 239.726 62.2777 239.858 62.4317C240.969 62.1347 242.355 61.6177 243.257 61.0787L242.52 60.7377ZM252.2 53.0267V53.8407H254.906C254.928 54.2587 254.972 54.7427 255.049 55.2487L254.565 55.1717C253.894 58.2517 252.541 60.4627 250.11 61.7277C250.33 61.8707 250.693 62.2117 250.847 62.3767C253.036 61.0897 254.422 59.0877 255.236 56.2387C255.731 58.3177 256.897 60.7267 259.603 62.3657C259.746 62.1677 260.076 61.8157 260.263 61.6837C255.951 59.1207 255.698 54.9737 255.698 53.0267H252.2ZM263.893 57.3057C264.872 57.3057 265.356 57.9987 265.356 59.0877C265.356 60.1877 264.751 60.9247 263.981 60.9247C262.969 60.9247 262.364 60.0117 262.243 58.3397C262.738 57.6027 263.387 57.3057 263.893 57.3057ZM263.981 61.7057C265.235 61.7057 266.291 60.6497 266.291 59.0877C266.291 57.4047 265.422 56.5577 264.058 56.5577C263.42 56.5577 262.716 56.9317 262.221 57.5367C262.265 55.0287 263.2 54.1817 264.3 54.1817C264.795 54.1817 265.279 54.4127 265.598 54.7977L266.148 54.1707C265.708 53.6977 265.103 53.3457 264.267 53.3457C262.705 53.3457 261.286 54.5557 261.286 57.7127C261.286 60.3747 262.43 61.7057 263.981 61.7057ZM275.66 53.5987V54.8197H269.082V53.5987H275.66ZM276.474 55.5347V52.8837H268.279V56.0957C268.279 57.8227 268.18 60.2537 267.157 61.9697C267.366 62.0467 267.729 62.2557 267.883 62.3877C268.939 60.5947 269.082 57.9217 269.082 56.0847V55.5347H276.474ZM273.647 61.4857C273.042 61.4857 272.921 61.4087 272.921 61.0017V60.0997L276.925 59.4727L276.793 58.8017L272.921 59.4067V58.3947L276.155 57.8997L276.034 57.2397L272.921 57.7127V56.7447C273.845 56.5577 274.725 56.3377 275.418 56.0957L274.736 55.5677C273.592 55.9967 271.447 56.3927 269.61 56.6347C269.698 56.7887 269.808 57.0527 269.841 57.2287C270.578 57.1407 271.359 57.0197 272.118 56.8877V57.8227L269.555 58.2187L269.676 58.9007L272.118 58.5267V59.5277L269.192 59.9787L269.324 60.6607L272.118 60.2207V61.0017C272.118 61.9807 272.437 62.2337 273.581 62.2337H275.814C276.76 62.2337 277.013 61.8707 277.123 60.5947C276.892 60.5397 276.573 60.4187 276.386 60.2867C276.331 61.2877 276.243 61.4857 275.748 61.4857H273.647Z" fill="black"/>
<path d="M215.984 189.516C216.375 189.907 217.008 189.907 217.399 189.516L223.762 183.152C224.153 182.762 224.153 182.129 223.762 181.738C223.372 181.348 222.739 181.348 222.348 181.738L216.691 187.395L211.035 181.738C210.644 181.348 210.011 181.348 209.62 181.738C209.23 182.129 209.23 182.762 209.62 183.152L215.984 189.516ZM215.691 147.408L215.691 188.809L217.691 188.809L217.691 147.408L215.691 147.408Z" fill="white"/>
<path d="M172.293 167.441C172.683 167.832 173.317 167.832 173.707 167.441L180.071 161.077C180.462 160.687 180.462 160.054 180.071 159.663C179.681 159.273 179.047 159.273 178.657 159.663L173 165.32L167.343 159.663C166.953 159.273 166.319 159.273 165.929 159.663C165.538 160.054 165.538 160.687 165.929 161.077L172.293 167.441ZM172 103L172 166.734L174 166.734L174 103L172 103Z" fill="white"/>
<path d="M129.293 130.278C129.683 130.668 130.317 130.668 130.707 130.278L137.071 123.914C137.462 123.523 137.462 122.89 137.071 122.499C136.681 122.109 136.047 122.109 135.657 122.499L130 128.156L124.343 122.499C123.953 122.109 123.319 122.109 122.929 122.499C122.538 122.89 122.538 123.523 122.929 123.914L129.293 130.278ZM129 72L129 129.571L131 129.571L131 72L129 72Z" fill="white"/>
<rect x="138" y="81" width="71" height="30" fill="white"/>
<path d="M158.277 93.1481H160.169V94.2921H158.277V93.1481ZM155.736 93.1481H157.573V94.2921H155.736V93.1481ZM153.25 93.1481H155.032V94.2921H153.25V93.1481ZM152.502 92.5101V94.9301H160.95V92.5101H152.502ZM153.954 97.5041H159.487V98.3181H153.954V97.5041ZM153.954 98.8571H159.487V99.7041H153.954V98.8571ZM153.954 96.1401H159.487V96.9541H153.954V96.1401ZM153.151 95.5681V100.276H160.323V95.5681H153.151ZM157.595 100.837C158.838 101.222 160.081 101.706 160.796 102.058L161.654 101.618C160.818 101.255 159.476 100.771 158.233 100.386L157.595 100.837ZM155.032 100.375C154.24 100.815 152.909 101.222 151.765 101.453C151.952 101.596 152.238 101.915 152.37 102.069C153.481 101.772 154.867 101.255 155.769 100.716L155.032 100.375ZM164.712 92.6641V93.4781H167.418C167.44 93.8961 167.484 94.3801 167.561 94.8861L167.077 94.8091C166.406 97.8891 165.053 100.1 162.622 101.365C162.842 101.508 163.205 101.849 163.359 102.014C165.548 100.727 166.934 98.7251 167.748 95.8761C168.243 97.9551 169.409 100.364 172.115 102.003C172.258 101.805 172.588 101.453 172.775 101.321C168.463 98.7581 168.21 94.6111 168.21 92.6641H164.712ZM174.15 101.2H178.572V100.364H176.955V93.1261H176.185C175.745 93.3901 175.228 93.5771 174.513 93.7091V94.3471H175.943V100.364H174.15V101.2ZM182.342 101.343C183.871 101.343 184.85 99.9461 184.85 97.1411C184.85 94.3471 183.871 92.9831 182.342 92.9831C180.802 92.9831 179.823 94.3361 179.823 97.1411C179.823 99.9461 180.802 101.343 182.342 101.343ZM182.342 100.54C181.418 100.54 180.802 99.5171 180.802 97.1411C180.802 94.7871 181.418 93.7861 182.342 93.7861C183.255 93.7861 183.871 94.7871 183.871 97.1411C183.871 99.5171 183.255 100.54 182.342 100.54ZM194.273 93.2361V94.4571H187.695V93.2361H194.273ZM195.087 95.1721V92.5211H186.892V95.7331C186.892 97.4601 186.793 99.8911 185.77 101.607C185.979 101.684 186.342 101.893 186.496 102.025C187.552 100.232 187.695 97.5591 187.695 95.7221V95.1721H195.087ZM192.26 101.123C191.655 101.123 191.534 101.046 191.534 100.639V99.7371L195.538 99.1101L195.406 98.4391L191.534 99.0441V98.0321L194.768 97.5371L194.647 96.8771L191.534 97.3501V96.3821C192.458 96.1951 193.338 95.9751 194.031 95.7331L193.349 95.2051C192.205 95.6341 190.06 96.0301 188.223 96.2721C188.311 96.4261 188.421 96.6901 188.454 96.8661C189.191 96.7781 189.972 96.6571 190.731 96.5251V97.4601L188.168 97.8561L188.289 98.5381L190.731 98.1641V99.1651L187.805 99.6161L187.937 100.298L190.731 99.8581V100.639C190.731 101.618 191.05 101.871 192.194 101.871H194.427C195.373 101.871 195.626 101.508 195.736 100.232C195.505 100.177 195.186 100.056 194.999 99.9241C194.944 100.925 194.856 101.123 194.361 101.123H192.26Z" fill="black"/>
<rect x="99" y="42" width="62" height="30" fill="white"/>
<path d="M117.544 54.1478H119.436V55.2918H117.544V54.1478ZM115.003 54.1478H116.84V55.2918H115.003V54.1478ZM112.517 54.1478H114.299V55.2918H112.517V54.1478ZM111.769 53.5098V55.9298H120.217V53.5098H111.769ZM113.221 58.5038H118.754V59.3178H113.221V58.5038ZM113.221 59.8568H118.754V60.7038H113.221V59.8568ZM113.221 57.1398H118.754V57.9538H113.221V57.1398ZM112.418 56.5678V61.2758H119.59V56.5678H112.418ZM116.862 61.8368C118.105 62.2218 119.348 62.7058 120.063 63.0578L120.921 62.6178C120.085 62.2548 118.743 61.7708 117.5 61.3858L116.862 61.8368ZM114.299 61.3748C113.507 61.8148 112.176 62.2218 111.032 62.4528C111.219 62.5958 111.505 62.9148 111.637 63.0688C112.748 62.7718 114.134 62.2548 115.036 61.7158L114.299 61.3748ZM123.979 53.6638V54.4778H126.685C126.707 54.8958 126.751 55.3798 126.828 55.8858L126.344 55.8088C125.673 58.8888 124.32 61.0998 121.889 62.3648C122.109 62.5078 122.472 62.8488 122.626 63.0138C124.815 61.7268 126.201 59.7248 127.015 56.8758C127.51 58.9548 128.676 61.3638 131.382 63.0028C131.525 62.8048 131.855 62.4528 132.042 62.3208C127.73 59.7578 127.477 55.6108 127.477 53.6638H123.979ZM135.32 62.3428C136.684 62.3428 137.96 61.3418 137.96 59.5708C137.96 57.7998 136.871 57.0078 135.529 57.0078C135.045 57.0078 134.693 57.1288 134.33 57.3268L134.528 54.9948H137.575V54.1258H133.648L133.395 57.9098L133.934 58.2398C134.396 57.9318 134.737 57.7668 135.276 57.7668C136.288 57.7668 136.948 58.4488 136.948 59.6038C136.948 60.7808 136.178 61.5068 135.232 61.5068C134.297 61.5068 133.714 61.0778 133.252 60.6158L132.757 61.2758C133.296 61.8148 134.066 62.3428 135.32 62.3428ZM147.439 54.2358V55.4568H140.861V54.2358H147.439ZM148.253 56.1718V53.5208H140.058V56.7328C140.058 58.4598 139.959 60.8908 138.936 62.6068C139.145 62.6838 139.508 62.8928 139.662 63.0248C140.718 61.2318 140.861 58.5588 140.861 56.7218V56.1718H148.253ZM145.426 62.1228C144.821 62.1228 144.7 62.0458 144.7 61.6388V60.7368L148.704 60.1098L148.572 59.4388L144.7 60.0438V59.0318L147.934 58.5368L147.813 57.8768L144.7 58.3498V57.3818C145.624 57.1948 146.504 56.9748 147.197 56.7328L146.515 56.2048C145.371 56.6338 143.226 57.0298 141.389 57.2718C141.477 57.4258 141.587 57.6898 141.62 57.8658C142.357 57.7778 143.138 57.6568 143.897 57.5248V58.4598L141.334 58.8558L141.455 59.5378L143.897 59.1638V60.1648L140.971 60.6158L141.103 61.2978L143.897 60.8578V61.6388C143.897 62.6178 144.216 62.8708 145.36 62.8708H147.593C148.539 62.8708 148.792 62.5078 148.902 61.2318C148.671 61.1768 148.352 61.0558 148.165 60.9238C148.11 61.9248 148.022 62.1228 147.527 62.1228H145.426Z" fill="black"/>
<rect x="186" y="123" width="61" height="30" fill="white"/>
<path d="M200.994 134.948H202.886V136.092H200.994V134.948ZM198.453 134.948H200.29V136.092H198.453V134.948ZM195.967 134.948H197.749V136.092H195.967V134.948ZM195.219 134.31V136.73H203.667V134.31H195.219ZM196.671 139.304H202.204V140.118H196.671V139.304ZM196.671 140.657H202.204V141.504H196.671V140.657ZM196.671 137.94H202.204V138.754H196.671V137.94ZM195.868 137.368V142.076H203.04V137.368H195.868ZM200.312 142.637C201.555 143.022 202.798 143.506 203.513 143.858L204.371 143.418C203.535 143.055 202.193 142.571 200.95 142.186L200.312 142.637ZM197.749 142.175C196.957 142.615 195.626 143.022 194.482 143.253C194.669 143.396 194.955 143.715 195.087 143.869C196.198 143.572 197.584 143.055 198.486 142.516L197.749 142.175ZM207.429 134.464V135.278H210.135C210.157 135.696 210.201 136.18 210.278 136.686L209.794 136.609C209.123 139.689 207.77 141.9 205.339 143.165C205.559 143.308 205.922 143.649 206.076 143.814C208.265 142.527 209.651 140.525 210.465 137.676C210.96 139.755 212.126 142.164 214.832 143.803C214.975 143.605 215.305 143.253 215.492 143.121C211.18 140.558 210.927 136.411 210.927 134.464H207.429ZM216.867 143H221.289V142.164H219.672V134.926H218.902C218.462 135.19 217.945 135.377 217.23 135.509V136.147H218.66V142.164H216.867V143ZM224.871 143.143C226.235 143.143 227.511 142.142 227.511 140.371C227.511 138.6 226.422 137.808 225.08 137.808C224.596 137.808 224.244 137.929 223.881 138.127L224.079 135.795H227.126V134.926H223.199L222.946 138.71L223.485 139.04C223.947 138.732 224.288 138.567 224.827 138.567C225.839 138.567 226.499 139.249 226.499 140.404C226.499 141.581 225.729 142.307 224.783 142.307C223.848 142.307 223.265 141.878 222.803 141.416L222.308 142.076C222.847 142.615 223.617 143.143 224.871 143.143ZM236.99 135.036V136.257H230.412V135.036H236.99ZM237.804 136.972V134.321H229.609V137.533C229.609 139.26 229.51 141.691 228.487 143.407C228.696 143.484 229.059 143.693 229.213 143.825C230.269 142.032 230.412 139.359 230.412 137.522V136.972H237.804ZM234.977 142.923C234.372 142.923 234.251 142.846 234.251 142.439V141.537L238.255 140.91L238.123 140.239L234.251 140.844V139.832L237.485 139.337L237.364 138.677L234.251 139.15V138.182C235.175 137.995 236.055 137.775 236.748 137.533L236.066 137.005C234.922 137.434 232.777 137.83 230.94 138.072C231.028 138.226 231.138 138.49 231.171 138.666C231.908 138.578 232.689 138.457 233.448 138.325V139.26L230.885 139.656L231.006 140.338L233.448 139.964V140.965L230.522 141.416L230.654 142.098L233.448 141.658V142.439C233.448 143.418 233.767 143.671 234.911 143.671H237.144C238.09 143.671 238.343 143.308 238.453 142.032C238.222 141.977 237.903 141.856 237.716 141.724C237.661 142.725 237.573 142.923 237.078 142.923H234.977Z" fill="black"/>
</svg>
