<svg width="289" height="302" viewBox="0 0 289 302" fill="none" xmlns="http://www.w3.org/2000/svg">
<path d="M1 8.72961V229.217H263.725" stroke="black"/>
<path d="M1 201.596H259.501" stroke="black" stroke-opacity="0.1"/>
<path d="M1 91.593H259.501" stroke="black" stroke-opacity="0.1"/>
<path d="M1 229.217H259.501" stroke="black" stroke-opacity="0.1"/>
<path d="M1 173.975H259.501" stroke="black" stroke-opacity="0.1"/>
<path d="M1 63.9719H259.501" stroke="black" stroke-opacity="0.1"/>
<path d="M1 146.354H259.501" stroke="black" stroke-opacity="0.1"/>
<path d="M1 36.3507H259.501" stroke="black" stroke-opacity="0.1"/>
<path d="M1 118.732H259.501" stroke="black" stroke-opacity="0.1"/>
<path d="M1 8.72961H259.501" stroke="black" stroke-opacity="0.1"/>
<path d="M1 8.72961V229.217" stroke="black" stroke-opacity="0.1"/>
<path d="M44.1279 8.72961V229.217" stroke="black" stroke-opacity="0.1"/>
<path d="M86.9883 8.72961V229.217" stroke="black" stroke-opacity="0.1"/>
<path d="M130.116 8.72961V229.217" stroke="black" stroke-opacity="0.1"/>
<path d="M173.244 8.72961V229.217" stroke="black" stroke-opacity="0.1"/>
<path d="M216.372 8.72961V229.217" stroke="black" stroke-opacity="0.1"/>
<path d="M259.232 8.72961V229.217" stroke="black" stroke-opacity="0.1"/>
<path d="M41.8202 238.701L41.3642 239.049C41.7722 239.421 42.2762 239.937 42.5042 240.273L43.0922 239.781C42.8642 239.481 42.4082 239.037 42.0122 238.701H44.2802V237.981H41.2082C41.3282 237.741 41.4362 237.501 41.5322 237.261L40.7522 237.045C40.3442 238.041 39.6722 239.001 38.9402 239.661C39.1322 239.805 39.4442 240.093 39.5642 240.249C39.9962 239.829 40.4162 239.301 40.7882 238.701H41.8202ZM43.8482 243.105V244.221H40.9682C41.0282 243.873 41.0882 243.477 41.1482 243.105H43.8482ZM44.7242 241.245H47.8682V242.349H44.7242V241.245ZM44.7242 244.221V243.105H48.7442V240.489H39.9722V241.245H43.8482V242.349H40.3922C40.2962 243.201 40.1282 244.269 39.9722 244.989H43.1402C42.1562 246.009 40.6322 246.933 39.2402 247.389C39.4442 247.557 39.6842 247.881 39.8162 248.097C41.2442 247.545 42.7922 246.513 43.8482 245.325V248.085H44.7242V244.989H48.1802C48.0602 246.069 47.9282 246.537 47.7722 246.705C47.6642 246.789 47.5442 246.801 47.3402 246.801C47.1242 246.801 46.5722 246.801 45.9842 246.741C46.1162 246.969 46.2122 247.305 46.2242 247.569C46.8362 247.593 47.4242 247.593 47.7362 247.569C48.0602 247.557 48.2882 247.485 48.4802 247.269C48.7922 246.981 48.9482 246.249 49.1162 244.593C49.1282 244.461 49.1402 244.221 49.1402 244.221H44.7242ZM46.1522 237.993C46.2602 237.741 46.3682 237.501 46.4642 237.237L45.6362 237.045C45.3482 237.909 44.8082 238.725 44.1482 239.277C44.3402 239.385 44.6762 239.661 44.8202 239.805C45.1442 239.493 45.4562 239.121 45.7322 238.701H47.0762L46.5602 239.121C46.9922 239.469 47.5202 239.973 47.7962 240.285L48.3842 239.781C48.1202 239.469 47.6162 239.037 47.1962 238.701H49.7762V237.993H46.1522ZM42.0801 262.161H46.9041V261.249H45.1401V253.353H44.3001C43.8201 253.641 43.2561 253.845 42.4761 253.989V254.685H44.0361V261.249H42.0801V262.161ZM41.2322 267.177C40.6322 268.989 39.6722 270.789 38.6042 271.953C38.7602 272.169 39.0002 272.661 39.0722 272.853C39.4802 272.397 39.8642 271.857 40.2362 271.269V278.085H41.0882V269.733C41.4602 268.989 41.7842 268.197 42.0482 267.405L41.2322 267.177ZM46.9922 274.905H44.9642V273.045H46.9922V274.905ZM48.1682 271.053V270.369H46.3202V269.013H45.5882V270.369H43.7882V271.053H45.5882V272.373H44.2802V275.565H47.7002V272.373H46.3202V271.053H48.1682ZM43.2962 276.561V268.629H48.5762V276.561H43.2962ZM42.4682 267.849V278.061H43.2962V277.353H48.5762V277.965H49.4282V267.849H42.4682ZM41.6282 288.489C41.7242 287.781 41.7602 287.097 41.7602 286.473H47.2442V288.489H41.6282ZM47.2442 283.629V285.621H41.7602V283.629H47.2442ZM48.1682 282.753H40.8602V286.425C40.8602 288.333 40.6682 290.769 38.7602 292.449C38.9402 292.581 39.3002 292.905 39.4202 293.097C40.5842 292.077 41.1842 290.721 41.4842 289.365H47.2442V291.765C47.2442 292.029 47.1482 292.113 46.8722 292.125C46.5962 292.125 45.6362 292.137 44.6402 292.101C44.7842 292.353 44.9522 292.773 45.0122 293.025C46.2962 293.025 47.0882 293.013 47.5442 292.857C47.9882 292.713 48.1682 292.401 48.1682 291.777V282.753Z" fill="black"/>
<path d="M84.4569 238.701L84.0009 239.049C84.4089 239.421 84.9129 239.937 85.1409 240.273L85.7289 239.781C85.5009 239.481 85.0449 239.037 84.6489 238.701H86.9169V237.981H83.8449C83.9649 237.741 84.0729 237.501 84.1689 237.261L83.3889 237.045C82.9809 238.041 82.3089 239.001 81.5769 239.661C81.7689 239.805 82.0809 240.093 82.2009 240.249C82.6329 239.829 83.0529 239.301 83.4249 238.701H84.4569ZM86.4849 243.105V244.221H83.6049C83.6649 243.873 83.7249 243.477 83.7849 243.105H86.4849ZM87.3609 241.245H90.5049V242.349H87.3609V241.245ZM87.3609 244.221V243.105H91.3809V240.489H82.6089V241.245H86.4849V242.349H83.0289C82.9329 243.201 82.7649 244.269 82.6089 244.989H85.7769C84.7929 246.009 83.2689 246.933 81.8769 247.389C82.0809 247.557 82.3209 247.881 82.4529 248.097C83.8809 247.545 85.4289 246.513 86.4849 245.325V248.085H87.3609V244.989H90.8169C90.6969 246.069 90.5649 246.537 90.4089 246.705C90.3009 246.789 90.1809 246.801 89.9769 246.801C89.7609 246.801 89.2089 246.801 88.6209 246.741C88.7529 246.969 88.8489 247.305 88.8609 247.569C89.4729 247.593 90.0609 247.593 90.3729 247.569C90.6969 247.557 90.9249 247.485 91.1169 247.269C91.4289 246.981 91.5849 246.249 91.7529 244.593C91.7649 244.461 91.7769 244.221 91.7769 244.221H87.3609ZM88.7889 237.993C88.8969 237.741 89.0049 237.501 89.1009 237.237L88.2729 237.045C87.9849 237.909 87.4449 238.725 86.7849 239.277C86.9769 239.385 87.3129 239.661 87.4569 239.805C87.7809 239.493 88.0929 239.121 88.3689 238.701H89.7129L89.1969 239.121C89.6289 239.469 90.1569 239.973 90.4329 240.285L91.0209 239.781C90.7569 239.469 90.2529 239.037 89.8329 238.701H92.4129V237.993H88.7889ZM84.1888 262.161H89.7208V261.213H87.2848C86.8408 261.213 86.3008 261.261 85.8448 261.297C87.9088 259.341 89.2888 257.553 89.2888 255.801C89.2888 254.229 88.3048 253.197 86.7328 253.197C85.6168 253.197 84.8608 253.713 84.1408 254.493L84.7768 255.117C85.2568 254.541 85.8808 254.097 86.6008 254.097C87.6928 254.097 88.2208 254.829 88.2208 255.837C88.2208 257.349 86.9488 259.101 84.1888 261.513V262.161ZM83.8689 267.177C83.2689 268.989 82.3089 270.789 81.2409 271.953C81.3969 272.169 81.6369 272.661 81.7089 272.853C82.1169 272.397 82.5009 271.857 82.8729 271.269V278.085H83.7249V269.733C84.0969 268.989 84.4209 268.197 84.6849 267.405L83.8689 267.177ZM89.6289 274.905H87.6009V273.045H89.6289V274.905ZM90.8049 271.053V270.369H88.9569V269.013H88.2249V270.369H86.4249V271.053H88.2249V272.373H86.9169V275.565H90.3369V272.373H88.9569V271.053H90.8049ZM85.9329 276.561V268.629H91.2129V276.561H85.9329ZM85.1049 267.849V278.061H85.9329V277.353H91.2129V277.965H92.0649V267.849H85.1049ZM84.2649 288.489C84.3609 287.781 84.3969 287.097 84.3969 286.473H89.8809V288.489H84.2649ZM89.8809 283.629V285.621H84.3969V283.629H89.8809ZM90.8049 282.753H83.4969V286.425C83.4969 288.333 83.3049 290.769 81.3969 292.449C81.5769 292.581 81.9369 292.905 82.0569 293.097C83.2209 292.077 83.8209 290.721 84.1209 289.365H89.8809V291.765C89.8809 292.029 89.7849 292.113 89.5089 292.125C89.2329 292.125 88.2729 292.137 87.2769 292.101C87.4209 292.353 87.5889 292.773 87.6489 293.025C88.9329 293.025 89.7249 293.013 90.1809 292.857C90.6249 292.713 90.8049 292.401 90.8049 291.777V282.753Z" fill="black"/>
<path d="M127.049 238.701L126.593 239.049C127.001 239.421 127.505 239.937 127.733 240.273L128.321 239.781C128.093 239.481 127.637 239.037 127.241 238.701H129.509V237.981H126.437C126.557 237.741 126.665 237.501 126.761 237.261L125.981 237.045C125.573 238.041 124.901 239.001 124.169 239.661C124.361 239.805 124.673 240.093 124.793 240.249C125.225 239.829 125.645 239.301 126.017 238.701H127.049ZM129.077 243.105V244.221H126.197C126.257 243.873 126.317 243.477 126.377 243.105H129.077ZM129.953 241.245H133.097V242.349H129.953V241.245ZM129.953 244.221V243.105H133.973V240.489H125.201V241.245H129.077V242.349H125.621C125.525 243.201 125.357 244.269 125.201 244.989H128.369C127.385 246.009 125.861 246.933 124.469 247.389C124.673 247.557 124.913 247.881 125.045 248.097C126.473 247.545 128.021 246.513 129.077 245.325V248.085H129.953V244.989H133.409C133.289 246.069 133.157 246.537 133.001 246.705C132.893 246.789 132.773 246.801 132.569 246.801C132.353 246.801 131.801 246.801 131.213 246.741C131.345 246.969 131.441 247.305 131.453 247.569C132.065 247.593 132.653 247.593 132.965 247.569C133.289 247.557 133.517 247.485 133.709 247.269C134.021 246.981 134.177 246.249 134.345 244.593C134.357 244.461 134.369 244.221 134.369 244.221H129.953ZM131.381 237.993C131.489 237.741 131.597 237.501 131.693 237.237L130.865 237.045C130.577 237.909 130.037 238.725 129.377 239.277C129.569 239.385 129.905 239.661 130.049 239.805C130.373 239.493 130.685 239.121 130.961 238.701H132.305L131.789 239.121C132.221 239.469 132.749 239.973 133.025 240.285L133.613 239.781C133.349 239.469 132.845 239.037 132.425 238.701H135.005V237.993H131.381ZM129.421 262.317C130.981 262.317 132.241 261.381 132.241 259.809C132.241 258.609 131.413 257.817 130.381 257.577V257.529C131.305 257.181 131.941 256.473 131.941 255.405C131.941 254.013 130.861 253.197 129.385 253.197C128.365 253.197 127.585 253.641 126.925 254.253L127.513 254.949C128.005 254.445 128.629 254.097 129.337 254.097C130.249 254.097 130.825 254.649 130.825 255.489C130.825 256.437 130.201 257.169 128.389 257.169V258.009C130.417 258.009 131.125 258.717 131.125 259.761C131.125 260.781 130.381 261.405 129.337 261.405C128.341 261.405 127.669 260.937 127.153 260.397L126.601 261.117C127.177 261.741 128.041 262.317 129.421 262.317ZM126.461 267.177C125.861 268.989 124.901 270.789 123.833 271.953C123.989 272.169 124.229 272.661 124.301 272.853C124.709 272.397 125.093 271.857 125.465 271.269V278.085H126.317V269.733C126.689 268.989 127.013 268.197 127.277 267.405L126.461 267.177ZM132.221 274.905H130.193V273.045H132.221V274.905ZM133.397 271.053V270.369H131.549V269.013H130.817V270.369H129.017V271.053H130.817V272.373H129.509V275.565H132.929V272.373H131.549V271.053H133.397ZM128.525 276.561V268.629H133.805V276.561H128.525ZM127.697 267.849V278.061H128.525V277.353H133.805V277.965H134.657V267.849H127.697ZM126.857 288.489C126.953 287.781 126.989 287.097 126.989 286.473H132.473V288.489H126.857ZM132.473 283.629V285.621H126.989V283.629H132.473ZM133.397 282.753H126.089V286.425C126.089 288.333 125.897 290.769 123.989 292.449C124.169 292.581 124.529 292.905 124.649 293.097C125.813 292.077 126.413 290.721 126.713 289.365H132.473V291.765C132.473 292.029 132.377 292.113 132.101 292.125C131.825 292.125 130.865 292.137 129.869 292.101C130.013 292.353 130.181 292.773 130.241 293.025C131.525 293.025 132.317 293.013 132.773 292.857C133.217 292.713 133.397 292.401 133.397 291.777V282.753Z" fill="black"/>
<path d="M169.641 238.701L169.185 239.049C169.593 239.421 170.097 239.937 170.325 240.273L170.913 239.781C170.685 239.481 170.229 239.037 169.833 238.701H172.101V237.981H169.029C169.149 237.741 169.257 237.501 169.353 237.261L168.573 237.045C168.165 238.041 167.493 239.001 166.761 239.661C166.953 239.805 167.265 240.093 167.385 240.249C167.817 239.829 168.237 239.301 168.609 238.701H169.641ZM171.669 243.105V244.221H168.789C168.849 243.873 168.909 243.477 168.969 243.105H171.669ZM172.545 241.245H175.689V242.349H172.545V241.245ZM172.545 244.221V243.105H176.565V240.489H167.793V241.245H171.669V242.349H168.213C168.117 243.201 167.949 244.269 167.793 244.989H170.961C169.977 246.009 168.453 246.933 167.061 247.389C167.265 247.557 167.505 247.881 167.637 248.097C169.065 247.545 170.613 246.513 171.669 245.325V248.085H172.545V244.989H176.001C175.881 246.069 175.749 246.537 175.593 246.705C175.485 246.789 175.365 246.801 175.161 246.801C174.945 246.801 174.393 246.801 173.805 246.741C173.937 246.969 174.033 247.305 174.045 247.569C174.657 247.593 175.245 247.593 175.557 247.569C175.881 247.557 176.109 247.485 176.301 247.269C176.613 246.981 176.769 246.249 176.937 244.593C176.949 244.461 176.961 244.221 176.961 244.221H172.545ZM173.973 237.993C174.081 237.741 174.189 237.501 174.285 237.237L173.457 237.045C173.169 237.909 172.629 238.725 171.969 239.277C172.161 239.385 172.497 239.661 172.641 239.805C172.965 239.493 173.277 239.121 173.553 238.701H174.897L174.381 239.121C174.813 239.469 175.341 239.973 175.617 240.285L176.205 239.781C175.941 239.469 175.437 239.037 175.017 238.701H177.597V237.993H173.973ZM170.225 258.861L172.229 255.861C172.481 255.429 172.721 254.997 172.937 254.565H172.985C172.961 255.021 172.925 255.729 172.925 256.161V258.861H170.225ZM172.925 262.161H173.957V259.737H175.121V258.861H173.957V253.353H172.745L169.085 259.017V259.737H172.925V262.161ZM169.053 267.177C168.453 268.989 167.493 270.789 166.425 271.953C166.581 272.169 166.821 272.661 166.893 272.853C167.301 272.397 167.685 271.857 168.057 271.269V278.085H168.909V269.733C169.281 268.989 169.605 268.197 169.869 267.405L169.053 267.177ZM174.813 274.905H172.785V273.045H174.813V274.905ZM175.989 271.053V270.369H174.141V269.013H173.409V270.369H171.609V271.053H173.409V272.373H172.101V275.565H175.521V272.373H174.141V271.053H175.989ZM171.117 276.561V268.629H176.397V276.561H171.117ZM170.289 267.849V278.061H171.117V277.353H176.397V277.965H177.249V267.849H170.289ZM169.449 288.489C169.545 287.781 169.581 287.097 169.581 286.473H175.065V288.489H169.449ZM175.065 283.629V285.621H169.581V283.629H175.065ZM175.989 282.753H168.681V286.425C168.681 288.333 168.489 290.769 166.581 292.449C166.761 292.581 167.121 292.905 167.241 293.097C168.405 292.077 169.005 290.721 169.305 289.365H175.065V291.765C175.065 292.029 174.969 292.113 174.693 292.125C174.417 292.125 173.457 292.137 172.461 292.101C172.605 292.353 172.773 292.773 172.833 293.025C174.117 293.025 174.909 293.013 175.365 292.857C175.809 292.713 175.989 292.401 175.989 291.777V282.753Z" fill="black"/>
<path d="M212.233 238.701L211.777 239.049C212.185 239.421 212.689 239.937 212.917 240.273L213.505 239.781C213.277 239.481 212.821 239.037 212.425 238.701H214.693V237.981H211.621C211.741 237.741 211.849 237.501 211.945 237.261L211.165 237.045C210.757 238.041 210.085 239.001 209.353 239.661C209.545 239.805 209.857 240.093 209.977 240.249C210.409 239.829 210.829 239.301 211.201 238.701H212.233ZM214.261 243.105V244.221H211.381C211.441 243.873 211.501 243.477 211.561 243.105H214.261ZM215.137 241.245H218.281V242.349H215.137V241.245ZM215.137 244.221V243.105H219.157V240.489H210.385V241.245H214.261V242.349H210.805C210.709 243.201 210.541 244.269 210.385 244.989H213.553C212.569 246.009 211.045 246.933 209.653 247.389C209.857 247.557 210.097 247.881 210.229 248.097C211.657 247.545 213.205 246.513 214.261 245.325V248.085H215.137V244.989H218.593C218.473 246.069 218.341 246.537 218.185 246.705C218.077 246.789 217.957 246.801 217.753 246.801C217.537 246.801 216.985 246.801 216.397 246.741C216.529 246.969 216.625 247.305 216.637 247.569C217.249 247.593 217.837 247.593 218.149 247.569C218.473 247.557 218.701 247.485 218.893 247.269C219.205 246.981 219.361 246.249 219.529 244.593C219.541 244.461 219.553 244.221 219.553 244.221H215.137ZM216.565 237.993C216.673 237.741 216.781 237.501 216.877 237.237L216.049 237.045C215.761 237.909 215.221 238.725 214.561 239.277C214.753 239.385 215.089 239.661 215.233 239.805C215.557 239.493 215.869 239.121 216.145 238.701H217.489L216.973 239.121C217.405 239.469 217.933 239.973 218.209 240.285L218.797 239.781C218.533 239.469 218.029 239.037 217.609 238.701H220.189V237.993H216.565ZM214.569 262.317C216.057 262.317 217.449 261.225 217.449 259.293C217.449 257.361 216.261 256.497 214.797 256.497C214.269 256.497 213.885 256.629 213.489 256.845L213.705 254.301H217.029V253.353H212.745L212.469 257.481L213.057 257.841C213.561 257.505 213.933 257.325 214.521 257.325C215.625 257.325 216.345 258.069 216.345 259.329C216.345 260.613 215.505 261.405 214.473 261.405C213.453 261.405 212.817 260.937 212.313 260.433L211.773 261.153C212.361 261.741 213.201 262.317 214.569 262.317ZM211.645 267.177C211.045 268.989 210.085 270.789 209.017 271.953C209.173 272.169 209.413 272.661 209.485 272.853C209.893 272.397 210.277 271.857 210.649 271.269V278.085H211.501V269.733C211.873 268.989 212.197 268.197 212.461 267.405L211.645 267.177ZM217.405 274.905H215.377V273.045H217.405V274.905ZM218.581 271.053V270.369H216.733V269.013H216.001V270.369H214.201V271.053H216.001V272.373H214.693V275.565H218.113V272.373H216.733V271.053H218.581ZM213.709 276.561V268.629H218.989V276.561H213.709ZM212.881 267.849V278.061H213.709V277.353H218.989V277.965H219.841V267.849H212.881ZM212.041 288.489C212.137 287.781 212.173 287.097 212.173 286.473H217.657V288.489H212.041ZM217.657 283.629V285.621H212.173V283.629H217.657ZM218.581 282.753H211.273V286.425C211.273 288.333 211.081 290.769 209.173 292.449C209.353 292.581 209.713 292.905 209.833 293.097C210.997 292.077 211.597 290.721 211.897 289.365H217.657V291.765C217.657 292.029 217.561 292.113 217.285 292.125C217.009 292.125 216.049 292.137 215.053 292.101C215.197 292.353 215.365 292.773 215.425 293.025C216.709 293.025 217.501 293.013 217.957 292.857C218.401 292.713 218.581 292.401 218.581 291.777V282.753Z" fill="black"/>
<path d="M257.25 238.701L256.794 239.049C257.202 239.421 257.706 239.937 257.934 240.273L258.522 239.781C258.294 239.481 257.838 239.037 257.442 238.701H259.71V237.981H256.638C256.758 237.741 256.866 237.501 256.962 237.261L256.182 237.045C255.774 238.041 255.102 239.001 254.37 239.661C254.562 239.805 254.874 240.093 254.994 240.249C255.426 239.829 255.846 239.301 256.218 238.701H257.25ZM259.278 243.105V244.221H256.398C256.458 243.873 256.518 243.477 256.578 243.105H259.278ZM260.154 241.245H263.298V242.349H260.154V241.245ZM260.154 244.221V243.105H264.174V240.489H255.402V241.245H259.278V242.349H255.822C255.726 243.201 255.558 244.269 255.402 244.989H258.57C257.586 246.009 256.062 246.933 254.67 247.389C254.874 247.557 255.114 247.881 255.246 248.097C256.674 247.545 258.222 246.513 259.278 245.325V248.085H260.154V244.989H263.61C263.49 246.069 263.358 246.537 263.202 246.705C263.094 246.789 262.974 246.801 262.77 246.801C262.554 246.801 262.002 246.801 261.414 246.741C261.546 246.969 261.642 247.305 261.654 247.569C262.266 247.593 262.854 247.593 263.166 247.569C263.49 247.557 263.718 247.485 263.91 247.269C264.222 246.981 264.378 246.249 264.546 244.593C264.558 244.461 264.57 244.221 264.57 244.221H260.154ZM261.582 237.993C261.69 237.741 261.798 237.501 261.894 237.237L261.066 237.045C260.778 237.909 260.238 238.725 259.578 239.277C259.77 239.385 260.106 239.661 260.25 239.805C260.574 239.493 260.886 239.121 261.162 238.701H262.506L261.99 239.121C262.422 239.469 262.95 239.973 263.226 240.285L263.814 239.781C263.55 239.469 263.046 239.037 262.626 238.701H265.206V237.993H261.582ZM259.97 257.517C261.038 257.517 261.566 258.273 261.566 259.461C261.566 260.661 260.906 261.465 260.066 261.465C258.962 261.465 258.302 260.469 258.17 258.645C258.71 257.841 259.418 257.517 259.97 257.517ZM260.066 262.317C261.434 262.317 262.586 261.165 262.586 259.461C262.586 257.625 261.638 256.701 260.15 256.701C259.454 256.701 258.686 257.109 258.146 257.769C258.194 255.033 259.214 254.109 260.414 254.109C260.954 254.109 261.482 254.361 261.83 254.781L262.43 254.097C261.95 253.581 261.29 253.197 260.378 253.197C258.674 253.197 257.126 254.517 257.126 257.961C257.126 260.865 258.374 262.317 260.066 262.317ZM256.662 267.177C256.062 268.989 255.102 270.789 254.034 271.953C254.19 272.169 254.43 272.661 254.502 272.853C254.91 272.397 255.294 271.857 255.666 271.269V278.085H256.518V269.733C256.89 268.989 257.214 268.197 257.478 267.405L256.662 267.177ZM262.422 274.905H260.394V273.045H262.422V274.905ZM263.598 271.053V270.369H261.75V269.013H261.018V270.369H259.218V271.053H261.018V272.373H259.71V275.565H263.13V272.373H261.75V271.053H263.598ZM258.726 276.561V268.629H264.006V276.561H258.726ZM257.898 267.849V278.061H258.726V277.353H264.006V277.965H264.858V267.849H257.898ZM257.058 288.489C257.154 287.781 257.19 287.097 257.19 286.473H262.674V288.489H257.058ZM262.674 283.629V285.621H257.19V283.629H262.674ZM263.598 282.753H256.29V286.425C256.29 288.333 256.098 290.769 254.19 292.449C254.37 292.581 254.73 292.905 254.85 293.097C256.014 292.077 256.614 290.721 256.914 289.365H262.674V291.765C262.674 292.029 262.578 292.113 262.302 292.125C262.026 292.125 261.066 292.137 260.07 292.101C260.214 292.353 260.382 292.773 260.442 293.025C261.726 293.025 262.518 293.013 262.974 292.857C263.418 292.713 263.598 292.401 263.598 291.777V282.753Z" fill="black"/>
<path d="M44.3959 146.064V147.564C44.858 147.564 45.2943 147.351 45.5785 146.987L44.3959 146.064ZM87.524 90.7943L88.7222 89.8919C88.4415 89.5192 88.0034 89.2984 87.5369 89.2944C87.0703 89.2904 86.6285 89.5037 86.3415 89.8715L87.524 90.7943ZM130.655 148.064L129.457 148.966C129.527 149.059 129.608 149.144 129.697 149.218L130.655 148.064ZM173.378 183.5L172.421 184.655C172.527 184.743 172.645 184.816 172.771 184.871L173.378 183.5ZM216.372 202.544L215.765 203.915C216.329 204.165 216.988 204.044 217.426 203.611L216.372 202.544ZM279.979 139.737L263.221 144.114L275.39 156.438L279.979 139.737ZM45.5785 146.987L88.7066 91.7171L86.3415 89.8715L43.2134 145.141L45.5785 146.987ZM86.3258 91.6967L129.457 148.966L131.853 147.161L88.7222 89.8919L86.3258 91.6967ZM129.697 149.218L172.421 184.655L174.336 182.345L131.613 146.909L129.697 149.218ZM172.771 184.871L215.765 203.915L216.98 201.172L173.986 182.129L172.771 184.871ZM217.426 203.611L271.427 150.289L269.319 148.155L215.319 201.476L217.426 203.611ZM44.3959 144.564H1V147.564H44.3959V144.564Z" fill="#FF7A00"/>
<circle cx="44.1133" cy="146.22" r="5" fill="#FF7A00"/>
<circle cx="86.7764" cy="91.8507" r="5" fill="#FF7A00"/>
<circle cx="129.904" cy="147" r="5" fill="#FF7A00"/>
<circle cx="173.765" cy="183" r="5" fill="#FF7A00"/>
<path d="M221.893 202.6C221.893 205.361 219.654 207.6 216.893 207.6C214.131 207.6 211.893 205.361 211.893 202.6C211.893 199.839 214.131 197.6 216.893 197.6C219.654 197.6 221.893 199.839 221.893 202.6Z" fill="#FF7A00"/>
<path d="M264.493 160.062C264.493 162.823 262.255 165.062 259.493 165.062C256.732 165.062 254.493 162.823 254.493 160.062C254.493 157.301 256.732 155.062 259.493 155.062C262.255 155.062 264.493 157.301 264.493 160.062Z" fill="#FF7A00"/>
<path d="M34.5117 167.156C36.0718 167.156 37.3318 166.22 37.3318 164.648C37.3318 163.448 36.5038 162.656 35.4718 162.416V162.368C36.3958 162.02 37.0318 161.312 37.0318 160.244C37.0318 158.852 35.9518 158.036 34.4758 158.036C33.4558 158.036 32.6758 158.48 32.0158 159.092L32.6038 159.788C33.0958 159.284 33.7198 158.936 34.4277 158.936C35.3398 158.936 35.9158 159.488 35.9158 160.328C35.9158 161.276 35.2918 162.008 33.4798 162.008V162.848C35.5078 162.848 36.2158 163.556 36.2158 164.6C36.2158 165.62 35.4718 166.244 34.4277 166.244C33.4318 166.244 32.7598 165.776 32.2438 165.236L31.6918 165.956C32.2678 166.58 33.1318 167.156 34.5117 167.156ZM41.336 167.156C43.004 167.156 44.072 165.632 44.072 162.572C44.072 159.524 43.004 158.036 41.336 158.036C39.656 158.036 38.588 159.512 38.588 162.572C38.588 165.632 39.656 167.156 41.336 167.156ZM41.336 166.28C40.328 166.28 39.656 165.164 39.656 162.572C39.656 160.004 40.328 158.912 41.336 158.912C42.332 158.912 43.004 160.004 43.004 162.572C43.004 165.164 42.332 166.28 41.336 166.28ZM54.9163 157.904H46.4683V158.756H54.9163V157.904ZM53.1163 166.856C52.6483 166.856 52.5523 166.772 52.5523 166.364V162.104H55.9243V161.24H45.4243V162.104H48.4603C48.2803 164.348 47.8363 166.22 45.2803 167.192C45.4843 167.348 45.7363 167.672 45.8443 167.888C48.6043 166.772 49.1803 164.672 49.4083 162.104H51.6523V166.376C51.6523 167.396 51.9403 167.708 53.0083 167.708H54.7243C55.7683 167.708 56.0083 167.144 56.1043 165.104C55.8643 165.032 55.4803 164.876 55.2763 164.708C55.2163 166.544 55.1443 166.856 54.6643 166.856H53.1163Z" fill="black"/>
<path d="M76.9758 125.156C78.4638 125.156 79.8558 124.064 79.8558 122.132C79.8558 120.2 78.6678 119.336 77.2038 119.336C76.6758 119.336 76.2918 119.468 75.8958 119.684L76.1118 117.14H79.4358V116.192H75.1518L74.8758 120.32L75.4638 120.68C75.9678 120.344 76.3398 120.164 76.9277 120.164C78.0318 120.164 78.7518 120.908 78.7518 122.168C78.7518 123.452 77.9118 124.244 76.8798 124.244C75.8598 124.244 75.2238 123.776 74.7198 123.272L74.1798 123.992C74.7678 124.58 75.6077 125.156 76.9758 125.156ZM83.836 125.156C85.504 125.156 86.572 123.632 86.572 120.572C86.572 117.524 85.504 116.036 83.836 116.036C82.156 116.036 81.088 117.512 81.088 120.572C81.088 123.632 82.156 125.156 83.836 125.156ZM83.836 124.28C82.828 124.28 82.156 123.164 82.156 120.572C82.156 118.004 82.828 116.912 83.836 116.912C84.832 116.912 85.504 118.004 85.504 120.572C85.504 123.164 84.832 124.28 83.836 124.28ZM97.4163 115.904H88.9683V116.756H97.4163V115.904ZM95.6163 124.856C95.1483 124.856 95.0523 124.772 95.0523 124.364V120.104H98.4243V119.24H87.9243V120.104H90.9603C90.7803 122.348 90.3363 124.22 87.7803 125.192C87.9843 125.348 88.2363 125.672 88.3443 125.888C91.1043 124.772 91.6803 122.672 91.9083 120.104H94.1523V124.376C94.1523 125.396 94.4403 125.708 95.5083 125.708H97.2243C98.2683 125.708 98.5083 125.144 98.6043 123.104C98.3643 123.032 97.9803 122.876 97.7763 122.708C97.7163 124.544 97.6443 124.856 97.1643 124.856H95.6163Z" fill="black"/>
<path d="M161.9 206H166.724V205.088H164.96V197.192H164.12C163.64 197.48 163.076 197.684 162.296 197.828V198.524H163.856V205.088H161.9V206ZM170.632 206.156C172.12 206.156 173.512 205.064 173.512 203.132C173.512 201.2 172.324 200.336 170.86 200.336C170.332 200.336 169.948 200.468 169.552 200.684L169.768 198.14H173.092V197.192H168.808L168.532 201.32L169.12 201.68C169.624 201.344 169.996 201.164 170.584 201.164C171.688 201.164 172.408 201.908 172.408 203.168C172.408 204.452 171.568 205.244 170.536 205.244C169.516 205.244 168.88 204.776 168.376 204.272L167.836 204.992C168.424 205.58 169.264 206.156 170.632 206.156ZM184.416 196.904H175.968V197.756H184.416V196.904ZM182.616 205.856C182.148 205.856 182.052 205.772 182.052 205.364V201.104H185.424V200.24H174.924V201.104H177.96C177.78 203.348 177.336 205.22 174.78 206.192C174.984 206.348 175.236 206.672 175.344 206.888C178.104 205.772 178.68 203.672 178.908 201.104H181.152V205.376C181.152 206.396 181.44 206.708 182.508 206.708H184.224C185.268 206.708 185.508 206.144 185.604 204.104C185.364 204.032 184.98 203.876 184.776 203.708C184.716 205.544 184.644 205.856 184.164 205.856H182.616Z" fill="black"/>
<path d="M120.012 174.156C121.572 174.156 122.832 173.22 122.832 171.648C122.832 170.448 122.004 169.656 120.972 169.416V169.368C121.896 169.02 122.532 168.312 122.532 167.244C122.532 165.852 121.452 165.036 119.976 165.036C118.956 165.036 118.176 165.48 117.516 166.092L118.104 166.788C118.596 166.284 119.22 165.936 119.928 165.936C120.84 165.936 121.416 166.488 121.416 167.328C121.416 168.276 120.792 169.008 118.98 169.008V169.848C121.008 169.848 121.716 170.556 121.716 171.6C121.716 172.62 120.972 173.244 119.928 173.244C118.932 173.244 118.26 172.776 117.744 172.236L117.192 172.956C117.768 173.58 118.632 174.156 120.012 174.156ZM126.836 174.156C128.504 174.156 129.572 172.632 129.572 169.572C129.572 166.524 128.504 165.036 126.836 165.036C125.156 165.036 124.088 166.512 124.088 169.572C124.088 172.632 125.156 174.156 126.836 174.156ZM126.836 173.28C125.828 173.28 125.156 172.164 125.156 169.572C125.156 167.004 125.828 165.912 126.836 165.912C127.832 165.912 128.504 167.004 128.504 169.572C128.504 172.164 127.832 173.28 126.836 173.28ZM140.416 164.904H131.968V165.756H140.416V164.904ZM138.616 173.856C138.148 173.856 138.052 173.772 138.052 173.364V169.104H141.424V168.24H130.924V169.104H133.96C133.78 171.348 133.336 173.22 130.78 174.192C130.984 174.348 131.236 174.672 131.344 174.888C134.104 173.772 134.68 171.672 134.908 169.104H137.152V173.376C137.152 174.396 137.44 174.708 138.508 174.708H140.224C141.268 174.708 141.508 174.144 141.604 172.104C141.364 172.032 140.98 171.876 140.776 171.708C140.716 173.544 140.644 173.856 140.164 173.856H138.616Z" fill="black"/>
<path d="M205.357 221.487H210.181V220.575H208.417V212.679H207.577C207.097 212.967 206.533 213.171 205.753 213.315V214.011H207.313V220.575H205.357V221.487ZM214.294 221.643C215.962 221.643 217.03 220.119 217.03 217.059C217.03 214.011 215.962 212.523 214.294 212.523C212.614 212.523 211.546 213.999 211.546 217.059C211.546 220.119 212.614 221.643 214.294 221.643ZM214.294 220.767C213.286 220.767 212.614 219.651 212.614 217.059C212.614 214.491 213.286 213.399 214.294 213.399C215.29 213.399 215.962 214.491 215.962 217.059C215.962 219.651 215.29 220.767 214.294 220.767ZM227.874 212.391H219.426V213.243H227.874V212.391ZM226.074 221.343C225.606 221.343 225.51 221.259 225.51 220.851V216.591H228.882V215.727H218.382V216.591H221.418C221.238 218.835 220.794 220.707 218.238 221.679C218.442 221.835 218.694 222.159 218.802 222.375C221.562 221.259 222.138 219.159 222.366 216.591H224.61V220.863C224.61 221.883 224.898 222.195 225.966 222.195H227.682C228.726 222.195 228.966 221.631 229.062 219.591C228.822 219.519 228.438 219.363 228.234 219.195C228.174 221.031 228.102 221.343 227.622 221.343H226.074Z" fill="black"/>
<path d="M246.872 185H252.404V184.052H249.968C249.524 184.052 248.984 184.1 248.528 184.136C250.592 182.18 251.972 180.392 251.972 178.64C251.972 177.068 250.988 176.036 249.416 176.036C248.3 176.036 247.544 176.552 246.824 177.332L247.46 177.956C247.94 177.38 248.564 176.936 249.284 176.936C250.376 176.936 250.904 177.668 250.904 178.676C250.904 180.188 249.632 181.94 246.872 184.352V185ZM256.132 185.156C257.62 185.156 259.012 184.064 259.012 182.132C259.012 180.2 257.824 179.336 256.36 179.336C255.832 179.336 255.448 179.468 255.052 179.684L255.268 177.14H258.592V176.192H254.308L254.032 180.32L254.62 180.68C255.124 180.344 255.496 180.164 256.084 180.164C257.188 180.164 257.908 180.908 257.908 182.168C257.908 183.452 257.068 184.244 256.036 184.244C255.016 184.244 254.38 183.776 253.876 183.272L253.336 183.992C253.924 184.58 254.764 185.156 256.132 185.156ZM269.916 175.904H261.468V176.756H269.916V175.904ZM268.116 184.856C267.648 184.856 267.552 184.772 267.552 184.364V180.104H270.924V179.24H260.424V180.104H263.46C263.28 182.348 262.836 184.22 260.28 185.192C260.484 185.348 260.736 185.672 260.844 185.888C263.604 184.772 264.18 182.672 264.408 180.104H266.652V184.376C266.652 185.396 266.94 185.708 268.008 185.708H269.724C270.768 185.708 271.008 185.144 271.104 183.104C270.864 183.032 270.48 182.876 270.276 182.708C270.216 184.544 270.144 184.856 269.664 184.856H268.116Z" fill="black"/>
<path d="M86.2929 74.9007C86.6834 75.2912 87.3166 75.2912 87.7071 74.9007L94.0711 68.5368C94.4616 68.1462 94.4616 67.5131 94.0711 67.1225C93.6805 66.732 93.0474 66.732 92.6569 67.1225L87 72.7794L81.3431 67.1225C80.9526 66.732 80.3195 66.732 79.9289 67.1225C79.5384 67.5131 79.5384 68.1462 79.9289 68.5368L86.2929 74.9007ZM86 19.0216L86 74.1936L88 74.1936L88 19.0216L86 19.0216Z" fill="white"/>
<rect x="56" width="62" height="30.6122" fill="white"/>
<path d="M74.5442 12.2949H76.4362V13.4389H74.5442V12.2949ZM72.0032 12.2949H73.8402V13.4389H72.0032V12.2949ZM69.5172 12.2949H71.2992V13.4389H69.5172V12.2949ZM68.7692 11.6569V14.0769H77.2172V11.6569H68.7692ZM70.2212 16.6509H75.7542V17.4649H70.2212V16.6509ZM70.2212 18.0039H75.7542V18.8509H70.2212V18.0039ZM70.2212 15.2869H75.7542V16.1009H70.2212V15.2869ZM69.4182 14.7149V19.4229H76.5902V14.7149H69.4182ZM73.8622 19.9839C75.1052 20.3689 76.3482 20.8529 77.0632 21.2049L77.9212 20.7649C77.0852 20.4019 75.7432 19.9179 74.5002 19.5329L73.8622 19.9839ZM71.2992 19.5219C70.5072 19.9619 69.1762 20.3689 68.0322 20.5999C68.2192 20.7429 68.5052 21.0619 68.6372 21.2159C69.7482 20.9189 71.1342 20.4019 72.0362 19.8629L71.2992 19.5219ZM80.9792 11.8109V12.6249H83.6852C83.7072 13.0429 83.7512 13.5269 83.8282 14.0329L83.3442 13.9559C82.6732 17.0359 81.3202 19.2469 78.8892 20.5119C79.1092 20.6549 79.4722 20.9959 79.6262 21.1609C81.8152 19.8739 83.2012 17.8719 84.0152 15.0229C84.5102 17.1019 85.6762 19.5109 88.3822 21.1499C88.5252 20.9519 88.8552 20.5999 89.0422 20.4679C84.7302 17.9049 84.4772 13.7579 84.4772 11.8109H80.9792ZM92.3532 20.4899C93.7832 20.4899 94.9382 19.6319 94.9382 18.1909C94.9382 17.0909 94.1792 16.3649 93.2332 16.1449V16.1009C94.0802 15.7819 94.6632 15.1329 94.6632 14.1539C94.6632 12.8779 93.6732 12.1299 92.3202 12.1299C91.3852 12.1299 90.6702 12.5369 90.0652 13.0979L90.6042 13.7359C91.0552 13.2739 91.6272 12.9549 92.2762 12.9549C93.1122 12.9549 93.6402 13.4609 93.6402 14.2309C93.6402 15.0999 93.0682 15.7709 91.4072 15.7709V16.5409C93.2662 16.5409 93.9152 17.1899 93.9152 18.1469C93.9152 19.0819 93.2332 19.6539 92.2762 19.6539C91.3632 19.6539 90.7472 19.2249 90.2742 18.7299L89.7682 19.3899C90.2962 19.9619 91.0882 20.4899 92.3532 20.4899ZM104.439 12.3829V13.6039H97.8608V12.3829H104.439ZM105.253 14.3189V11.6679H97.0578V14.8799C97.0578 16.6069 96.9588 19.0379 95.9358 20.7539C96.1448 20.8309 96.5078 21.0399 96.6618 21.1719C97.7178 19.3789 97.8608 16.7059 97.8608 14.8689V14.3189H105.253ZM102.426 20.2699C101.821 20.2699 101.7 20.1929 101.7 19.7859V18.8839L105.704 18.2569L105.572 17.5859L101.7 18.1909V17.1789L104.934 16.6839L104.813 16.0239L101.7 16.4969V15.5289C102.624 15.3419 103.504 15.1219 104.197 14.8799L103.515 14.3519C102.371 14.7809 100.226 15.1769 98.3888 15.4189C98.4768 15.5729 98.5868 15.8369 98.6198 16.0129C99.3568 15.9249 100.138 15.8039 100.897 15.6719V16.6069L98.3338 17.0029L98.4548 17.6849L100.897 17.3109V18.3119L97.9708 18.7629L98.1028 19.4449L100.897 19.0049V19.7859C100.897 20.7649 101.216 21.0179 102.36 21.0179H104.593C105.539 21.0179 105.792 20.6549 105.902 19.3789C105.671 19.3239 105.352 19.2029 105.165 19.0709C105.11 20.0719 105.022 20.2699 104.527 20.2699H102.426Z" fill="black"/>
<path d="M258.293 145.975C258.683 146.365 259.317 146.365 259.707 145.975L266.071 139.611C266.462 139.22 266.462 138.587 266.071 138.197C265.681 137.806 265.047 137.806 264.657 138.197L259 143.854L253.343 138.197C252.953 137.806 252.319 137.806 251.929 138.197C251.538 138.587 251.538 139.22 251.929 139.611L258.293 145.975ZM258 60.1115L258 102.69L260 102.69L260 60.1115L258 60.1115ZM258 102.69L258 145.268L260 145.268L260 102.69L258 102.69Z" fill="white"/>
<path d="M43.2929 135.879C43.6834 136.27 44.3166 136.27 44.7071 135.879L51.0711 129.515C51.4616 129.125 51.4616 128.491 51.0711 128.101C50.6805 127.71 50.0474 127.71 49.6569 128.101L44 133.758L38.3431 128.101C37.9526 127.71 37.3195 127.71 36.9289 128.101C36.5384 128.491 36.5384 129.125 36.9289 129.515L43.2929 135.879ZM43 80L43 135.172L45 135.172L45 80L43 80Z" fill="white"/>
<rect x="13" y="67.049" width="62" height="30" fill="white"/>
<path d="M31.5442 79.1969H33.4362V80.3409H31.5442V79.1969ZM29.0032 79.1969H30.8402V80.3409H29.0032V79.1969ZM26.5172 79.1969H28.2992V80.3409H26.5172V79.1969ZM25.7692 78.5589V80.9789H34.2172V78.5589H25.7692ZM27.2212 83.5529H32.7542V84.3669H27.2212V83.5529ZM27.2212 84.9059H32.7542V85.7529H27.2212V84.9059ZM27.2212 82.1889H32.7542V83.0029H27.2212V82.1889ZM26.4182 81.6169V86.3249H33.5902V81.6169H26.4182ZM30.8622 86.8859C32.1052 87.2709 33.3482 87.7549 34.0632 88.1069L34.9212 87.6669C34.0852 87.3039 32.7432 86.8199 31.5002 86.4349L30.8622 86.8859ZM28.2992 86.4239C27.5072 86.8639 26.1762 87.2709 25.0322 87.5019C25.2192 87.6449 25.5052 87.9639 25.6372 88.1179C26.7482 87.8209 28.1342 87.3039 29.0362 86.7649L28.2992 86.4239ZM37.9792 78.7129V79.5269H40.6852C40.7072 79.9449 40.7512 80.4289 40.8282 80.9349L40.3442 80.8579C39.6732 83.9379 38.3202 86.1489 35.8892 87.4139C36.1092 87.5569 36.4722 87.8979 36.6262 88.0629C38.8152 86.7759 40.2012 84.7739 41.0152 81.9249C41.5102 84.0039 42.6762 86.4129 45.3822 88.0519C45.5252 87.8539 45.8552 87.5019 46.0422 87.3699C41.7302 84.8069 41.4772 80.6599 41.4772 78.7129H37.9792ZM49.3202 87.3919C50.6842 87.3919 51.9602 86.3909 51.9602 84.6199C51.9602 82.8489 50.8712 82.0569 49.5292 82.0569C49.0452 82.0569 48.6932 82.1779 48.3302 82.3759L48.5282 80.0439H51.5752V79.1749H47.6482L47.3952 82.9589L47.9342 83.2889C48.3962 82.9809 48.7372 82.8159 49.2762 82.8159C50.2882 82.8159 50.9482 83.4979 50.9482 84.6529C50.9482 85.8299 50.1782 86.5559 49.2322 86.5559C48.2972 86.5559 47.7142 86.1269 47.2522 85.6649L46.7572 86.3249C47.2962 86.8639 48.0662 87.3919 49.3202 87.3919ZM61.4388 79.2849V80.5059H54.8608V79.2849H61.4388ZM62.2528 81.2209V78.5699H54.0578V81.7819C54.0578 83.5089 53.9588 85.9399 52.9358 87.6559C53.1448 87.7329 53.5078 87.9419 53.6618 88.0739C54.7178 86.2809 54.8608 83.6079 54.8608 81.7709V81.2209H62.2528ZM59.4258 87.1719C58.8208 87.1719 58.6998 87.0949 58.6998 86.6879V85.7859L62.7038 85.1589L62.5718 84.4879L58.6998 85.0929V84.0809L61.9338 83.5859L61.8128 82.9259L58.6998 83.3989V82.4309C59.6238 82.2439 60.5038 82.0239 61.1968 81.7819L60.5148 81.2539C59.3708 81.6829 57.2258 82.0789 55.3888 82.3209C55.4768 82.4749 55.5868 82.7389 55.6198 82.9149C56.3568 82.8269 57.1378 82.7059 57.8968 82.5739V83.5089L55.3338 83.9049L55.4548 84.5869L57.8968 84.2129V85.2139L54.9708 85.6649L55.1028 86.3469L57.8968 85.9069V86.6879C57.8968 87.6669 58.2158 87.9199 59.3598 87.9199H61.5928C62.5388 87.9199 62.7918 87.5569 62.9018 86.2809C62.6708 86.2259 62.3518 86.1049 62.1648 85.9729C62.1098 86.9739 62.0218 87.1719 61.5268 87.1719H59.4258Z" fill="black"/>
<rect x="227" y="41" width="62" height="30" fill="white"/>
<path d="M245.765 53.5107H247.657V54.6547H245.765V53.5107ZM243.224 53.5107H245.061V54.6547H243.224V53.5107ZM240.738 53.5107H242.52V54.6547H240.738V53.5107ZM239.99 52.8727V55.2927H248.438V52.8727H239.99ZM241.442 57.8667H246.975V58.6807H241.442V57.8667ZM241.442 59.2197H246.975V60.0667H241.442V59.2197ZM241.442 56.5027H246.975V57.3167H241.442V56.5027ZM240.639 55.9307V60.6387H247.811V55.9307H240.639ZM245.083 61.1997C246.326 61.5847 247.569 62.0687 248.284 62.4207L249.142 61.9807C248.306 61.6177 246.964 61.1337 245.721 60.7487L245.083 61.1997ZM242.52 60.7377C241.728 61.1777 240.397 61.5847 239.253 61.8157C239.44 61.9587 239.726 62.2777 239.858 62.4317C240.969 62.1347 242.355 61.6177 243.257 61.0787L242.52 60.7377ZM252.2 53.0267V53.8407H254.906C254.928 54.2587 254.972 54.7427 255.049 55.2487L254.565 55.1717C253.894 58.2517 252.541 60.4627 250.11 61.7277C250.33 61.8707 250.693 62.2117 250.847 62.3767C253.036 61.0897 254.422 59.0877 255.236 56.2387C255.731 58.3177 256.897 60.7267 259.603 62.3657C259.746 62.1677 260.076 61.8157 260.263 61.6837C255.951 59.1207 255.698 54.9737 255.698 53.0267H252.2ZM263.893 57.3057C264.872 57.3057 265.356 57.9987 265.356 59.0877C265.356 60.1877 264.751 60.9247 263.981 60.9247C262.969 60.9247 262.364 60.0117 262.243 58.3397C262.738 57.6027 263.387 57.3057 263.893 57.3057ZM263.981 61.7057C265.235 61.7057 266.291 60.6497 266.291 59.0877C266.291 57.4047 265.422 56.5577 264.058 56.5577C263.42 56.5577 262.716 56.9317 262.221 57.5367C262.265 55.0287 263.2 54.1817 264.3 54.1817C264.795 54.1817 265.279 54.4127 265.598 54.7977L266.148 54.1707C265.708 53.6977 265.103 53.3457 264.267 53.3457C262.705 53.3457 261.286 54.5557 261.286 57.7127C261.286 60.3747 262.43 61.7057 263.981 61.7057ZM275.66 53.5987V54.8197H269.082V53.5987H275.66ZM276.474 55.5347V52.8837H268.279V56.0957C268.279 57.8227 268.18 60.2537 267.157 61.9697C267.366 62.0467 267.729 62.2557 267.883 62.3877C268.939 60.5947 269.082 57.9217 269.082 56.0847V55.5347H276.474ZM273.647 61.4857C273.042 61.4857 272.921 61.4087 272.921 61.0017V60.0997L276.925 59.4727L276.793 58.8017L272.921 59.4067V58.3947L276.155 57.8997L276.034 57.2397L272.921 57.7127V56.7447C273.845 56.5577 274.725 56.3377 275.418 56.0957L274.736 55.5677C273.592 55.9967 271.447 56.3927 269.61 56.6347C269.698 56.7887 269.808 57.0527 269.841 57.2287C270.578 57.1407 271.359 57.0197 272.118 56.8877V57.8227L269.555 58.2187L269.676 58.9007L272.118 58.5267V59.5277L269.192 59.9787L269.324 60.6607L272.118 60.2207V61.0017C272.118 61.9807 272.437 62.2337 273.581 62.2337H275.814C276.76 62.2337 277.013 61.8707 277.123 60.5947C276.892 60.5397 276.573 60.4187 276.386 60.2867C276.331 61.2877 276.243 61.4857 275.748 61.4857H273.647Z" fill="black"/>
<path d="M215.984 189.516C216.375 189.907 217.008 189.907 217.399 189.516L223.762 183.152C224.153 182.762 224.153 182.129 223.762 181.738C223.372 181.348 222.739 181.348 222.348 181.738L216.691 187.395L211.035 181.738C210.644 181.348 210.011 181.348 209.62 181.738C209.23 182.129 209.23 182.762 209.62 183.152L215.984 189.516ZM215.691 147.408L215.691 188.809L217.691 188.809L217.691 147.408L215.691 147.408Z" fill="white"/>
<path d="M172.293 167.441C172.683 167.832 173.317 167.832 173.707 167.441L180.071 161.077C180.462 160.687 180.462 160.054 180.071 159.663C179.681 159.273 179.047 159.273 178.657 159.663L173 165.32L167.343 159.663C166.953 159.273 166.319 159.273 165.929 159.663C165.538 160.054 165.538 160.687 165.929 161.077L172.293 167.441ZM172 103L172 166.734L174 166.734L174 103L172 103Z" fill="white"/>
<path d="M129.293 130.278C129.683 130.668 130.317 130.668 130.707 130.278L137.071 123.914C137.462 123.523 137.462 122.89 137.071 122.499C136.681 122.109 136.047 122.109 135.657 122.499L130 128.156L124.343 122.499C123.953 122.109 123.319 122.109 122.929 122.499C122.538 122.89 122.538 123.523 122.929 123.914L129.293 130.278ZM129 72L129 129.571L131 129.571L131 72L129 72Z" fill="white"/>
<rect x="138" y="81" width="71" height="30" fill="white"/>
<path d="M158.277 93.1481H160.169V94.2921H158.277V93.1481ZM155.736 93.1481H157.573V94.2921H155.736V93.1481ZM153.25 93.1481H155.032V94.2921H153.25V93.1481ZM152.502 92.5101V94.9301H160.95V92.5101H152.502ZM153.954 97.5041H159.487V98.3181H153.954V97.5041ZM153.954 98.8571H159.487V99.7041H153.954V98.8571ZM153.954 96.1401H159.487V96.9541H153.954V96.1401ZM153.151 95.5681V100.276H160.323V95.5681H153.151ZM157.595 100.837C158.838 101.222 160.081 101.706 160.796 102.058L161.654 101.618C160.818 101.255 159.476 100.771 158.233 100.386L157.595 100.837ZM155.032 100.375C154.24 100.815 152.909 101.222 151.765 101.453C151.952 101.596 152.238 101.915 152.37 102.069C153.481 101.772 154.867 101.255 155.769 100.716L155.032 100.375ZM164.712 92.6641V93.4781H167.418C167.44 93.8961 167.484 94.3801 167.561 94.8861L167.077 94.8091C166.406 97.8891 165.053 100.1 162.622 101.365C162.842 101.508 163.205 101.849 163.359 102.014C165.548 100.727 166.934 98.7251 167.748 95.8761C168.243 97.9551 169.409 100.364 172.115 102.003C172.258 101.805 172.588 101.453 172.775 101.321C168.463 98.7581 168.21 94.6111 168.21 92.6641H164.712ZM174.15 101.2H178.572V100.364H176.955V93.1261H176.185C175.745 93.3901 175.228 93.5771 174.513 93.7091V94.3471H175.943V100.364H174.15V101.2ZM182.342 101.343C183.871 101.343 184.85 99.9461 184.85 97.1411C184.85 94.3471 183.871 92.9831 182.342 92.9831C180.802 92.9831 179.823 94.3361 179.823 97.1411C179.823 99.9461 180.802 101.343 182.342 101.343ZM182.342 100.54C181.418 100.54 180.802 99.5171 180.802 97.1411C180.802 94.7871 181.418 93.7861 182.342 93.7861C183.255 93.7861 183.871 94.7871 183.871 97.1411C183.871 99.5171 183.255 100.54 182.342 100.54ZM194.273 93.2361V94.4571H187.695V93.2361H194.273ZM195.087 95.1721V92.5211H186.892V95.7331C186.892 97.4601 186.793 99.8911 185.77 101.607C185.979 101.684 186.342 101.893 186.496 102.025C187.552 100.232 187.695 97.5591 187.695 95.7221V95.1721H195.087ZM192.26 101.123C191.655 101.123 191.534 101.046 191.534 100.639V99.7371L195.538 99.1101L195.406 98.4391L191.534 99.0441V98.0321L194.768 97.5371L194.647 96.8771L191.534 97.3501V96.3821C192.458 96.1951 193.338 95.9751 194.031 95.7331L193.349 95.2051C192.205 95.6341 190.06 96.0301 188.223 96.2721C188.311 96.4261 188.421 96.6901 188.454 96.8661C189.191 96.7781 189.972 96.6571 190.731 96.5251V97.4601L188.168 97.8561L188.289 98.5381L190.731 98.1641V99.1651L187.805 99.6161L187.937 100.298L190.731 99.8581V100.639C190.731 101.618 191.05 101.871 192.194 101.871H194.427C195.373 101.871 195.626 101.508 195.736 100.232C195.505 100.177 195.186 100.056 194.999 99.9241C194.944 100.925 194.856 101.123 194.361 101.123H192.26Z" fill="black"/>
<rect x="99" y="42" width="62" height="30" fill="white"/>
<path d="M117.544 54.1478H119.436V55.2918H117.544V54.1478ZM115.003 54.1478H116.84V55.2918H115.003V54.1478ZM112.517 54.1478H114.299V55.2918H112.517V54.1478ZM111.769 53.5098V55.9298H120.217V53.5098H111.769ZM113.221 58.5038H118.754V59.3178H113.221V58.5038ZM113.221 59.8568H118.754V60.7038H113.221V59.8568ZM113.221 57.1398H118.754V57.9538H113.221V57.1398ZM112.418 56.5678V61.2758H119.59V56.5678H112.418ZM116.862 61.8368C118.105 62.2218 119.348 62.7058 120.063 63.0578L120.921 62.6178C120.085 62.2548 118.743 61.7708 117.5 61.3858L116.862 61.8368ZM114.299 61.3748C113.507 61.8148 112.176 62.2218 111.032 62.4528C111.219 62.5958 111.505 62.9148 111.637 63.0688C112.748 62.7718 114.134 62.2548 115.036 61.7158L114.299 61.3748ZM123.979 53.6638V54.4778H126.685C126.707 54.8958 126.751 55.3798 126.828 55.8858L126.344 55.8088C125.673 58.8888 124.32 61.0998 121.889 62.3648C122.109 62.5078 122.472 62.8488 122.626 63.0138C124.815 61.7268 126.201 59.7248 127.015 56.8758C127.51 58.9548 128.676 61.3638 131.382 63.0028C131.525 62.8048 131.855 62.4528 132.042 62.3208C127.73 59.7578 127.477 55.6108 127.477 53.6638H123.979ZM135.32 62.3428C136.684 62.3428 137.96 61.3418 137.96 59.5708C137.96 57.7998 136.871 57.0078 135.529 57.0078C135.045 57.0078 134.693 57.1288 134.33 57.3268L134.528 54.9948H137.575V54.1258H133.648L133.395 57.9098L133.934 58.2398C134.396 57.9318 134.737 57.7668 135.276 57.7668C136.288 57.7668 136.948 58.4488 136.948 59.6038C136.948 60.7808 136.178 61.5068 135.232 61.5068C134.297 61.5068 133.714 61.0778 133.252 60.6158L132.757 61.2758C133.296 61.8148 134.066 62.3428 135.32 62.3428ZM147.439 54.2358V55.4568H140.861V54.2358H147.439ZM148.253 56.1718V53.5208H140.058V56.7328C140.058 58.4598 139.959 60.8908 138.936 62.6068C139.145 62.6838 139.508 62.8928 139.662 63.0248C140.718 61.2318 140.861 58.5588 140.861 56.7218V56.1718H148.253ZM145.426 62.1228C144.821 62.1228 144.7 62.0458 144.7 61.6388V60.7368L148.704 60.1098L148.572 59.4388L144.7 60.0438V59.0318L147.934 58.5368L147.813 57.8768L144.7 58.3498V57.3818C145.624 57.1948 146.504 56.9748 147.197 56.7328L146.515 56.2048C145.371 56.6338 143.226 57.0298 141.389 57.2718C141.477 57.4258 141.587 57.6898 141.62 57.8658C142.357 57.7778 143.138 57.6568 143.897 57.5248V58.4598L141.334 58.8558L141.455 59.5378L143.897 59.1638V60.1648L140.971 60.6158L141.103 61.2978L143.897 60.8578V61.6388C143.897 62.6178 144.216 62.8708 145.36 62.8708H147.593C148.539 62.8708 148.792 62.5078 148.902 61.2318C148.671 61.1768 148.352 61.0558 148.165 60.9238C148.11 61.9248 148.022 62.1228 147.527 62.1228H145.426Z" fill="black"/>
<rect x="186" y="123" width="61" height="30" fill="white"/>
<path d="M200.994 134.948H202.886V136.092H200.994V134.948ZM198.453 134.948H200.29V136.092H198.453V134.948ZM195.967 134.948H197.749V136.092H195.967V134.948ZM195.219 134.31V136.73H203.667V134.31H195.219ZM196.671 139.304H202.204V140.118H196.671V139.304ZM196.671 140.657H202.204V141.504H196.671V140.657ZM196.671 137.94H202.204V138.754H196.671V137.94ZM195.868 137.368V142.076H203.04V137.368H195.868ZM200.312 142.637C201.555 143.022 202.798 143.506 203.513 143.858L204.371 143.418C203.535 143.055 202.193 142.571 200.95 142.186L200.312 142.637ZM197.749 142.175C196.957 142.615 195.626 143.022 194.482 143.253C194.669 143.396 194.955 143.715 195.087 143.869C196.198 143.572 197.584 143.055 198.486 142.516L197.749 142.175ZM207.429 134.464V135.278H210.135C210.157 135.696 210.201 136.18 210.278 136.686L209.794 136.609C209.123 139.689 207.77 141.9 205.339 143.165C205.559 143.308 205.922 143.649 206.076 143.814C208.265 142.527 209.651 140.525 210.465 137.676C210.96 139.755 212.126 142.164 214.832 143.803C214.975 143.605 215.305 143.253 215.492 143.121C211.18 140.558 210.927 136.411 210.927 134.464H207.429ZM216.867 143H221.289V142.164H219.672V134.926H218.902C218.462 135.19 217.945 135.377 217.23 135.509V136.147H218.66V142.164H216.867V143ZM224.871 143.143C226.235 143.143 227.511 142.142 227.511 140.371C227.511 138.6 226.422 137.808 225.08 137.808C224.596 137.808 224.244 137.929 223.881 138.127L224.079 135.795H227.126V134.926H223.199L222.946 138.71L223.485 139.04C223.947 138.732 224.288 138.567 224.827 138.567C225.839 138.567 226.499 139.249 226.499 140.404C226.499 141.581 225.729 142.307 224.783 142.307C223.848 142.307 223.265 141.878 222.803 141.416L222.308 142.076C222.847 142.615 223.617 143.143 224.871 143.143ZM236.99 135.036V136.257H230.412V135.036H236.99ZM237.804 136.972V134.321H229.609V137.533C229.609 139.26 229.51 141.691 228.487 143.407C228.696 143.484 229.059 143.693 229.213 143.825C230.269 142.032 230.412 139.359 230.412 137.522V136.972H237.804ZM234.977 142.923C234.372 142.923 234.251 142.846 234.251 142.439V141.537L238.255 140.91L238.123 140.239L234.251 140.844V139.832L237.485 139.337L237.364 138.677L234.251 139.15V138.182C235.175 137.995 236.055 137.775 236.748 137.533L236.066 137.005C234.922 137.434 232.777 137.83 230.94 138.072C231.028 138.226 231.138 138.49 231.171 138.666C231.908 138.578 232.689 138.457 233.448 138.325V139.26L230.885 139.656L231.006 140.338L233.448 139.964V140.965L230.522 141.416L230.654 142.098L233.448 141.658V142.439C233.448 143.418 233.767 143.671 234.911 143.671H237.144C238.09 143.671 238.343 143.308 238.453 142.032C238.222 141.977 237.903 141.856 237.716 141.724C237.661 142.725 237.573 142.923 237.078 142.923H234.977Z" fill="black"/>
</svg>
